<?xml version="1.0" encoding="utf-8" ?>
<svg baseProfile="full" height="300px" version="1.1" width="300px" xmlns="http://www.w3.org/2000/svg" xmlns:ev="http://www.w3.org/2001/xml-events" xmlns:xlink="http://www.w3.org/1999/xlink"><defs><clipPath id="border_clip"><rect height="300" width="300" x="0" y="0" /></clipPath></defs><polygon clip-path="url(#border_clip)" fill="#ff0000" fill-rule="evenodd" points="150.5,150.5 237.10254037844388,100.5 237.1025403784439,200.5 150.5,150.50000000000006" stroke-width="0" /><polygon clip-path="url(#border_clip)" fill="#0000ff" fill-rule="evenodd" points="150.5,150.50000000000006 193.80127018922192,125.50000000000003 193.80127018922195,175.5 150.50000000000003,150.50000000000006" stroke-width="0" /><polygon clip-path="url(#border_clip)" fill="#ff0000" fill-rule="evenodd" points="150.50000000000003,150.50000000000006 100.49999999999991,63.89745962155628 200.4999999999999,63.89745962155612 150.50000000000006,150.50000000000006" stroke-width="0" /><polygon clip-path="url(#border_clip)" fill="#0000ff" fill-rule="evenodd" points="150.50000000000006,150.50000000000006 125.49999999999997,107.19872981077818 175.49999999999997,107.19872981077808 150.50000000000009,150.50000000000006" stroke-width="0" /><polygon clip-path="url(#border_clip)" fill="#ff0000" fill-rule="evenodd" points="150.50000000000009,150.50000000000006 63.89745962155638,200.50000000000023 63.89745962155611,100.50000000000028 150.50000000000009,150.5" stroke-width="0" /><polygon clip-path="url(#border_clip)" fill="#0000ff" fill-rule="evenodd" points="150.50000000000009,150.5 107.19872981077825,175.5000000000001 107.19872981077809,125.50000000000017 150.50000000000009,150.5" stroke-width="0" /><polygon clip-path="url(#border_clip)" fill="#ff0000" fill-rule="evenodd" points="150.50000000000009,150.5 200.50000000000037,237.10254037844362 100.50000000000044,237.10254037844402 150.50000000000006,150.5" stroke-width="0" /><polygon clip-path="url(#border_clip)" fill="#0000ff" fill-rule="evenodd" points="150.50000000000006,150.5 175.50000000000023,193.80127018922178 125.50000000000026,193.801270189222 150.50000000000003,150.5" stroke-width="0" /><polyline clip-path="url(#border_clip)" fill="none" points="150.5,150.5 237.10254037844388,100.5 237.1025403784439,200.5 150.5,150.50000000000006" stroke="#000000" stroke-linecap="round" stroke-width="1" /><polyline clip-path="url(#border_clip)" fill="none" points="150.5,150.50000000000006 193.80127018922192,125.50000000000003 193.80127018922195,175.5 150.50000000000003,150.50000000000006" stroke="#000000" stroke-linecap="round" stroke-width="1" /><polyline clip-path="url(#border_clip)" fill="none" points="150.50000000000003,150.50000000000006 100.49999999999991,63.89745962155628 200.4999999999999,63.89745962155612 150.50000000000006,150.50000000000006" stroke="#000000" stroke-linecap="round" stroke-width="1" /><polyline clip-path="url(#border_clip)" fill="none" points="150.50000000000006,150.50000000000006 125.49999999999997,107.19872981077818 175.49999999999997,107.19872981077808 150.50000000000009,150.50000000000006" stroke="#000000" stroke-linecap="round" stroke-width="1" /><polyline clip-path="url(#border_clip)" fill="none" points="150.50000000000009,150.50000000000006 63.89745962155638,200.50000000000023 63.89745962155611,100.50000000000028 150.50000000000009,150.5" stroke="#000000" stroke-linecap="round" stroke-width="1" /><polyline clip-path="url(#border_clip)" fill="none" points="150.50000000000009,150.5 107.19872981077825,175.5000000000001 107.19872981077809,125.50000000000017 150.50000000000009,150.5" stroke="#000000" stroke-linecap="round" stroke-width="1" /><polyline clip-path="url(#border_clip)" fill="none" points="150.50000000000009,150.5 200.50000000000037,237.10254037844362 100.50000000000044,237.10254037844402 150.50000000000006,150.5" stroke="#000000" stroke-linecap="round" stroke-width="1" /><polyline clip-path="url(#border_clip)" fill="none" points="150.50000000000006,150.5 175.50000000000023,193.80127018922178 125.50000000000026,193.801270189222 150.50000000000003,150.5" stroke="#000000" stroke-linecap="round" stroke-width="1" /></svg>