<?xml version="1.0" encoding="utf-8" ?>
<svg baseProfile="full" height="300px" version="1.1" width="300px" xmlns="http://www.w3.org/2000/svg" xmlns:ev="http://www.w3.org/2001/xml-events" xmlns:xlink="http://www.w3.org/1999/xlink"><defs><clipPath id="border_clip"><rect height="300" width="300" x="0" y="0" /></clipPath></defs><polygon clip-path="url(#border_clip)" fill="#0000ff" fill-rule="evenodd" points="160.5,150.5 247.10254037844388,100.5 247.1025403784439,200.5 160.5,150.50000000000006" stroke-width="0" /><polygon clip-path="url(#border_clip)" fill="#0000ff" fill-rule="evenodd" points="150.5,140.50000000000006 100.49999999999997,53.89745962155624 200.49999999999994,53.897459621556166 150.50000000000003,140.50000000000006" stroke-width="0" /><polygon clip-path="url(#border_clip)" fill="#0000ff" fill-rule="evenodd" points="140.50000000000006,150.50000000000006 53.89745962155628,200.5000000000001 53.89745962155615,100.50000000000017 140.50000000000006,150.5" stroke-width="0" /><polygon clip-path="url(#border_clip)" fill="#0000ff" fill-rule="evenodd" points="150.50000000000009,160.5 200.5000000000002,247.10254037844373 100.50000000000026,247.10254037844393 150.50000000000003,160.5" stroke-width="0" /><polyline clip-path="url(#border_clip)" fill="none" points="160.5,150.5 247.10254037844388,100.5 247.1025403784439,200.5 160.5,150.50000000000006" stroke="#000000" stroke-linecap="round" stroke-width="1" /><polyline clip-path="url(#border_clip)" fill="none" points="150.5,140.50000000000006 100.49999999999997,53.89745962155624 200.49999999999994,53.897459621556166 150.50000000000003,140.50000000000006" stroke="#000000" stroke-linecap="round" stroke-width="1" /><polyline clip-path="url(#border_clip)" fill="none" points="140.50000000000006,150.50000000000006 53.89745962155628,200.5000000000001 53.89745962155615,100.50000000000017 140.50000000000006,150.5" stroke="#000000" stroke-linecap="round" stroke-width="1" /><polyline clip-path="url(#border_clip)" fill="none" points="150.50000000000009,160.5 200.5000000000002,247.10254037844373 100.50000000000026,247.10254037844393 150.50000000000003,160.5" stroke="#000000" stroke-linecap="round" stroke-width="1" /></svg>