<?xml version="1.0" encoding="utf-8" ?>
<svg baseProfile="full" height="300px" version="1.1" width="300px" xmlns="http://www.w3.org/2000/svg" xmlns:ev="http://www.w3.org/2001/xml-events" xmlns:xlink="http://www.w3.org/1999/xlink"><defs><clipPath id="border_clip"><rect height="300" width="300" x="0" y="0" /></clipPath></defs><polygon clip-path="url(#border_clip)" fill="#0000ff" fill-rule="evenodd" points="150.5,250.5 171.29116908177593,248.31476007338057 191.17366430758003,241.85454576426008 209.27852522924732,231.40169943749476 224.81448254773943,217.41306063588584 237.10254037844388,200.50000000000003 245.60565162951536,181.40169943749476 249.95218953682735,160.95284632676538 249.95218953682738,140.04715367323467 245.60565162951542,119.59830056250527 237.1025403784439,100.5 224.8144825477395,83.58693936411417 209.27852522924738,69.59830056250524 191.17366430758008,59.14545423573989 171.291169081776,52.6852399266194 150.50000000000006,50.49999999999996 129.7088309182241,52.68523992661939 109.82633569241999,59.14545423573985 91.72147477075268,69.59830056250519 76.18551745226054,83.5869393641141 63.89745962155608,100.49999999999993 55.394348370484565,119.59830056250519 51.04781046317257,140.04715367323462 51.04781046317255,160.95284632676533 55.39434837048452,181.40169943749473 63.89745962155601,200.5 76.18551745226046,217.41306063588587 91.72147477075256,231.4016994374948 109.82633569241987,241.8545457642602 129.70883091822398,248.31476007338068 150.49999999999994,250.50000000000017 150.50000000000003,150.50000000000003" stroke-width="0" /><polyline clip-path="url(#border_clip)" fill="none" points="150.5,250.5 171.29116908177593,248.31476007338057 191.17366430758003,241.85454576426008 209.27852522924732,231.40169943749476 224.81448254773943,217.41306063588584 237.10254037844388,200.50000000000003 245.60565162951536,181.40169943749476 249.95218953682735,160.95284632676538 249.95218953682738,140.04715367323467 245.60565162951542,119.59830056250527 237.1025403784439,100.5 224.8144825477395,83.58693936411417 209.27852522924738,69.59830056250524 191.17366430758008,59.14545423573989 171.291169081776,52.6852399266194 150.50000000000006,50.49999999999996 129.7088309182241,52.68523992661939 109.82633569241999,59.14545423573985 91.72147477075268,69.59830056250519 76.18551745226054,83.5869393641141 63.89745962155608,100.49999999999993 55.394348370484565,119.59830056250519 51.04781046317257,140.04715367323462 51.04781046317255,160.95284632676533 55.39434837048452,181.40169943749473 63.89745962155601,200.5 76.18551745226046,217.41306063588587 91.72147477075256,231.4016994374948 109.82633569241987,241.8545457642602 129.70883091822398,248.31476007338068 150.49999999999994,250.50000000000017" stroke="#000000" stroke-linecap="round" stroke-width="1" /></svg>