<?xml version="1.0" encoding="utf-8" ?>
<svg baseProfile="full" height="300px" version="1.1" width="300px" xmlns="http://www.w3.org/2000/svg" xmlns:ev="http://www.w3.org/2001/xml-events" xmlns:xlink="http://www.w3.org/1999/xlink"><defs><clipPath id="border_clip"><rect height="300" width="300" x="0" y="0" /></clipPath></defs><polygon clip-path="url(#border_clip)" fill="#0000ff" fill-rule="evenodd" points="250.5,150.5 255.0,142.70577136594005 264.0,142.70577136594005 268.5,150.5 264.0,158.29422863405995 255.0,158.29422863405995 250.5,150.5" stroke-width="0" /><polygon clip-path="url(#border_clip)" fill="#0000ff" fill-rule="evenodd" points="205.5,150.50000000000006 210.0,142.7057713659401 219.0,142.70577136594008 223.5,150.50000000000003 219.00000000000003,158.29422863405998 210.00000000000003,158.29422863406 205.5,150.50000000000006" stroke-width="0" /><polygon clip-path="url(#border_clip)" fill="#0000ff" fill-rule="evenodd" points="227.1044443118977,86.2212390313461 225.5416107128953,77.35796925423624 232.4360107009661,71.57288076705737 240.89324428803928,74.65106205698838 242.45607788704166,83.51433183409824 235.56167789897088,89.29942032127711 227.1044443118977,86.22123903134612" stroke-width="0" /><polygon clip-path="url(#border_clip)" fill="#0000ff" fill-rule="evenodd" points="192.63244437154376,115.14668146724048 191.06961077254135,106.2834116901306 197.96401076061215,100.49832320295172 206.42124434768533,103.57650449288272 207.98407794668773,112.4397742699926 201.08967795861693,118.22486275717148 192.63244437154376,115.14668146724048" stroke-width="0" /><polygon clip-path="url(#border_clip)" fill="#0000ff" fill-rule="evenodd" points="167.8648177666928,52.01922469877938 160.97041777862196,46.23413621160054 162.5332513776243,37.370866434490665 170.9904849646975,34.29268514455961 177.8848849527683,40.07777363173845 176.32205135376597,48.94104340884833 167.8648177666928,52.01922469877938" stroke-width="0" /><polygon clip-path="url(#border_clip)" fill="#0000ff" fill-rule="evenodd" points="160.0506497716811,96.33557358432878 153.1562497836103,90.55048509714996 154.7190833826126,81.68721532004008 163.1763169696858,78.60903403010903 170.07071695775662,84.39412251728785 168.50788335875427,93.25739229439773 160.05064977168112,96.33557358432878" stroke-width="0" /><polygon clip-path="url(#border_clip)" fill="#0000ff" fill-rule="evenodd" points="100.49999999999977,63.897459621556635 91.49999999999976,63.89745962155668 86.99999999999972,56.103230987496744 91.49999999999969,48.30900235343677 100.49999999999969,48.309002353436725 104.99999999999973,56.10323098749666 100.49999999999977,63.897459621556635" stroke-width="0" /><polygon clip-path="url(#border_clip)" fill="#0000ff" fill-rule="evenodd" points="123.0,102.86860279185626 114.0,102.86860279185632 109.49999999999994,95.07437415779638 113.99999999999991,87.28014552373641 122.99999999999991,87.28014552373637 127.49999999999996,95.07437415779629 123.0,102.86860279185626" stroke-width="0" /><polygon clip-path="url(#border_clip)" fill="#0000ff" fill-rule="evenodd" points="56.53073792140923,116.29798566743395 49.63633793333845,122.08307415461285 41.17910434626525,119.00489286468188 39.61627074726282,110.14162308757201 46.51067073533359,104.3565346003931 54.967904322406795,107.43471589032407 56.53073792140923,116.29798566743395" stroke-width="0" /><polygon clip-path="url(#border_clip)" fill="#0000ff" fill-rule="evenodd" points="98.81690585677524,131.68889211708876 91.92250586870446,137.47398060426767 83.46527228163127,134.3957993143367 81.90243868262884,125.53252953722682 88.7968386706996,119.74744105004793 97.2540722577728,122.82562233997888 98.81690585677524,131.68889211708876" stroke-width="0" /><polygon clip-path="url(#border_clip)" fill="#0000ff" fill-rule="evenodd" points="56.53073792140975,184.70201433256773 54.96790432240745,193.56528410967763 46.51067073533429,196.64346539960871 39.61627074726344,190.85837691242992 41.179104346265746,181.99510713532004 49.63633793333889,178.91692584538893 56.53073792140975,184.70201433256773" stroke-width="0" /><polygon clip-path="url(#border_clip)" fill="#0000ff" fill-rule="evenodd" points="98.81690585677552,169.31110788291227 97.25407225777323,178.17437766002217 88.79683867070007,181.25255894995325 81.90243868262921,175.46747046277446 83.46527228163151,166.60420068566458 91.92250586870466,163.52601939573347 98.81690585677552,169.31110788291227" stroke-width="0" /><polygon clip-path="url(#border_clip)" fill="#0000ff" fill-rule="evenodd" points="100.50000000000111,237.10254037844436 105.00000000000118,244.89676901250425 100.50000000000125,252.69099764656426 91.50000000000125,252.69099764656434 87.00000000000118,244.89676901250442 91.50000000000111,237.10254037844444 100.50000000000111,237.10254037844436" stroke-width="0" /><polygon clip-path="url(#border_clip)" fill="#0000ff" fill-rule="evenodd" points="123.00000000000074,198.1313972081444 127.50000000000081,205.92562584220428 123.00000000000088,213.7198544762643 114.00000000000088,213.71985447626437 109.5000000000008,205.92562584220448 114.00000000000072,198.13139720814448 123.00000000000072,198.1313972081444" stroke-width="0" /><polygon clip-path="url(#border_clip)" fill="#0000ff" fill-rule="evenodd" points="167.86481776669433,248.9807753012206 176.32205135376753,252.0589565911515 177.88488495277,260.92222636826136 170.99048496469925,266.7073148554403 162.53325137762604,263.6291335655094 160.97041777862358,254.76586378839954 167.86481776669433,248.9807753012206" stroke-width="0" /><polygon clip-path="url(#border_clip)" fill="#0000ff" fill-rule="evenodd" points="160.05064977168195,204.6644264156713 168.50788335875518,207.74260770560224 170.07071695775764,216.6058774827121 163.1763169696869,222.39096596989103 154.7190833826137,219.3127846799601 153.1562497836112,210.44951490285024 160.05064977168195,204.6644264156713" stroke-width="0" /><polygon clip-path="url(#border_clip)" fill="#0000ff" fill-rule="evenodd" points="227.10444431189873,214.778760968653 235.56167789897188,211.70057967872185 242.45607788704274,217.48566816590062 240.89324428804048,226.34893794301053 232.43601070096736,229.42711923294166 225.54161071289647,223.6420307457629 227.10444431189873,214.778760968653" stroke-width="0" /><polygon clip-path="url(#border_clip)" fill="#0000ff" fill-rule="evenodd" points="192.63244437154432,185.85331853275915 201.08967795861747,182.775137242828 207.98407794668833,188.56022573000678 206.42124434768607,197.42349550711668 197.96401076061295,200.50167679704782 191.06961077254206,194.71658830986905 192.63244437154432,185.85331853275915" stroke-width="0" /><polyline clip-path="url(#border_clip)" fill="none" points="250.5,150.5 255.0,142.70577136594005 264.0,142.70577136594005 268.5,150.5 264.0,158.29422863405995 255.0,158.29422863405995 250.5,150.5" stroke="#000000" stroke-linecap="round" stroke-width="1" /><polyline clip-path="url(#border_clip)" fill="none" points="205.5,150.50000000000006 210.0,142.7057713659401 219.0,142.70577136594008 223.5,150.50000000000003 219.00000000000003,158.29422863405998 210.00000000000003,158.29422863406 205.5,150.50000000000006" stroke="#000000" stroke-linecap="round" stroke-width="1" /><polyline clip-path="url(#border_clip)" fill="none" points="227.1044443118977,86.2212390313461 225.5416107128953,77.35796925423624 232.4360107009661,71.57288076705737 240.89324428803928,74.65106205698838 242.45607788704166,83.51433183409824 235.56167789897088,89.29942032127711 227.1044443118977,86.22123903134612" stroke="#000000" stroke-linecap="round" stroke-width="1" /><polyline clip-path="url(#border_clip)" fill="none" points="192.63244437154376,115.14668146724048 191.06961077254135,106.2834116901306 197.96401076061215,100.49832320295172 206.42124434768533,103.57650449288272 207.98407794668773,112.4397742699926 201.08967795861693,118.22486275717148 192.63244437154376,115.14668146724048" stroke="#000000" stroke-linecap="round" stroke-width="1" /><polyline clip-path="url(#border_clip)" fill="none" points="167.8648177666928,52.01922469877938 160.97041777862196,46.23413621160054 162.5332513776243,37.370866434490665 170.9904849646975,34.29268514455961 177.8848849527683,40.07777363173845 176.32205135376597,48.94104340884833 167.8648177666928,52.01922469877938" stroke="#000000" stroke-linecap="round" stroke-width="1" /><polyline clip-path="url(#border_clip)" fill="none" points="160.0506497716811,96.33557358432878 153.1562497836103,90.55048509714996 154.7190833826126,81.68721532004008 163.1763169696858,78.60903403010903 170.07071695775662,84.39412251728785 168.50788335875427,93.25739229439773 160.05064977168112,96.33557358432878" stroke="#000000" stroke-linecap="round" stroke-width="1" /><polyline clip-path="url(#border_clip)" fill="none" points="100.49999999999977,63.897459621556635 91.49999999999976,63.89745962155668 86.99999999999972,56.103230987496744 91.49999999999969,48.30900235343677 100.49999999999969,48.309002353436725 104.99999999999973,56.10323098749666 100.49999999999977,63.897459621556635" stroke="#000000" stroke-linecap="round" stroke-width="1" /><polyline clip-path="url(#border_clip)" fill="none" points="123.0,102.86860279185626 114.0,102.86860279185632 109.49999999999994,95.07437415779638 113.99999999999991,87.28014552373641 122.99999999999991,87.28014552373637 127.49999999999996,95.07437415779629 123.0,102.86860279185626" stroke="#000000" stroke-linecap="round" stroke-width="1" /><polyline clip-path="url(#border_clip)" fill="none" points="56.53073792140923,116.29798566743395 49.63633793333845,122.08307415461285 41.17910434626525,119.00489286468188 39.61627074726282,110.14162308757201 46.51067073533359,104.3565346003931 54.967904322406795,107.43471589032407 56.53073792140923,116.29798566743395" stroke="#000000" stroke-linecap="round" stroke-width="1" /><polyline clip-path="url(#border_clip)" fill="none" points="98.81690585677524,131.68889211708876 91.92250586870446,137.47398060426767 83.46527228163127,134.3957993143367 81.90243868262884,125.53252953722682 88.7968386706996,119.74744105004793 97.2540722577728,122.82562233997888 98.81690585677524,131.68889211708876" stroke="#000000" stroke-linecap="round" stroke-width="1" /><polyline clip-path="url(#border_clip)" fill="none" points="56.53073792140975,184.70201433256773 54.96790432240745,193.56528410967763 46.51067073533429,196.64346539960871 39.61627074726344,190.85837691242992 41.179104346265746,181.99510713532004 49.63633793333889,178.91692584538893 56.53073792140975,184.70201433256773" stroke="#000000" stroke-linecap="round" stroke-width="1" /><polyline clip-path="url(#border_clip)" fill="none" points="98.81690585677552,169.31110788291227 97.25407225777323,178.17437766002217 88.79683867070007,181.25255894995325 81.90243868262921,175.46747046277446 83.46527228163151,166.60420068566458 91.92250586870466,163.52601939573347 98.81690585677552,169.31110788291227" stroke="#000000" stroke-linecap="round" stroke-width="1" /><polyline clip-path="url(#border_clip)" fill="none" points="100.50000000000111,237.10254037844436 105.00000000000118,244.89676901250425 100.50000000000125,252.69099764656426 91.50000000000125,252.69099764656434 87.00000000000118,244.89676901250442 91.50000000000111,237.10254037844444 100.50000000000111,237.10254037844436" stroke="#000000" stroke-linecap="round" stroke-width="1" /><polyline clip-path="url(#border_clip)" fill="none" points="123.00000000000074,198.1313972081444 127.50000000000081,205.92562584220428 123.00000000000088,213.7198544762643 114.00000000000088,213.71985447626437 109.5000000000008,205.92562584220448 114.00000000000072,198.13139720814448 123.00000000000072,198.1313972081444" stroke="#000000" stroke-linecap="round" stroke-width="1" /><polyline clip-path="url(#border_clip)" fill="none" points="167.86481776669433,248.9807753012206 176.32205135376753,252.0589565911515 177.88488495277,260.92222636826136 170.99048496469925,266.7073148554403 162.53325137762604,263.6291335655094 160.97041777862358,254.76586378839954 167.86481776669433,248.9807753012206" stroke="#000000" stroke-linecap="round" stroke-width="1" /><polyline clip-path="url(#border_clip)" fill="none" points="160.05064977168195,204.6644264156713 168.50788335875518,207.74260770560224 170.07071695775764,216.6058774827121 163.1763169696869,222.39096596989103 154.7190833826137,219.3127846799601 153.1562497836112,210.44951490285024 160.05064977168195,204.6644264156713" stroke="#000000" stroke-linecap="round" stroke-width="1" /><polyline clip-path="url(#border_clip)" fill="none" points="227.10444431189873,214.778760968653 235.56167789897188,211.70057967872185 242.45607788704274,217.48566816590062 240.89324428804048,226.34893794301053 232.43601070096736,229.42711923294166 225.54161071289647,223.6420307457629 227.10444431189873,214.778760968653" stroke="#000000" stroke-linecap="round" stroke-width="1" /><polyline clip-path="url(#border_clip)" fill="none" points="192.63244437154432,185.85331853275915 201.08967795861747,182.775137242828 207.98407794668833,188.56022573000678 206.42124434768607,197.42349550711668 197.96401076061295,200.50167679704782 191.06961077254206,194.71658830986905 192.63244437154432,185.85331853275915" stroke="#000000" stroke-linecap="round" stroke-width="1" /></svg>