<?xml version="1.0" encoding="utf-8" ?>
<svg baseProfile="full" height="660px" version="1.1" width="660px" xmlns="http://www.w3.org/2000/svg" xmlns:ev="http://www.w3.org/2001/xml-events" xmlns:xlink="http://www.w3.org/1999/xlink"><defs><clipPath id="border_clip"><rect height="660" width="660" x="0" y="0" /></clipPath></defs><polyline clip-path="url(#border_clip)" fill="none" points="510.5,330.5 510.5,320.5 500.5,320.5 500.5,310.5 510.5,310.5 510.5,300.5 520.5,300.5 520.5,290.5 510.5,290.5 510.5,280.5 500.5,280.5 500.5,270.5 510.5,270.5 510.5,260.5 520.5,260.5 520.5,270.5 530.5,270.5 530.5,280.5 540.5,280.5 540.5,270.5 550.5,270.5 550.5,260.5 560.5,260.5 560.5,250.5 550.5,250.5 550.5,240.5 540.5,240.5 540.5,230.5 530.5,230.5 530.5,240.5 520.5,240.5 520.5,250.5 510.5,250.5 510.5,240.5 500.5,240.5 500.5,230.5 510.5,230.5 510.5,220.5 520.5,220.5 520.5,210.5 510.5,210.5 510.5,200.5 500.5,200.5" stroke="black" stroke-linecap="round" stroke-width="1" /><polyline clip-path="url(#border_clip)" fill="none" points="500.5,200.5 500.5,190.5 490.5,190.5 490.5,200.5 480.5,200.5 480.5,210.5 470.5,210.5 470.5,220.5 480.5,220.5 480.5,230.5 490.5,230.5 490.5,240.5 480.5,240.5 480.5,250.5 470.5,250.5 470.5,240.5 460.5,240.5 460.5,230.5 450.5,230.5 450.5,240.5 440.5,240.5 440.5,250.5 430.5,250.5 430.5,260.5 440.5,260.5 440.5,270.5 450.5,270.5 450.5,280.5 460.5,280.5 460.5,270.5 470.5,270.5 470.5,260.5 480.5,260.5 480.5,270.5 490.5,270.5 490.5,280.5 480.5,280.5 480.5,290.5 470.5,290.5 470.5,300.5 480.5,300.5 480.5,310.5 490.5,310.5" stroke="black" stroke-linecap="round" stroke-width="1" /><polyline clip-path="url(#border_clip)" fill="none" points="490.5,310.5 490.5,320.5 480.5,320.5 480.5,330.5 470.5,330.5 470.5,320.5 460.5,320.5 460.5,310.5 450.5,310.5 450.5,320.5 440.5,320.5 440.5,330.5 430.5,330.5 430.5,320.5 420.5,320.5 420.5,310.5 430.5,310.5 430.5,300.5 440.5,300.5 440.5,290.5 430.5,290.5 430.5,280.5 420.5,280.5 420.5,270.5 410.5,270.5 410.5,280.5 400.5,280.5 400.5,290.5 390.5,290.5 390.5,300.5 400.5,300.5 400.5,310.5 410.5,310.5 410.5,320.5 400.5,320.5 400.5,330.5 390.5,330.5 390.5,320.5 380.5,320.5 380.5,310.5 370.5,310.5 370.5,320.5 360.5,320.5" stroke="black" stroke-linecap="round" stroke-width="1" /><polyline clip-path="url(#border_clip)" fill="none" points="360.5,320.5 360.5,330.5 350.5,330.5 350.5,320.5 340.5,320.5 340.5,310.5 350.5,310.5 350.5,300.5 360.5,300.5 360.5,290.5 350.5,290.5 350.5,280.5 340.5,280.5 340.5,270.5 350.5,270.5 350.5,260.5 360.5,260.5 360.5,270.5 370.5,270.5 370.5,280.5 380.5,280.5 380.5,270.5 390.5,270.5 390.5,260.5 400.5,260.5 400.5,250.5 390.5,250.5 390.5,240.5 380.5,240.5 380.5,230.5 370.5,230.5 370.5,240.5 360.5,240.5 360.5,250.5 350.5,250.5 350.5,240.5 340.5,240.5 340.5,230.5 350.5,230.5 350.5,220.5 360.5,220.5 360.5,210.5 350.5,210.5" stroke="black" stroke-linecap="round" stroke-width="1" /><polyline clip-path="url(#border_clip)" fill="none" points="350.5,210.5 350.5,200.5 340.5,200.5 340.5,190.5 350.5,190.5 350.5,180.5 360.5,180.5 360.5,190.5 370.5,190.5 370.5,200.5 380.5,200.5 380.5,190.5 390.5,190.5 390.5,180.5 400.5,180.5 400.5,190.5 410.5,190.5 410.5,200.5 400.5,200.5 400.5,210.5 390.5,210.5 390.5,220.5 400.5,220.5 400.5,230.5 410.5,230.5 410.5,240.5 420.5,240.5 420.5,230.5 430.5,230.5 430.5,220.5 440.5,220.5 440.5,210.5 430.5,210.5 430.5,200.5 420.5,200.5 420.5,190.5 430.5,190.5 430.5,180.5 440.5,180.5 440.5,190.5 450.5,190.5 450.5,200.5 460.5,200.5" stroke="black" stroke-linecap="round" stroke-width="1" /><polyline clip-path="url(#border_clip)" fill="none" points="460.5,200.5 460.5,190.5 470.5,190.5 470.5,180.5 480.5,180.5 480.5,170.5 470.5,170.5 470.5,160.5 460.5,160.5 460.5,150.5 450.5,150.5 450.5,160.5 440.5,160.5 440.5,170.5 430.5,170.5 430.5,160.5 420.5,160.5 420.5,150.5 430.5,150.5 430.5,140.5 440.5,140.5 440.5,130.5 430.5,130.5 430.5,120.5 420.5,120.5 420.5,110.5 410.5,110.5 410.5,120.5 400.5,120.5 400.5,130.5 390.5,130.5 390.5,140.5 400.5,140.5 400.5,150.5 410.5,150.5 410.5,160.5 400.5,160.5 400.5,170.5 390.5,170.5 390.5,160.5 380.5,160.5 380.5,150.5 370.5,150.5" stroke="black" stroke-linecap="round" stroke-width="1" /><polyline clip-path="url(#border_clip)" fill="none" points="370.5,150.5 370.5,160.5 360.5,160.5 360.5,170.5 350.5,170.5 350.5,160.5 340.5,160.5 340.5,150.5 350.5,150.5 350.5,140.5 360.5,140.5 360.5,130.5 350.5,130.5 350.5,120.5 340.5,120.5 340.5,110.5 350.5,110.5 350.5,100.5 360.5,100.5 360.5,110.5 370.5,110.5 370.5,120.5 380.5,120.5 380.5,110.5 390.5,110.5 390.5,100.5 400.5,100.5 400.5,90.5 390.5,90.5 390.5,80.5 380.5,80.5 380.5,70.5 370.5,70.5 370.5,80.5 360.5,80.5 360.5,90.5 350.5,90.5 350.5,80.5 340.5,80.5 340.5,70.5 350.5,70.5 350.5,60.5 360.5,60.5" stroke="black" stroke-linecap="round" stroke-width="1" /><polyline clip-path="url(#border_clip)" fill="none" points="360.5,60.5 360.5,50.5 350.5,50.5 350.5,40.5 340.5,40.5 340.5,30.5 330.5,30.5 330.5,40.5 320.5,40.5 320.5,50.5 310.5,50.5 310.5,60.5 320.5,60.5 320.5,70.5 330.5,70.5 330.5,80.5 320.5,80.5 320.5,90.5 310.5,90.5 310.5,80.5 300.5,80.5 300.5,70.5 290.5,70.5 290.5,80.5 280.5,80.5 280.5,90.5 270.5,90.5 270.5,100.5 280.5,100.5 280.5,110.5 290.5,110.5 290.5,120.5 300.5,120.5 300.5,110.5 310.5,110.5 310.5,100.5 320.5,100.5 320.5,110.5 330.5,110.5 330.5,120.5 320.5,120.5 320.5,130.5 310.5,130.5" stroke="black" stroke-linecap="round" stroke-width="1" /><polyline clip-path="url(#border_clip)" fill="none" points="310.5,130.5 310.5,140.5 320.5,140.5 320.5,150.5 330.5,150.5 330.5,160.5 320.5,160.5 320.5,170.5 310.5,170.5 310.5,160.5 300.5,160.5 300.5,150.5 290.5,150.5 290.5,160.5 280.5,160.5 280.5,170.5 270.5,170.5 270.5,160.5 260.5,160.5 260.5,150.5 270.5,150.5 270.5,140.5 280.5,140.5 280.5,130.5 270.5,130.5 270.5,120.5 260.5,120.5 260.5,110.5 250.49999999999997,110.5 250.49999999999997,120.5 240.49999999999997,120.5 240.49999999999997,130.5 230.49999999999997,130.5 230.49999999999997,140.5 240.49999999999997,140.5 240.49999999999997,150.5 250.49999999999997,150.5 250.49999999999997,160.5 240.49999999999997,160.5 240.49999999999997,170.5 230.49999999999997,170.5 230.49999999999997,160.5 220.49999999999997,160.5" stroke="black" stroke-linecap="round" stroke-width="1" /><polyline clip-path="url(#border_clip)" fill="none" points="220.49999999999997,160.5 220.49999999999997,150.5 210.49999999999997,150.5 210.49999999999997,160.5 200.49999999999997,160.5 200.49999999999997,170.5 190.49999999999997,170.5 190.49999999999997,180.5 200.49999999999997,180.5 200.49999999999997,190.5 210.49999999999997,190.5 210.49999999999997,200.5 220.49999999999997,200.5 220.49999999999997,190.5 230.49999999999997,190.5 230.49999999999997,180.5 240.49999999999997,180.5 240.49999999999997,190.5 250.49999999999997,190.5 250.49999999999997,200.5 240.49999999999997,200.5 240.49999999999997,210.5 230.49999999999997,210.5 230.49999999999997,220.5 240.49999999999997,220.5 240.49999999999997,230.5 250.49999999999997,230.5 250.49999999999997,240.5 260.5,240.5 260.5,230.5 270.5,230.5 270.5,220.5 280.5,220.5 280.5,210.5 270.5,210.5 270.5,200.5 260.5,200.5 260.5,190.5 270.5,190.5 270.5,180.5 280.5,180.5 280.5,190.5 290.5,190.5" stroke="black" stroke-linecap="round" stroke-width="1" /><polyline clip-path="url(#border_clip)" fill="none" points="290.5,190.5 290.5,200.5 300.5,200.5 300.5,190.5 310.5,190.5 310.5,180.5 320.5,180.5 320.5,190.5 330.5,190.5 330.5,200.5 320.5,200.5 320.5,210.5 310.5,210.5 310.49999999999994,220.5 320.49999999999994,220.5 320.49999999999994,230.5 330.49999999999994,230.5 330.49999999999994,240.5 320.49999999999994,240.5 320.49999999999994,250.5 310.49999999999994,250.5 310.49999999999994,240.5 300.49999999999994,240.5 300.49999999999994,230.5 290.49999999999994,230.5 290.49999999999994,240.5 280.49999999999994,240.5 280.49999999999994,250.5 270.49999999999994,250.5 270.49999999999994,260.5 280.49999999999994,260.5 280.49999999999994,270.5 290.49999999999994,270.5 290.49999999999994,280.5 300.49999999999994,280.5 300.49999999999994,270.5 310.49999999999994,270.5 310.5,260.5 320.5,260.5 320.49999999999994,270.5 330.49999999999994,270.5 330.49999999999994,280.5 320.49999999999994,280.5" stroke="black" stroke-linecap="round" stroke-width="1" /><polyline clip-path="url(#border_clip)" fill="none" points="320.49999999999994,280.5 320.49999999999994,290.5 310.49999999999994,290.5 310.49999999999994,300.5 320.49999999999994,300.5 320.49999999999994,310.5 330.49999999999994,310.5 330.49999999999994,320.5 320.49999999999994,320.5 320.49999999999994,330.5 310.49999999999994,330.5 310.49999999999994,320.5 300.49999999999994,320.5 300.49999999999994,310.5 290.49999999999994,310.5 290.49999999999994,320.5 280.49999999999994,320.5 280.49999999999994,330.5 270.49999999999994,330.5 270.49999999999994,320.5 260.49999999999994,320.5 260.49999999999994,310.5 270.49999999999994,310.5 270.49999999999994,300.5 280.49999999999994,300.5 280.49999999999994,290.5 270.49999999999994,290.5 270.49999999999994,280.5 260.49999999999994,280.5 260.49999999999994,270.5 250.49999999999994,270.5 250.49999999999994,280.5 240.49999999999994,280.5 240.49999999999994,290.5 230.49999999999994,290.5 230.49999999999994,300.5 240.49999999999994,300.5 240.49999999999994,310.5 250.49999999999994,310.5 250.49999999999994,320.5 240.49999999999994,320.5 240.49999999999994,330.5 230.49999999999994,330.5" stroke="black" stroke-linecap="round" stroke-width="1" /><polyline clip-path="url(#border_clip)" fill="none" points="230.49999999999994,330.5 230.49999999999994,320.5 220.49999999999994,320.5 220.49999999999994,310.5 210.49999999999994,310.5 210.49999999999994,320.5 200.49999999999994,320.5 200.49999999999994,330.5 190.49999999999994,330.5 190.49999999999994,320.5 180.49999999999994,320.5 180.49999999999994,310.5 190.49999999999994,310.5 190.49999999999994,300.5 200.49999999999994,300.5 200.49999999999994,290.5 190.49999999999994,290.5 190.49999999999994,280.5 180.49999999999994,280.5 180.49999999999994,270.5 190.49999999999994,270.5 190.49999999999994,260.5 200.49999999999994,260.5 200.49999999999994,270.5 210.49999999999994,270.5 210.49999999999994,280.5 220.49999999999994,280.5 220.49999999999994,270.5 230.49999999999994,270.5 230.49999999999994,260.5 240.49999999999994,260.5 240.49999999999994,250.5 230.49999999999994,250.5 230.49999999999994,240.5 220.49999999999994,240.5 220.49999999999994,230.5 210.49999999999994,230.5 210.49999999999994,240.5 200.49999999999994,240.5 200.49999999999994,250.5 190.49999999999994,250.5 190.49999999999994,240.5 180.49999999999994,240.5" stroke="black" stroke-linecap="round" stroke-width="1" /><polyline clip-path="url(#border_clip)" fill="none" points="180.49999999999994,240.5 180.49999999999994,230.5 190.49999999999994,230.5 190.49999999999994,220.5 200.49999999999994,220.5 200.49999999999994,210.5 190.49999999999994,210.5 190.49999999999994,200.5 180.49999999999994,200.5 180.49999999999994,190.5 170.49999999999994,190.5 170.49999999999994,200.5 160.49999999999994,200.5 160.49999999999994,210.5 150.49999999999994,210.5 150.49999999999994,220.5 160.49999999999994,220.5 160.49999999999994,230.5 170.49999999999994,230.5 170.49999999999994,240.5 160.49999999999994,240.5 160.49999999999994,250.5 150.49999999999994,250.5 150.49999999999994,240.5 140.49999999999994,240.5 140.49999999999994,230.5 130.49999999999994,230.5 130.49999999999994,240.5 120.49999999999994,240.5 120.49999999999994,250.5 110.49999999999994,250.5 110.49999999999994,260.5 120.49999999999994,260.5 120.49999999999994,270.5 130.49999999999994,270.5 130.49999999999994,280.5 140.49999999999994,280.5 140.49999999999994,270.5 150.49999999999994,270.5 150.49999999999994,260.5 160.49999999999994,260.5 160.49999999999994,270.5 170.49999999999994,270.5" stroke="black" stroke-linecap="round" stroke-width="1" /><polyline clip-path="url(#border_clip)" fill="none" points="170.49999999999994,270.5 170.49999999999994,280.5 160.49999999999994,280.5 160.49999999999994,290.5 150.49999999999994,290.5 150.49999999999994,300.5 160.49999999999994,300.5 160.49999999999994,310.5 170.49999999999994,310.5 170.49999999999994,320.5 160.49999999999994,320.5 160.49999999999994,330.5 150.49999999999994,330.5 150.49999999999994,320.5 140.49999999999994,320.5 140.49999999999994,310.5 130.49999999999994,310.5 130.49999999999994,320.5 120.49999999999994,320.5 120.49999999999994,330.5 110.49999999999994,330.5 110.49999999999994,320.5 100.49999999999994,320.5 100.49999999999994,310.5 110.49999999999994,310.5 110.49999999999994,300.5 120.49999999999994,300.5 120.49999999999994,290.5 110.49999999999994,290.5 110.49999999999994,280.5 100.49999999999994,280.5 100.49999999999994,270.5 90.49999999999994,270.5 90.49999999999994,280.5 80.49999999999994,280.5 80.49999999999994,290.5 70.49999999999994,290.5 70.49999999999994,300.5 80.49999999999994,300.5 80.49999999999994,310.5 90.49999999999994,310.5 90.49999999999994,320.5 80.49999999999994,320.5" stroke="black" stroke-linecap="round" stroke-width="1" /><polyline clip-path="url(#border_clip)" fill="none" points="80.49999999999994,320.5 80.49999999999994,330.5 70.49999999999994,330.5 70.49999999999994,320.5 60.49999999999994,320.5 60.49999999999994,310.5 50.49999999999994,310.5 50.49999999999994,320.5 40.49999999999994,320.5 40.49999999999994,330.5 30.499999999999943,330.5 30.499999999999943,340.5 40.49999999999994,340.5 40.49999999999994,350.5 50.49999999999994,350.5 50.49999999999994,360.5 60.49999999999994,360.5 60.49999999999994,350.5 70.49999999999994,350.5 70.49999999999994,340.5 80.49999999999994,340.5 80.49999999999994,350.5 90.49999999999994,350.5 90.49999999999994,360.5 80.49999999999994,360.5 80.49999999999994,370.5 70.49999999999994,370.5 70.49999999999994,380.5 80.49999999999994,380.5 80.49999999999994,390.5 90.49999999999994,390.5 90.49999999999994,400.5 100.49999999999994,400.5 100.49999999999994,390.5 110.49999999999994,390.5 110.49999999999994,380.5 120.49999999999994,380.5 120.49999999999994,370.5 110.49999999999994,370.5 110.49999999999994,360.5 100.49999999999994,360.5 100.49999999999994,350.5 110.49999999999994,350.5" stroke="black" stroke-linecap="round" stroke-width="1" /><polyline clip-path="url(#border_clip)" fill="none" points="110.49999999999994,350.5 110.49999999999994,340.5 120.49999999999994,340.5 120.49999999999994,350.5 130.49999999999994,350.5 130.49999999999994,360.5 140.49999999999994,360.5 140.49999999999994,350.5 150.49999999999994,350.5 150.49999999999994,340.5 160.49999999999994,340.5 160.49999999999994,350.5 170.49999999999994,350.5 170.49999999999994,360.5 160.49999999999994,360.5 160.49999999999994,370.5 150.49999999999994,370.5 150.49999999999994,380.5 160.49999999999994,380.5 160.49999999999994,390.5 170.49999999999994,390.5 170.49999999999994,400.5 160.49999999999994,400.5 160.49999999999994,410.5 150.49999999999994,410.5 150.49999999999994,400.5 140.49999999999994,400.5 140.49999999999994,390.5 130.49999999999994,390.5 130.49999999999994,400.5 120.49999999999994,400.5 120.49999999999994,410.5 110.49999999999994,410.5 110.49999999999994,420.5 120.49999999999994,420.5 120.49999999999994,430.5 130.49999999999994,430.5 130.49999999999994,440.5 140.49999999999994,440.5 140.49999999999994,430.5 150.49999999999994,430.5 150.49999999999994,420.5 160.49999999999994,420.5" stroke="black" stroke-linecap="round" stroke-width="1" /><polyline clip-path="url(#border_clip)" fill="none" points="160.49999999999994,420.5 160.49999999999994,430.5 170.49999999999994,430.5 170.49999999999994,440.5 160.49999999999994,440.5 160.49999999999994,450.5 150.49999999999994,450.5 150.49999999999994,460.5 160.49999999999994,460.5 160.49999999999994,470.5 170.49999999999994,470.5 170.49999999999994,480.5 180.49999999999994,480.5 180.49999999999994,470.5 190.49999999999994,470.5 190.49999999999994,460.5 200.49999999999994,460.5 200.49999999999994,450.5 190.49999999999994,450.5 190.49999999999994,440.5 180.49999999999994,440.5 180.49999999999994,430.5 190.49999999999994,430.5 190.49999999999994,420.5 200.49999999999994,420.5 200.49999999999994,430.5 210.49999999999994,430.5 210.49999999999994,440.5 220.49999999999994,440.5 220.49999999999994,430.5 230.49999999999994,430.5 230.49999999999994,420.5 240.49999999999994,420.5 240.49999999999994,410.5 230.49999999999994,410.5 230.49999999999994,400.5 220.49999999999994,400.5 220.49999999999994,390.5 210.49999999999994,390.5 210.49999999999994,400.5 200.49999999999994,400.5 200.49999999999994,410.5 190.49999999999994,410.5" stroke="black" stroke-linecap="round" stroke-width="1" /><polyline clip-path="url(#border_clip)" fill="none" points="190.49999999999994,410.5 190.49999999999994,400.5 180.49999999999994,400.5 180.49999999999994,390.5 190.49999999999994,390.5 190.49999999999994,380.5 200.49999999999994,380.5 200.49999999999994,370.5 190.49999999999994,370.5 190.49999999999994,360.5 180.49999999999994,360.5 180.49999999999994,350.5 190.49999999999994,350.5 190.49999999999994,340.5 200.49999999999994,340.5 200.49999999999994,350.5 210.49999999999994,350.5 210.49999999999994,360.5 220.49999999999994,360.5 220.49999999999994,350.5 230.49999999999994,350.50000000000006 230.49999999999994,340.50000000000006 240.49999999999994,340.50000000000006 240.49999999999994,350.50000000000006 250.49999999999994,350.50000000000006 250.49999999999994,360.50000000000006 240.49999999999994,360.50000000000006 240.49999999999994,370.50000000000006 230.49999999999994,370.50000000000006 230.49999999999994,380.50000000000006 240.49999999999994,380.50000000000006 240.49999999999994,390.50000000000006 250.49999999999994,390.50000000000006 250.49999999999994,400.50000000000006 260.49999999999994,400.50000000000006 260.49999999999994,390.50000000000006 270.49999999999994,390.50000000000006 270.49999999999994,380.50000000000006 280.49999999999994,380.50000000000006 280.49999999999994,370.50000000000006 270.49999999999994,370.50000000000006 270.49999999999994,360.50000000000006 260.49999999999994,360.50000000000006" stroke="black" stroke-linecap="round" stroke-width="1" /><polyline clip-path="url(#border_clip)" fill="none" points="260.49999999999994,360.50000000000006 260.49999999999994,350.50000000000006 270.49999999999994,350.50000000000006 270.49999999999994,340.50000000000006 280.49999999999994,340.50000000000006 280.49999999999994,350.50000000000006 290.49999999999994,350.50000000000006 290.49999999999994,360.50000000000006 300.49999999999994,360.50000000000006 300.49999999999994,350.50000000000006 310.49999999999994,350.50000000000006 310.49999999999994,340.50000000000006 320.49999999999994,340.50000000000006 320.49999999999994,350.50000000000006 330.49999999999994,350.50000000000006 330.49999999999994,360.50000000000006 320.49999999999994,360.50000000000006 320.49999999999994,370.50000000000006 310.49999999999994,370.50000000000006 310.49999999999994,380.50000000000006 320.49999999999994,380.50000000000006 320.49999999999994,390.50000000000006 330.49999999999994,390.50000000000006 330.49999999999994,400.50000000000006 320.49999999999994,400.50000000000006 320.49999999999994,410.50000000000006 310.49999999999994,410.50000000000006 310.49999999999994,400.50000000000006 300.49999999999994,400.50000000000006 300.49999999999994,390.50000000000006 290.49999999999994,390.50000000000006 290.49999999999994,400.50000000000006 280.49999999999994,400.50000000000006 280.49999999999994,410.50000000000006 270.49999999999994,410.50000000000006 270.49999999999994,420.50000000000006 280.49999999999994,420.50000000000006 280.49999999999994,430.50000000000006 290.49999999999994,430.50000000000006 290.49999999999994,440.50000000000006 300.49999999999994,440.50000000000006 300.49999999999994,430.50000000000006 310.49999999999994,430.50000000000006" stroke="black" stroke-linecap="round" stroke-width="1" /><polyline clip-path="url(#border_clip)" fill="none" points="310.49999999999994,430.50000000000006 310.49999999999994,420.50000000000006 320.49999999999994,420.50000000000006 320.49999999999994,430.50000000000006 330.49999999999994,430.50000000000006 330.49999999999994,440.50000000000006 320.49999999999994,440.50000000000006 320.49999999999994,450.50000000000006 310.49999999999994,450.50000000000006 310.49999999999994,460.50000000000006 320.49999999999994,460.50000000000006 320.49999999999994,470.50000000000006 330.49999999999994,470.50000000000006 330.49999999999994,480.50000000000006 320.49999999999994,480.50000000000006 320.49999999999994,490.50000000000006 310.49999999999994,490.50000000000006 310.49999999999994,480.50000000000006 300.49999999999994,480.50000000000006 300.49999999999994,470.50000000000006 290.49999999999994,470.50000000000006 290.49999999999994,480.50000000000006 280.49999999999994,480.50000000000006 280.49999999999994,490.50000000000006 270.49999999999994,490.50000000000006 270.49999999999994,480.50000000000006 260.49999999999994,480.50000000000006 260.49999999999994,470.50000000000006 270.49999999999994,470.50000000000006 270.49999999999994,460.50000000000006 280.49999999999994,460.50000000000006 280.49999999999994,450.50000000000006 270.49999999999994,450.50000000000006 270.49999999999994,440.50000000000006 260.49999999999994,440.50000000000006 260.49999999999994,430.50000000000006 250.49999999999994,430.50000000000006 250.49999999999994,440.50000000000006 240.49999999999994,440.50000000000006 240.49999999999994,450.50000000000006 230.49999999999994,450.50000000000006 230.49999999999994,460.50000000000006 240.49999999999994,460.50000000000006" stroke="black" stroke-linecap="round" stroke-width="1" /><polyline clip-path="url(#border_clip)" fill="none" points="240.49999999999994,460.50000000000006 240.49999999999994,470.50000000000006 250.49999999999994,470.50000000000006 250.49999999999994,480.50000000000006 240.49999999999994,480.50000000000006 240.49999999999994,490.50000000000006 230.49999999999994,490.50000000000006 230.49999999999994,480.50000000000006 220.49999999999994,480.50000000000006 220.49999999999994,470.50000000000006 210.49999999999994,470.50000000000006 210.49999999999994,480.50000000000006 200.49999999999994,480.50000000000006 200.49999999999994,490.50000000000006 190.49999999999994,490.50000000000006 190.49999999999994,500.50000000000006 200.49999999999994,500.50000000000006 200.49999999999994,510.50000000000006 210.49999999999994,510.50000000000006 210.49999999999994,520.5 220.49999999999994,520.5 220.49999999999994,510.50000000000006 230.49999999999994,510.50000000000006 230.49999999999994,500.50000000000006 240.49999999999994,500.50000000000006 240.49999999999994,510.50000000000006 250.49999999999994,510.50000000000006 250.49999999999994,520.5 240.49999999999994,520.5 240.49999999999994,530.5 230.49999999999994,530.5 230.49999999999994,540.5 240.49999999999994,540.5 240.49999999999994,550.5 250.49999999999994,550.5 250.49999999999994,560.5 260.49999999999994,560.5 260.49999999999994,550.5 270.49999999999994,550.5 270.49999999999994,540.5 280.49999999999994,540.5 280.49999999999994,530.5 270.49999999999994,530.5" stroke="black" stroke-linecap="round" stroke-width="1" /><polyline clip-path="url(#border_clip)" fill="none" points="270.49999999999994,530.5 270.49999999999994,520.5 260.49999999999994,520.5 260.49999999999994,510.50000000000006 270.49999999999994,510.50000000000006 270.49999999999994,500.50000000000006 280.49999999999994,500.50000000000006 280.49999999999994,510.50000000000006 290.49999999999994,510.50000000000006 290.49999999999994,520.5 300.49999999999994,520.5 300.49999999999994,510.50000000000006 310.49999999999994,510.50000000000006 310.49999999999994,500.50000000000006 320.49999999999994,500.50000000000006 320.49999999999994,510.50000000000006 330.49999999999994,510.50000000000006 330.49999999999994,520.5 320.49999999999994,520.5 320.49999999999994,530.5 310.49999999999994,530.5 310.49999999999994,540.5 320.49999999999994,540.5 320.49999999999994,550.5 330.49999999999994,550.5 330.49999999999994,560.5 320.49999999999994,560.5 320.49999999999994,570.5 310.49999999999994,570.5 310.49999999999994,560.5 300.49999999999994,560.5 300.49999999999994,550.5 290.49999999999994,550.5 290.49999999999994,560.5 280.49999999999994,560.5 280.49999999999994,570.5 270.49999999999994,570.5 270.49999999999994,580.5 280.49999999999994,580.5 280.49999999999994,590.5 290.49999999999994,590.5 290.49999999999994,600.5 300.49999999999994,600.5" stroke="black" stroke-linecap="round" stroke-width="1" /><polyline clip-path="url(#border_clip)" fill="none" points="300.49999999999994,600.5 300.49999999999994,590.5 310.49999999999994,590.5 310.49999999999994,580.5 320.49999999999994,580.5 320.49999999999994,590.5 330.49999999999994,590.5 330.49999999999994,600.5 320.49999999999994,600.5 320.49999999999994,610.5 310.49999999999994,610.5 310.49999999999994,620.5 320.49999999999994,620.5 320.49999999999994,630.5 330.49999999999994,630.5 330.49999999999994,640.5 340.49999999999994,640.5 340.49999999999994,630.5 350.49999999999994,630.5 350.49999999999994,620.5 360.49999999999994,620.5 360.49999999999994,610.5 350.49999999999994,610.5 350.49999999999994,600.5 340.49999999999994,600.5 340.49999999999994,590.5 350.49999999999994,590.5 350.49999999999994,580.5 360.49999999999994,580.5 360.49999999999994,590.5 370.49999999999994,590.5 370.49999999999994,600.5 380.49999999999994,600.5 380.49999999999994,590.5 390.49999999999994,590.5 390.49999999999994,580.5 400.49999999999994,580.5 400.49999999999994,570.5 390.49999999999994,570.5 390.49999999999994,560.5 380.49999999999994,560.5 380.49999999999994,550.5 370.49999999999994,550.5" stroke="black" stroke-linecap="round" stroke-width="1" /><polyline clip-path="url(#border_clip)" fill="none" points="370.49999999999994,550.5 370.49999999999994,560.5 360.49999999999994,560.5 360.49999999999994,570.5 350.49999999999994,570.5 350.49999999999994,560.5 340.49999999999994,560.5 340.49999999999994,550.5 350.49999999999994,550.5 350.49999999999994,540.5 360.49999999999994,540.5 360.49999999999994,530.5 350.49999999999994,530.5 350.49999999999994,520.5 340.49999999999994,520.5 340.49999999999994,510.50000000000006 350.49999999999994,510.50000000000006 350.49999999999994,500.50000000000006 360.49999999999994,500.50000000000006 360.49999999999994,510.50000000000006 370.49999999999994,510.50000000000006 370.49999999999994,520.5 380.49999999999994,520.5 380.49999999999994,510.50000000000006 390.49999999999994,510.50000000000006 390.49999999999994,500.50000000000006 400.49999999999994,500.50000000000006 400.49999999999994,510.50000000000006 410.49999999999994,510.50000000000006 410.49999999999994,520.5 400.49999999999994,520.5 400.49999999999994,530.5 390.49999999999994,530.5 390.49999999999994,540.5 400.49999999999994,540.5 400.49999999999994,550.5 410.49999999999994,550.5 410.49999999999994,560.5 420.49999999999994,560.5 420.49999999999994,550.5 430.49999999999994,550.5 430.49999999999994,540.5 440.49999999999994,540.5" stroke="black" stroke-linecap="round" stroke-width="1" /><polyline clip-path="url(#border_clip)" fill="none" points="440.49999999999994,540.5 440.49999999999994,530.5 430.49999999999994,530.5 430.49999999999994,520.5 420.49999999999994,520.5 420.49999999999994,510.50000000000006 430.49999999999994,510.50000000000006 430.49999999999994,500.50000000000006 440.49999999999994,500.50000000000006 440.49999999999994,510.50000000000006 450.49999999999994,510.50000000000006 450.49999999999994,520.5 460.49999999999994,520.5 460.49999999999994,510.50000000000006 470.49999999999994,510.50000000000006 470.49999999999994,500.50000000000006 480.49999999999994,500.50000000000006 480.49999999999994,490.50000000000006 470.49999999999994,490.50000000000006 470.49999999999994,480.50000000000006 460.49999999999994,480.50000000000006 460.49999999999994,470.50000000000006 450.49999999999994,470.50000000000006 450.49999999999994,480.50000000000006 440.49999999999994,480.50000000000006 440.49999999999994,490.50000000000006 430.49999999999994,490.50000000000006 430.49999999999994,480.50000000000006 420.49999999999994,480.50000000000006 420.49999999999994,470.50000000000006 430.49999999999994,470.50000000000006 430.49999999999994,460.50000000000006 440.49999999999994,460.50000000000006 440.49999999999994,450.50000000000006 430.49999999999994,450.50000000000006 430.49999999999994,440.50000000000006 420.49999999999994,440.50000000000006 420.49999999999994,430.50000000000006 410.49999999999994,430.50000000000006 410.49999999999994,440.50000000000006 400.49999999999994,440.50000000000006 400.49999999999994,450.50000000000006 390.49999999999994,450.50000000000006" stroke="black" stroke-linecap="round" stroke-width="1" /><polyline clip-path="url(#border_clip)" fill="none" points="390.49999999999994,450.50000000000006 390.49999999999994,460.50000000000006 400.49999999999994,460.50000000000006 400.49999999999994,470.50000000000006 410.49999999999994,470.50000000000006 410.49999999999994,480.50000000000006 400.49999999999994,480.50000000000006 400.49999999999994,490.50000000000006 390.49999999999994,490.50000000000006 390.49999999999994,480.50000000000006 380.49999999999994,480.50000000000006 380.49999999999994,470.50000000000006 370.49999999999994,470.50000000000006 370.49999999999994,480.50000000000006 360.49999999999994,480.50000000000006 360.49999999999994,490.50000000000006 350.49999999999994,490.50000000000006 350.49999999999994,480.50000000000006 340.49999999999994,480.50000000000006 340.49999999999994,470.50000000000006 350.49999999999994,470.50000000000006 350.49999999999994,460.50000000000006 360.49999999999994,460.50000000000006 360.49999999999994,450.50000000000006 350.49999999999994,450.50000000000006 350.49999999999994,440.50000000000006 340.49999999999994,440.50000000000006 340.49999999999994,430.50000000000006 350.49999999999994,430.50000000000006 350.49999999999994,420.50000000000006 360.49999999999994,420.50000000000006 360.49999999999994,430.50000000000006 370.49999999999994,430.50000000000006 370.49999999999994,440.50000000000006 380.49999999999994,440.50000000000006 380.49999999999994,430.50000000000006 390.49999999999994,430.50000000000006 390.49999999999994,420.50000000000006 400.49999999999994,420.50000000000006 400.49999999999994,410.50000000000006 390.49999999999994,410.50000000000006 390.49999999999994,400.50000000000006 380.49999999999994,400.50000000000006" stroke="black" stroke-linecap="round" stroke-width="1" /><polyline clip-path="url(#border_clip)" fill="none" points="380.49999999999994,400.50000000000006 380.49999999999994,390.50000000000006 370.49999999999994,390.50000000000006 370.49999999999994,400.50000000000006 360.49999999999994,400.50000000000006 360.49999999999994,410.50000000000006 350.49999999999994,410.50000000000006 350.49999999999994,400.50000000000006 340.49999999999994,400.50000000000006 340.49999999999994,390.50000000000006 350.49999999999994,390.50000000000006 350.49999999999994,380.50000000000006 360.49999999999994,380.50000000000006 360.49999999999994,370.50000000000006 350.49999999999994,370.50000000000006 350.49999999999994,360.50000000000006 340.49999999999994,360.50000000000006 340.49999999999994,350.50000000000006 350.49999999999994,350.50000000000006 350.5,340.50000000000006 360.5,340.50000000000006 360.49999999999994,350.50000000000006 370.5,350.50000000000006 370.5,360.50000000000006 380.5,360.50000000000006 380.5,350.50000000000006 390.5,350.50000000000006 390.5,340.50000000000006 400.5,340.50000000000006 400.5,350.50000000000006 410.5,350.50000000000006 410.5,360.50000000000006 400.5,360.50000000000006 400.5,370.50000000000006 390.5,370.50000000000006 390.5,380.50000000000006 400.5,380.50000000000006 400.5,390.50000000000006 410.5,390.50000000000006 410.5,400.50000000000006 420.5,400.50000000000006 420.5,390.50000000000006 430.5,390.50000000000006" stroke="black" stroke-linecap="round" stroke-width="1" /><polyline clip-path="url(#border_clip)" fill="none" points="430.5,390.50000000000006 430.5,380.50000000000006 440.5,380.50000000000006 440.5,370.50000000000006 430.5,370.50000000000006 430.5,360.50000000000006 420.5,360.50000000000006 420.5,350.50000000000006 430.5,350.50000000000006 430.5,340.50000000000006 440.5,340.50000000000006 440.5,350.50000000000006 450.5,350.50000000000006 450.5,360.50000000000006 460.5,360.50000000000006 460.5,350.50000000000006 470.5,350.50000000000006 470.5,340.50000000000006 480.5,340.50000000000006 480.5,350.50000000000006 490.5,350.50000000000006 490.5,360.50000000000006 480.5,360.50000000000006 480.5,370.5000000000001 470.5,370.5000000000001 470.5,380.5000000000001 480.5,380.5000000000001 480.5,390.5000000000001 490.5,390.5000000000001 490.5,400.5000000000001 480.5,400.5000000000001 480.5,410.5000000000001 470.5,410.5000000000001 470.5,400.5000000000001 460.5,400.5000000000001 460.5,390.5000000000001 450.5,390.5000000000001 450.5,400.5000000000001 440.5,400.5000000000001 440.5,410.5000000000001 430.5,410.5000000000001 430.5,420.5000000000001 440.5,420.5000000000001" stroke="black" stroke-linecap="round" stroke-width="1" /><polyline clip-path="url(#border_clip)" fill="none" points="440.5,420.5000000000001 440.5,430.5000000000001 450.5,430.5000000000001 450.5,440.5000000000001 460.5,440.5000000000001 460.5,430.5000000000001 470.5,430.5000000000001 470.5,420.5000000000001 480.5,420.5000000000001 480.5,430.5000000000001 490.5,430.5000000000001 490.5,440.5000000000001 480.5,440.5000000000001 480.5,450.5000000000001 470.5,450.5000000000001 470.5,460.5000000000001 480.5,460.5000000000001 480.5,470.5000000000001 490.5,470.5000000000001 490.5,480.5000000000001 500.5,480.5000000000001 500.5,470.5000000000001 510.5,470.5000000000001 510.5,460.5000000000001 520.5,460.5000000000001 520.5,450.5000000000001 510.5,450.5000000000001 510.5,440.5000000000001 500.5,440.5000000000001 500.5,430.5000000000001 510.5,430.5000000000001 510.5,420.5000000000001 520.5,420.5000000000001 520.5,430.5000000000001 530.5,430.5000000000001 530.5,440.5000000000001 540.5,440.5000000000001 540.5,430.5000000000001 550.5,430.5000000000001 550.5,420.5000000000001 560.5,420.5000000000001 560.5,410.5000000000001 550.5,410.5000000000001" stroke="black" stroke-linecap="round" stroke-width="1" /><polyline clip-path="url(#border_clip)" fill="none" points="550.5,410.5000000000001 550.5,400.5000000000001 540.5,400.5000000000001 540.5,390.5000000000001 530.5,390.50000000000006 530.5,400.5000000000001 520.5,400.5000000000001 520.5,410.5000000000001 510.5,410.5000000000001 510.5,400.5000000000001 500.5,400.5000000000001 500.5,390.5000000000001 510.5,390.5000000000001 510.5,380.5000000000001 520.5,380.5000000000001 520.5,370.5000000000001 510.5,370.50000000000006 510.5,360.50000000000006 500.5,360.50000000000006 500.5,350.50000000000006 510.5,350.50000000000006 510.5,340.50000000000006 520.5,340.50000000000006 520.5,350.50000000000006 530.5,350.50000000000006 530.5,360.50000000000006 540.5,360.5000000000001 540.5,350.5000000000001 550.5,350.5000000000001 550.5,340.5000000000001 560.5,340.5000000000001 560.5,350.5000000000001 570.5,350.5000000000001 570.5,360.5000000000001 560.5,360.5000000000001 560.5,370.5000000000001 550.5,370.5000000000001 550.5,380.5000000000001 560.5,380.5000000000001 560.5,390.5000000000001 570.5,390.5000000000001 570.5,400.5000000000001 580.5,400.5000000000001" stroke="black" stroke-linecap="round" stroke-width="1" /><polyline clip-path="url(#border_clip)" fill="none" points="580.5,400.5000000000001 580.5,390.5000000000001 590.5,390.5000000000001 590.5,380.5000000000001 600.5,380.5000000000001 600.5,370.5000000000001 590.5,370.5000000000001 590.5,360.5000000000001 580.5,360.5000000000001 580.5,350.5000000000001 590.5,350.5000000000001 590.5,340.5000000000001 600.5,340.5000000000001 600.5,350.5000000000001 610.5,350.5000000000001 610.5,360.5000000000001 620.5,360.5000000000001 620.5,350.5000000000001 630.5,350.5000000000001 630.5,340.5000000000001 640.5,340.5000000000001" stroke="black" stroke-linecap="round" stroke-width="1" /><polyline clip-path="url(#border_clip)" fill="none" points="640.5,340.5 640.5,330.5 630.5,330.5 630.5,320.5 620.5,320.5 620.5,310.5 610.5,310.5 610.5,320.5 600.5,320.5 600.5,330.5 590.5,330.5 590.5,320.5 580.5,320.5 580.5,310.5 590.5,310.5 590.5,300.5 600.5,300.5 600.5,290.5 590.5,290.5 590.5,280.5 580.5,280.5 580.5,270.5 570.5,270.5 570.5,280.5 560.5,280.5 560.5,290.5 550.5,290.5 550.5,300.5 560.5,300.5 560.5,310.5 570.5,310.5 570.5,320.5 560.5,320.5 560.5,330.5 550.5,330.5 550.5,320.5 540.5,320.5 540.5,310.5 530.5,310.5 530.5,320.5 520.5,320.5 520.5,330.5 510.5,330.5" stroke="black" stroke-linecap="round" stroke-width="1" /></svg>