<?xml version="1.0" encoding="utf-8" ?>
<svg baseProfile="full" height="660px" version="1.1" width="660px" xmlns="http://www.w3.org/2000/svg" xmlns:ev="http://www.w3.org/2001/xml-events" xmlns:xlink="http://www.w3.org/1999/xlink"><defs><clipPath id="border_clip"><rect height="660" width="660" x="0" y="0" /></clipPath></defs><polyline clip-path="url(#border_clip)" fill="none" points="330.5,430.5 330.5,420.5 330.5,410.5 330.5,400.5 330.5,390.5 330.5,380.5 330.5,370.5 330.5,360.5 330.5,350.5 334.32683432365087,341.26120467488715 338.1536686473018,332.02240934977425 341.98050297095267,322.7836140246614 345.8073372946036,313.5448186995485 352.8784051064691,306.4737508876831 359.94947291833455,299.40268307581755 369.1882682434474,295.5758487521667" stroke="black" stroke-linecap="round" stroke-width="1" /><polyline clip-path="url(#border_clip)" fill="none" points="369.1882682434474,295.5758487521667 378.4270635685603,291.7490144285158 385.4981313804258,284.6779466166503" stroke="black" stroke-linecap="round" stroke-width="1" /><polyline clip-path="url(#border_clip)" fill="none" points="359.94947291833455,299.40268307581755 367.0205407302,292.33161526395213" stroke="black" stroke-linecap="round" stroke-width="1" /><polyline clip-path="url(#border_clip)" fill="none" points="367.0205407302,292.33161526395213 374.0916085420655,285.2605474520866 377.9184428657164,276.02175212697375" stroke="black" stroke-linecap="round" stroke-width="1" /><polyline clip-path="url(#border_clip)" fill="none" points="359.94947291833455,299.40268307581755 367.0205407302,292.33161526395213 374.0916085420655,285.2605474520866 377.9184428657164,276.02175212697375 381.7452771893673,266.7829568018609 385.57211151301817,257.54416147674806" stroke="black" stroke-linecap="round" stroke-width="1" /><polyline clip-path="url(#border_clip)" fill="none" points="385.57211151301817,257.54416147674806 389.3989458366691,248.30536615163516 389.3989458366691,238.30536615163516" stroke="black" stroke-linecap="round" stroke-width="1" /><polyline clip-path="url(#border_clip)" fill="none" points="374.0916085420655,285.2605474520866 383.33040386717835,281.4337131284357" stroke="black" stroke-linecap="round" stroke-width="1" /><polyline clip-path="url(#border_clip)" fill="none" points="383.33040386717835,281.4337131284357 392.56919919229125,277.60687880478486 399.6402670041567,270.5358109929193" stroke="black" stroke-linecap="round" stroke-width="1" /><polyline clip-path="url(#border_clip)" fill="none" points="345.8073372946036,313.5448186995485 349.63417161825447,304.30602337443565 353.4610059419054,295.0672280493228 360.5320737537709,287.99616023745733" stroke="black" stroke-linecap="round" stroke-width="1" /><polyline clip-path="url(#border_clip)" fill="none" points="360.5320737537709,287.99616023745733 367.60314156563635,280.92509242559186 371.4299758892872,271.68629710047895" stroke="black" stroke-linecap="round" stroke-width="1" /><polyline clip-path="url(#border_clip)" fill="none" points="353.4610059419054,295.0672280493228 357.28784026555627,285.8284327242099" stroke="black" stroke-linecap="round" stroke-width="1" /><polyline clip-path="url(#border_clip)" fill="none" points="357.28784026555627,285.8284327242099 361.1146745892072,276.58963739909706 361.1146745892072,266.58963739909706" stroke="black" stroke-linecap="round" stroke-width="1" /><polyline clip-path="url(#border_clip)" fill="none" points="353.4610059419054,295.0672280493228 357.28784026555627,285.8284327242099 361.1146745892072,276.58963739909706 361.1146745892072,266.58963739909706 361.1146745892072,256.58963739909706 361.1146745892072,246.58963739909706" stroke="black" stroke-linecap="round" stroke-width="1" /><polyline clip-path="url(#border_clip)" fill="none" points="361.1146745892072,246.58963739909706 361.1146745892072,236.58963739909706 357.28784026555627,227.35084207398418" stroke="black" stroke-linecap="round" stroke-width="1" /><polyline clip-path="url(#border_clip)" fill="none" points="361.1146745892072,276.58963739909706 368.1857424010727,269.5185695872316" stroke="black" stroke-linecap="round" stroke-width="1" /><polyline clip-path="url(#border_clip)" fill="none" points="368.1857424010727,269.5185695872316 375.25681021293815,262.4475017753661 379.083644536589,253.20870645025323" stroke="black" stroke-linecap="round" stroke-width="1" /><polyline clip-path="url(#border_clip)" fill="none" points="345.8073372946036,313.5448186995485 349.63417161825447,304.30602337443565 353.4610059419054,295.0672280493228 357.28784026555627,285.8284327242099 361.1146745892072,276.58963739909706 361.1146745892072,266.58963739909706 361.1146745892072,256.58963739909706 361.1146745892072,246.58963739909706 361.1146745892072,236.58963739909706 361.1146745892072,226.58963739909706 361.1146745892072,216.58963739909706 364.94150891285807,207.35084207398418" stroke="black" stroke-linecap="round" stroke-width="1" /><polyline clip-path="url(#border_clip)" fill="none" points="364.94150891285807,207.35084207398418 368.768343236509,198.1120467488713 368.768343236509,188.1120467488713" stroke="black" stroke-linecap="round" stroke-width="1" /><polyline clip-path="url(#border_clip)" fill="none" points="361.1146745892072,216.58963739909706 361.1146745892072,206.58963739909706" stroke="black" stroke-linecap="round" stroke-width="1" /><polyline clip-path="url(#border_clip)" fill="none" points="361.1146745892072,206.58963739909706 361.1146745892072,196.58963739909706 357.28784026555627,187.35084207398418" stroke="black" stroke-linecap="round" stroke-width="1" /><polyline clip-path="url(#border_clip)" fill="none" points="361.1146745892072,216.58963739909706 361.1146745892072,206.58963739909706 361.1146745892072,196.58963739909706 357.28784026555627,187.35084207398418 353.4610059419054,178.1120467488713 349.6341716182545,168.87325142375843" stroke="black" stroke-linecap="round" stroke-width="1" /><polyline clip-path="url(#border_clip)" fill="none" points="349.6341716182545,168.87325142375843 345.8073372946036,159.63445609864556 338.7362694827381,152.56338828678008" stroke="black" stroke-linecap="round" stroke-width="1" /><polyline clip-path="url(#border_clip)" fill="none" points="361.1146745892072,196.58963739909706 364.94150891285807,187.35084207398418" stroke="black" stroke-linecap="round" stroke-width="1" /><polyline clip-path="url(#border_clip)" fill="none" points="364.94150891285807,187.35084207398418 368.768343236509,178.1120467488713 368.768343236509,168.1120467488713" stroke="black" stroke-linecap="round" stroke-width="1" /><polyline clip-path="url(#border_clip)" fill="none" points="361.1146745892072,276.58963739909706 368.1857424010727,269.5185695872316 375.25681021293815,262.4475017753661 384.495605538051,258.62066745171524" stroke="black" stroke-linecap="round" stroke-width="1" /><polyline clip-path="url(#border_clip)" fill="none" points="384.495605538051,258.62066745171524 393.73440086316384,254.7938331280643 400.8054686750293,247.72276531619883" stroke="black" stroke-linecap="round" stroke-width="1" /><polyline clip-path="url(#border_clip)" fill="none" points="375.25681021293815,262.4475017753661 382.32787802480357,255.37643396350063" stroke="black" stroke-linecap="round" stroke-width="1" /><polyline clip-path="url(#border_clip)" fill="none" points="382.32787802480357,255.37643396350063 389.39894583666904,248.30536615163516 393.22578016031997,239.0665708265223" stroke="black" stroke-linecap="round" stroke-width="1" /><polyline clip-path="url(#border_clip)" fill="none" points="375.25681021293815,262.4475017753661 382.32787802480357,255.37643396350063 389.39894583666904,248.30536615163516 393.22578016031997,239.0665708265223 397.05261448397084,229.82777550140946 400.87944880762177,220.5889801762966" stroke="black" stroke-linecap="round" stroke-width="1" /><polyline clip-path="url(#border_clip)" fill="none" points="400.87944880762177,220.5889801762966 404.70628313127264,211.3501848511837 404.70628313127264,201.35018485118374" stroke="black" stroke-linecap="round" stroke-width="1" /><polyline clip-path="url(#border_clip)" fill="none" points="389.39894583666904,248.30536615163516 398.63774116178195,244.47853182798428" stroke="black" stroke-linecap="round" stroke-width="1" /><polyline clip-path="url(#border_clip)" fill="none" points="398.63774116178195,244.47853182798428 407.8765364868948,240.65169750433336 414.94760429876027,233.58062969246788" stroke="black" stroke-linecap="round" stroke-width="1" /><polyline clip-path="url(#border_clip)" fill="none" points="330.5,350.5 330.5,340.5 330.5,330.5 330.5,320.5 330.5,310.5 334.32683432365087,301.26120467488715 338.1536686473018,292.0224093497743 345.2247364591673,284.95134153790883" stroke="black" stroke-linecap="round" stroke-width="1" /><polyline clip-path="url(#border_clip)" fill="none" points="345.2247364591673,284.95134153790883 352.29580427103275,277.88027372604336 356.1226385946836,268.6414784009305" stroke="black" stroke-linecap="round" stroke-width="1" /><polyline clip-path="url(#border_clip)" fill="none" points="338.1536686473018,292.0224093497743 341.98050297095267,282.78361402466146" stroke="black" stroke-linecap="round" stroke-width="1" /><polyline clip-path="url(#border_clip)" fill="none" points="341.98050297095267,282.78361402466146 345.8073372946036,273.5448186995486 345.8073372946036,263.5448186995486" stroke="black" stroke-linecap="round" stroke-width="1" /><polyline clip-path="url(#border_clip)" fill="none" points="338.1536686473018,292.0224093497743 341.98050297095267,282.78361402466146 345.8073372946036,273.5448186995486 345.8073372946036,263.5448186995486 345.8073372946036,253.54481869954859 345.8073372946036,243.54481869954859" stroke="black" stroke-linecap="round" stroke-width="1" /><polyline clip-path="url(#border_clip)" fill="none" points="345.8073372946036,243.54481869954859 345.8073372946036,233.54481869954859 341.98050297095267,224.3060233744357" stroke="black" stroke-linecap="round" stroke-width="1" /><polyline clip-path="url(#border_clip)" fill="none" points="345.8073372946036,273.5448186995486 352.8784051064691,266.4737508876831" stroke="black" stroke-linecap="round" stroke-width="1" /><polyline clip-path="url(#border_clip)" fill="none" points="352.8784051064691,266.4737508876831 359.94947291833455,259.40268307581766 363.7763072419854,250.16388775070476" stroke="black" stroke-linecap="round" stroke-width="1" /><polyline clip-path="url(#border_clip)" fill="none" points="330.5,310.5 330.5,300.50000000000006 330.5,290.50000000000006 334.3268343236509,281.26120467488715" stroke="black" stroke-linecap="round" stroke-width="1" /><polyline clip-path="url(#border_clip)" fill="none" points="334.3268343236509,281.26120467488715 338.1536686473018,272.0224093497743 338.1536686473018,262.0224093497743" stroke="black" stroke-linecap="round" stroke-width="1" /><polyline clip-path="url(#border_clip)" fill="none" points="330.5,290.50000000000006 330.5,280.50000000000006" stroke="black" stroke-linecap="round" stroke-width="1" /><polyline clip-path="url(#border_clip)" fill="none" points="330.5,280.50000000000006 330.5,270.50000000000006 326.67316567634913,261.2612046748872" stroke="black" stroke-linecap="round" stroke-width="1" /><polyline clip-path="url(#border_clip)" fill="none" points="330.5,290.50000000000006 330.5,280.50000000000006 330.5,270.50000000000006 326.67316567634913,261.2612046748872 322.8463313526982,252.02240934977434 319.01949702904733,242.78361402466146" stroke="black" stroke-linecap="round" stroke-width="1" /><polyline clip-path="url(#border_clip)" fill="none" points="319.01949702904733,242.78361402466146 315.1926627053964,233.5448186995486 308.1215948935309,226.47375088768314" stroke="black" stroke-linecap="round" stroke-width="1" /><polyline clip-path="url(#border_clip)" fill="none" points="330.5,270.50000000000006 334.32683432365087,261.2612046748872" stroke="black" stroke-linecap="round" stroke-width="1" /><polyline clip-path="url(#border_clip)" fill="none" points="334.32683432365087,261.2612046748872 338.1536686473018,252.02240934977434 338.1536686473018,242.02240934977434" stroke="black" stroke-linecap="round" stroke-width="1" /><polyline clip-path="url(#border_clip)" fill="none" points="330.5,310.5 330.5,300.50000000000006 330.5,290.50000000000006 330.5,280.50000000000006 330.5,270.50000000000006 326.67316567634913,261.2612046748872 322.8463313526982,252.02240934977434 319.01949702904733,242.78361402466146 315.1926627053964,233.5448186995486 311.36582838174553,224.30602337443577 307.5389940580946,215.0672280493229 307.5389940580946,205.0672280493229" stroke="black" stroke-linecap="round" stroke-width="1" /><polyline clip-path="url(#border_clip)" fill="none" points="307.5389940580946,205.0672280493229 307.5389940580946,195.0672280493229 303.71215973444373,185.82843272421002" stroke="black" stroke-linecap="round" stroke-width="1" /><polyline clip-path="url(#border_clip)" fill="none" points="307.5389940580946,215.0672280493229 303.71215973444373,205.82843272421002" stroke="black" stroke-linecap="round" stroke-width="1" /><polyline clip-path="url(#border_clip)" fill="none" points="303.71215973444373,205.82843272421002 299.88532541079286,196.58963739909717 292.8142575989274,189.5185695872317" stroke="black" stroke-linecap="round" stroke-width="1" /><polyline clip-path="url(#border_clip)" fill="none" points="307.5389940580946,215.0672280493229 303.71215973444373,205.82843272421002 299.88532541079286,196.58963739909717 292.8142575989274,189.5185695872317 285.7431897870619,182.44750177536622 278.67212197519643,175.37643396350074" stroke="black" stroke-linecap="round" stroke-width="1" /><polyline clip-path="url(#border_clip)" fill="none" points="278.67212197519643,175.37643396350074 271.60105416333096,168.30536615163527 262.3622588382181,164.47853182798437" stroke="black" stroke-linecap="round" stroke-width="1" /><polyline clip-path="url(#border_clip)" fill="none" points="299.88532541079286,196.58963739909717 299.88532541079286,186.58963739909717" stroke="black" stroke-linecap="round" stroke-width="1" /><polyline clip-path="url(#border_clip)" fill="none" points="299.88532541079286,186.58963739909717 299.88532541079286,176.58963739909717 296.05849108714193,167.35084207398432" stroke="black" stroke-linecap="round" stroke-width="1" /><polyline clip-path="url(#border_clip)" fill="none" points="330.5,270.50000000000006 334.32683432365087,261.2612046748872 338.1536686473018,252.02240934977434 345.2247364591673,244.95134153790886" stroke="black" stroke-linecap="round" stroke-width="1" /><polyline clip-path="url(#border_clip)" fill="none" points="345.2247364591673,244.95134153790886 352.29580427103275,237.88027372604338 356.1226385946836,228.6414784009305" stroke="black" stroke-linecap="round" stroke-width="1" /><polyline clip-path="url(#border_clip)" fill="none" points="338.1536686473018,252.02240934977434 341.98050297095267,242.78361402466146" stroke="black" stroke-linecap="round" stroke-width="1" /><polyline clip-path="url(#border_clip)" fill="none" points="341.98050297095267,242.78361402466146 345.8073372946036,233.5448186995486 345.8073372946036,223.5448186995486" stroke="black" stroke-linecap="round" stroke-width="1" /><polyline clip-path="url(#border_clip)" fill="none" points="338.1536686473018,252.02240934977434 341.98050297095267,242.78361402466146 345.8073372946036,233.5448186995486 345.8073372946036,223.5448186995486 345.8073372946036,213.5448186995486 345.8073372946036,203.5448186995486" stroke="black" stroke-linecap="round" stroke-width="1" /><polyline clip-path="url(#border_clip)" fill="none" points="345.8073372946036,203.5448186995486 345.8073372946036,193.5448186995486 341.98050297095267,184.30602337443577" stroke="black" stroke-linecap="round" stroke-width="1" /><polyline clip-path="url(#border_clip)" fill="none" points="345.8073372946036,233.5448186995486 352.8784051064691,226.47375088768314" stroke="black" stroke-linecap="round" stroke-width="1" /><polyline clip-path="url(#border_clip)" fill="none" points="352.8784051064691,226.47375088768314 359.94947291833455,219.40268307581766 363.7763072419854,210.16388775070482" stroke="black" stroke-linecap="round" stroke-width="1" /><polyline clip-path="url(#border_clip)" fill="none" points="330.5,350.5 330.5,340.5 330.5,330.5 330.5,320.5 330.5,310.5 330.5,300.50000000000006 330.5,290.50000000000006 330.5,280.50000000000006 330.5,270.50000000000006 326.67316567634913,261.2612046748872 322.8463313526982,252.02240934977434 319.01949702904733,242.78361402466146 315.1926627053964,233.5448186995486 311.36582838174553,224.30602337443577 307.53899405809466,215.0672280493229 303.71215973444373,205.82843272421002 299.88532541079286,196.58963739909717 296.058491087142,187.35084207398432 292.23165676349106,178.11204674887148 288.4048224398402,168.87325142375863 284.57798811618926,159.63445609864579 284.57798811618926,149.63445609864579 284.57798811618926,139.63445609864579 288.4048224398402,130.39566077353294" stroke="black" stroke-linecap="round" stroke-width="1" /><polyline clip-path="url(#border_clip)" fill="none" points="288.4048224398402,130.39566077353294 292.23165676349106,121.15686544842009 292.23165676349106,111.15686544842009" stroke="black" stroke-linecap="round" stroke-width="1" /><polyline clip-path="url(#border_clip)" fill="none" points="284.57798811618926,139.63445609864579 284.57798811618926,129.63445609864579" stroke="black" stroke-linecap="round" stroke-width="1" /><polyline clip-path="url(#border_clip)" fill="none" points="284.57798811618926,129.63445609864579 284.57798811618926,119.63445609864579 280.7511537925384,110.39566077353294" stroke="black" stroke-linecap="round" stroke-width="1" /><polyline clip-path="url(#border_clip)" fill="none" points="284.57798811618926,139.63445609864579 284.57798811618926,129.63445609864579 284.57798811618926,119.63445609864579 280.7511537925384,110.39566077353294 276.9243194688875,101.15686544842009 273.0974851452366,91.91807012330725" stroke="black" stroke-linecap="round" stroke-width="1" /><polyline clip-path="url(#border_clip)" fill="none" points="273.0974851452366,91.91807012330725 269.2706508215857,82.6792747981944 262.19958300972024,75.60820698632892" stroke="black" stroke-linecap="round" stroke-width="1" /><polyline clip-path="url(#border_clip)" fill="none" points="284.57798811618926,119.63445609864579 288.4048224398402,110.39566077353294" stroke="black" stroke-linecap="round" stroke-width="1" /><polyline clip-path="url(#border_clip)" fill="none" points="288.4048224398402,110.39566077353294 292.23165676349106,101.15686544842009 292.23165676349106,91.15686544842009" stroke="black" stroke-linecap="round" stroke-width="1" /><polyline clip-path="url(#border_clip)" fill="none" points="284.57798811618926,159.63445609864579 280.7511537925384,150.39566077353294 276.9243194688875,141.1568654484201 276.9243194688875,131.1568654484201" stroke="black" stroke-linecap="round" stroke-width="1" /><polyline clip-path="url(#border_clip)" fill="none" points="276.9243194688875,131.1568654484201 276.9243194688875,121.15686544842009 273.0974851452366,111.91807012330725" stroke="black" stroke-linecap="round" stroke-width="1" /><polyline clip-path="url(#border_clip)" fill="none" points="276.9243194688875,141.1568654484201 273.0974851452366,131.91807012330725" stroke="black" stroke-linecap="round" stroke-width="1" /><polyline clip-path="url(#border_clip)" fill="none" points="273.0974851452366,131.91807012330725 269.2706508215857,122.6792747981944 262.19958300972024,115.60820698632892" stroke="black" stroke-linecap="round" stroke-width="1" /><polyline clip-path="url(#border_clip)" fill="none" points="276.9243194688875,141.1568654484201 273.0974851452366,131.91807012330725 269.2706508215857,122.6792747981944 262.19958300972024,115.60820698632892 255.12851519785477,108.53713917446345 248.0574473859893,101.46607136259797" stroke="black" stroke-linecap="round" stroke-width="1" /><polyline clip-path="url(#border_clip)" fill="none" points="248.0574473859893,101.46607136259797 240.98637957412382,94.3950035507325 231.74758424901097,90.5681692270816" stroke="black" stroke-linecap="round" stroke-width="1" /><polyline clip-path="url(#border_clip)" fill="none" points="269.2706508215857,122.6792747981944 269.2706508215857,112.6792747981944" stroke="black" stroke-linecap="round" stroke-width="1" /><polyline clip-path="url(#border_clip)" fill="none" points="269.2706508215857,112.6792747981944 269.2706508215857,102.6792747981944 265.4438164979348,93.44047947308155" stroke="black" stroke-linecap="round" stroke-width="1" /><polyline clip-path="url(#border_clip)" fill="none" points="284.57798811618926,159.63445609864579 280.7511537925384,150.39566077353294 276.9243194688875,141.1568654484201 273.0974851452366,131.91807012330725 269.2706508215857,122.6792747981944 262.19958300972024,115.60820698632892 255.12851519785477,108.53713917446345 248.0574473859893,101.46607136259797 240.98637957412382,94.3950035507325 233.91531176225834,87.32393573886702 226.84424395039287,80.25286792700155 223.01740962674197,71.0140726018887" stroke="black" stroke-linecap="round" stroke-width="1" /><polyline clip-path="url(#border_clip)" fill="none" points="223.01740962674197,71.0140726018887 219.19057530309107,61.77527727677585 212.1195074912256,54.70420946491038" stroke="black" stroke-linecap="round" stroke-width="1" /><polyline clip-path="url(#border_clip)" fill="none" points="226.84424395039287,80.25286792700155 219.7731761385274,73.18180011513607" stroke="black" stroke-linecap="round" stroke-width="1" /><polyline clip-path="url(#border_clip)" fill="none" points="219.7731761385274,73.18180011513607 212.70210832666191,66.1107323032706 203.46331300154907,62.283897979619724" stroke="black" stroke-linecap="round" stroke-width="1" /><polyline clip-path="url(#border_clip)" fill="none" points="226.84424395039287,80.25286792700155 219.7731761385274,73.18180011513607 212.70210832666191,66.1107323032706 203.46331300154907,62.283897979619724 194.2245176764362,58.45706365596885 184.98572235132332,54.63022933231798" stroke="black" stroke-linecap="round" stroke-width="1" /><polyline clip-path="url(#border_clip)" fill="none" points="184.98572235132332,54.63022933231798 175.74692702621047,50.80339500866711 165.74692702621047,50.80339500866711" stroke="black" stroke-linecap="round" stroke-width="1" /><polyline clip-path="url(#border_clip)" fill="none" points="212.70210832666191,66.1107323032706 208.87527400301101,56.87193697815775" stroke="black" stroke-linecap="round" stroke-width="1" /><polyline clip-path="url(#border_clip)" fill="none" points="208.87527400301101,56.87193697815775 205.04843967936011,47.6331416530449 197.97737186749464,40.562073841179426" stroke="black" stroke-linecap="round" stroke-width="1" /><polyline clip-path="url(#border_clip)" fill="none" points="269.2706508215857,122.6792747981944 269.2706508215857,112.6792747981944 269.2706508215857,102.6792747981944 273.0974851452366,93.44047947308155" stroke="black" stroke-linecap="round" stroke-width="1" /><polyline clip-path="url(#border_clip)" fill="none" points="273.0974851452366,93.44047947308155 276.9243194688875,84.2016841479687 276.9243194688875,74.2016841479687" stroke="black" stroke-linecap="round" stroke-width="1" /><polyline clip-path="url(#border_clip)" fill="none" points="269.2706508215857,102.6792747981944 269.2706508215857,92.6792747981944" stroke="black" stroke-linecap="round" stroke-width="1" /><polyline clip-path="url(#border_clip)" fill="none" points="269.2706508215857,92.6792747981944 269.2706508215857,82.6792747981944 265.4438164979348,73.44047947308155" stroke="black" stroke-linecap="round" stroke-width="1" /><polyline clip-path="url(#border_clip)" fill="none" points="269.2706508215857,102.6792747981944 269.2706508215857,92.6792747981944 269.2706508215857,82.6792747981944 265.4438164979348,73.44047947308155 261.6169821742839,64.2016841479687 257.79014785063305,54.96288882285586" stroke="black" stroke-linecap="round" stroke-width="1" /><polyline clip-path="url(#border_clip)" fill="none" points="257.79014785063305,54.96288882285586 253.96331352698212,45.72409349774301 246.89224571511664,38.65302568587754" stroke="black" stroke-linecap="round" stroke-width="1" /><polyline clip-path="url(#border_clip)" fill="none" points="269.2706508215857,82.6792747981944 273.0974851452366,73.44047947308155" stroke="black" stroke-linecap="round" stroke-width="1" /><polyline clip-path="url(#border_clip)" fill="none" points="273.0974851452366,73.44047947308155 276.9243194688875,64.2016841479687 276.9243194688875,54.201684147968706" stroke="black" stroke-linecap="round" stroke-width="1" /><polyline clip-path="url(#border_clip)" fill="none" points="330.5,270.50000000000006 334.32683432365087,261.2612046748872 338.1536686473018,252.02240934977434 341.98050297095267,242.78361402466146 345.8073372946036,233.5448186995486 352.8784051064691,226.47375088768314 359.94947291833455,219.40268307581766 369.1882682434474,215.57584875216676" stroke="black" stroke-linecap="round" stroke-width="1" /><polyline clip-path="url(#border_clip)" fill="none" points="369.1882682434474,215.57584875216676 378.42706356856024,211.74901442851586 385.4981313804257,204.6779466166504" stroke="black" stroke-linecap="round" stroke-width="1" /><polyline clip-path="url(#border_clip)" fill="none" points="359.94947291833455,219.40268307581766 367.02054073019997,212.3316152639522" stroke="black" stroke-linecap="round" stroke-width="1" /><polyline clip-path="url(#border_clip)" fill="none" points="367.02054073019997,212.3316152639522 374.09160854206544,205.2605474520867 377.9184428657164,196.02175212697387" stroke="black" stroke-linecap="round" stroke-width="1" /><polyline clip-path="url(#border_clip)" fill="none" points="359.94947291833455,219.40268307581766 367.02054073019997,212.3316152639522 374.09160854206544,205.2605474520867 377.9184428657164,196.02175212697387 381.74527718936724,186.78295680186102 385.57211151301817,177.54416147674817" stroke="black" stroke-linecap="round" stroke-width="1" /><polyline clip-path="url(#border_clip)" fill="none" points="385.57211151301817,177.54416147674817 389.39894583666904,168.30536615163533 389.39894583666904,158.30536615163533" stroke="black" stroke-linecap="round" stroke-width="1" /><polyline clip-path="url(#border_clip)" fill="none" points="374.09160854206544,205.2605474520867 383.33040386717835,201.4337131284358" stroke="black" stroke-linecap="round" stroke-width="1" /><polyline clip-path="url(#border_clip)" fill="none" points="383.33040386717835,201.4337131284358 392.5691991922912,197.6068788047849 399.64026700415667,190.53581099291944" stroke="black" stroke-linecap="round" stroke-width="1" /><polyline clip-path="url(#border_clip)" fill="none" points="345.8073372946036,233.5448186995486 349.63417161825447,224.30602337443577 353.4610059419054,215.0672280493229 360.5320737537709,207.99616023745742" stroke="black" stroke-linecap="round" stroke-width="1" /><polyline clip-path="url(#border_clip)" fill="none" points="360.5320737537709,207.99616023745742 367.6031415656363,200.92509242559194 371.4299758892872,191.68629710047907" stroke="black" stroke-linecap="round" stroke-width="1" /><polyline clip-path="url(#border_clip)" fill="none" points="353.4610059419054,215.0672280493229 357.28784026555627,205.82843272421002" stroke="black" stroke-linecap="round" stroke-width="1" /><polyline clip-path="url(#border_clip)" fill="none" points="357.28784026555627,205.82843272421002 361.11467458920714,196.58963739909717 361.11467458920714,186.58963739909717" stroke="black" stroke-linecap="round" stroke-width="1" /><polyline clip-path="url(#border_clip)" fill="none" points="353.4610059419054,215.0672280493229 357.28784026555627,205.82843272421002 361.11467458920714,196.58963739909717 361.11467458920714,186.58963739909717 361.11467458920714,176.58963739909717 361.11467458920714,166.58963739909717" stroke="black" stroke-linecap="round" stroke-width="1" /><polyline clip-path="url(#border_clip)" fill="none" points="361.11467458920714,166.58963739909717 361.11467458920714,156.58963739909717 357.28784026555627,147.35084207398432" stroke="black" stroke-linecap="round" stroke-width="1" /><polyline clip-path="url(#border_clip)" fill="none" points="361.11467458920714,196.58963739909717 368.1857424010726,189.5185695872317" stroke="black" stroke-linecap="round" stroke-width="1" /><polyline clip-path="url(#border_clip)" fill="none" points="368.1857424010726,189.5185695872317 375.2568102129381,182.44750177536622 379.08364453658896,173.20870645025337" stroke="black" stroke-linecap="round" stroke-width="1" /><polyline clip-path="url(#border_clip)" fill="none" points="345.8073372946036,233.5448186995486 349.63417161825447,224.30602337443577 353.4610059419054,215.0672280493229 357.28784026555627,205.82843272421002 361.11467458920714,196.58963739909717 361.11467458920714,186.58963739909717 361.11467458920714,176.58963739909717 361.11467458920714,166.58963739909717 361.11467458920714,156.58963739909717 361.11467458920714,146.58963739909717 361.11467458920714,136.58963739909717 364.94150891285807,127.35084207398432" stroke="black" stroke-linecap="round" stroke-width="1" /><polyline clip-path="url(#border_clip)" fill="none" points="364.94150891285807,127.35084207398432 368.76834323650894,118.11204674887148 368.76834323650894,108.11204674887148" stroke="black" stroke-linecap="round" stroke-width="1" /><polyline clip-path="url(#border_clip)" fill="none" points="361.11467458920714,136.58963739909717 361.11467458920714,126.58963739909717" stroke="black" stroke-linecap="round" stroke-width="1" /><polyline clip-path="url(#border_clip)" fill="none" points="361.11467458920714,126.58963739909717 361.11467458920714,116.58963739909717 357.28784026555627,107.35084207398432" stroke="black" stroke-linecap="round" stroke-width="1" /><polyline clip-path="url(#border_clip)" fill="none" points="361.11467458920714,136.58963739909717 361.11467458920714,126.58963739909717 361.11467458920714,116.58963739909717 357.28784026555627,107.35084207398432 353.46100594190534,98.11204674887148 349.63417161825447,88.87325142375863" stroke="black" stroke-linecap="round" stroke-width="1" /><polyline clip-path="url(#border_clip)" fill="none" points="349.63417161825447,88.87325142375863 345.8073372946036,79.63445609864579 338.7362694827381,72.56338828678031" stroke="black" stroke-linecap="round" stroke-width="1" /><polyline clip-path="url(#border_clip)" fill="none" points="361.11467458920714,116.58963739909717 364.94150891285807,107.35084207398432" stroke="black" stroke-linecap="round" stroke-width="1" /><polyline clip-path="url(#border_clip)" fill="none" points="364.94150891285807,107.35084207398432 368.76834323650894,98.11204674887148 368.76834323650894,88.11204674887148" stroke="black" stroke-linecap="round" stroke-width="1" /><polyline clip-path="url(#border_clip)" fill="none" points="361.11467458920714,196.58963739909717 368.1857424010726,189.5185695872317 375.2568102129381,182.44750177536622 384.49560553805094,178.62066745171532" stroke="black" stroke-linecap="round" stroke-width="1" /><polyline clip-path="url(#border_clip)" fill="none" points="384.49560553805094,178.62066745171532 393.73440086316384,174.79383312806442 400.80546867502926,167.72276531619895" stroke="black" stroke-linecap="round" stroke-width="1" /><polyline clip-path="url(#border_clip)" fill="none" points="375.2568102129381,182.44750177536622 382.32787802480357,175.37643396350074" stroke="black" stroke-linecap="round" stroke-width="1" /><polyline clip-path="url(#border_clip)" fill="none" points="382.32787802480357,175.37643396350074 389.39894583666904,168.30536615163527 393.2257801603199,159.06657082652242" stroke="black" stroke-linecap="round" stroke-width="1" /><polyline clip-path="url(#border_clip)" fill="none" points="375.2568102129381,182.44750177536622 382.32787802480357,175.37643396350074 389.39894583666904,168.30536615163527 393.2257801603199,159.06657082652242 397.05261448397084,149.82777550140958 400.8794488076217,140.58898017629673" stroke="black" stroke-linecap="round" stroke-width="1" /><polyline clip-path="url(#border_clip)" fill="none" points="400.8794488076217,140.58898017629673 404.70628313127264,131.35018485118388 404.70628313127264,121.35018485118388" stroke="black" stroke-linecap="round" stroke-width="1" /><polyline clip-path="url(#border_clip)" fill="none" points="389.39894583666904,168.30536615163527 398.6377411617819,164.47853182798437" stroke="black" stroke-linecap="round" stroke-width="1" /><polyline clip-path="url(#border_clip)" fill="none" points="398.6377411617819,164.47853182798437 407.87653648689474,160.65169750433347 414.9476042987602,153.580629692468" stroke="black" stroke-linecap="round" stroke-width="1" /></svg>