<?xml version="1.0" encoding="utf-8" ?>
<svg baseProfile="full" height="660px" version="1.1" width="660px" xmlns="http://www.w3.org/2000/svg" xmlns:ev="http://www.w3.org/2001/xml-events" xmlns:xlink="http://www.w3.org/1999/xlink"><defs><clipPath id="border_clip"><rect height="660" width="660" x="0" y="0" /></clipPath></defs><polyline clip-path="url(#border_clip)" fill="none" points="362.5,314.5 362.5,310.5 366.5,310.5 370.5,310.5 370.5,306.5 366.5,306.5 366.5,302.5 362.5,302.5 362.5,306.5 358.5,306.5 358.5,302.5 358.5,298.5 354.5,298.5 354.5,302.5 350.5,302.5 350.5,298.5 346.5,298.5 346.5,294.5 350.5,294.5 354.5,294.5 354.5,290.5 350.5,290.5 350.5,286.5 346.5,286.5 346.5,290.5 342.5,290.5 342.5,286.5 342.5,282.5 338.5,282.5 338.5,286.5 334.5,286.5 334.5,290.5 338.5,290.5 338.5,294.5 334.5,294.5 330.5,294.5 330.5,298.5 334.5,298.5 334.5,302.5 330.5,302.5 330.5,306.5 326.5,306.5 326.5,302.5" stroke="black" stroke-linecap="round" stroke-width="1" /><polyline clip-path="url(#border_clip)" fill="none" points="326.5,302.5 326.5,298.5 322.5,298.5 322.5,302.5 318.5,302.5 318.5,298.5 314.5,298.5 314.5,294.5 318.5,294.5 322.5,294.5 322.5,290.5 318.5,290.5 318.5,286.5 318.5,282.5 314.5,282.5 314.5,278.5 318.5,278.5 322.5,278.5 322.5,274.5 318.5,274.5 318.5,270.5 314.5,270.5 314.5,274.5 310.5,274.5 310.5,270.5 310.5,266.5 306.5,266.5 306.5,270.5 302.5,270.5 302.5,274.5 306.5,274.5 306.5,278.5 302.5,278.5 298.5,278.5 298.5,282.5 302.5,282.5 302.5,286.5 298.5,286.5 298.5,290.5 294.5,290.5 294.5,286.5 294.5,282.5 290.5,282.5" stroke="black" stroke-linecap="round" stroke-width="1" /><polyline clip-path="url(#border_clip)" fill="none" points="290.5,282.5 290.5,286.5 286.5,286.5 286.5,282.5 282.5,282.5 282.5,278.5 286.5,278.5 290.5,278.5 290.5,274.5 286.5,274.5 286.5,270.5 282.5,270.5 282.5,274.5 278.5,274.5 278.5,270.5 278.5,266.5 274.5,266.5 274.5,270.5 270.5,270.5 270.5,266.5 266.5,266.5 266.5,262.5 270.5,262.5 274.5,262.5 274.5,258.5 270.5,258.5 270.5,254.5 274.5,254.5 274.5,250.5 278.5,250.5 278.5,254.5 278.5,258.5 282.5,258.5 282.5,254.5 286.5,254.5 290.5,254.5 290.5,250.5 294.5,250.5 294.5,254.5 294.5,258.5 298.5,258.5 298.5,254.5 302.5,254.5" stroke="black" stroke-linecap="round" stroke-width="1" /><polyline clip-path="url(#border_clip)" fill="none" points="302.5,254.5 302.5,250.5 298.5,250.5 298.5,246.5 302.5,246.5 306.5,246.5 306.5,242.5 302.5,242.5 302.5,238.5 298.5,238.5 298.5,242.5 294.5,242.5 294.5,238.5 294.5,234.5 290.5,234.5 290.5,238.5 286.5,238.5 286.5,234.5 282.5,234.5 282.5,230.5 286.5,230.5 290.5,230.5 290.5,226.5 286.5,226.5 286.5,222.5 290.5,222.5 290.5,218.5 294.5,218.5 294.5,222.5 294.5,226.5 298.5,226.5 298.5,222.5 302.5,222.5 302.5,218.5 298.5,218.5 298.5,214.5 302.5,214.5 306.5,214.5 306.5,210.5 302.5,210.5 302.5,206.5 306.5,206.5 306.5,202.5" stroke="black" stroke-linecap="round" stroke-width="1" /><polyline clip-path="url(#border_clip)" fill="none" points="306.5,202.5 310.5,202.5 310.5,206.5 310.5,210.5 314.5,210.5 314.5,206.5 318.5,206.5 318.5,210.5 322.5,210.5 322.5,214.5 318.5,214.5 314.5,214.5 314.5,218.5 318.5,218.5 318.5,222.5 318.5,226.5 322.5,226.5 322.5,230.5 318.5,230.5 314.5,230.5 314.5,234.5 318.5,234.5 318.5,238.5 322.5,238.5 322.5,234.5 326.5,234.5 326.5,238.5 326.5,242.5 330.5,242.5 330.5,238.5 334.5,238.5 334.5,234.5 330.5,234.5 330.5,230.5 334.5,230.5 338.5,230.5 338.5,226.5 334.5,226.5 334.5,222.5 338.5,222.5 338.5,218.5 342.5,218.5 342.5,222.5" stroke="black" stroke-linecap="round" stroke-width="1" /><polyline clip-path="url(#border_clip)" fill="none" points="342.5,222.5 342.5,226.5 346.5,226.5 346.5,222.5 350.5,222.5 354.5,222.5 354.5,218.5 358.5,218.5 358.5,222.5 358.5,226.5 362.5,226.5 362.5,222.5 366.5,222.5 366.5,218.5 362.5,218.5 362.5,214.5 366.5,214.5 370.5,214.5 370.5,210.5 366.5,210.5 366.5,206.5 370.5,206.5 370.5,202.5 374.5,202.5 374.5,206.5 374.5,210.5 378.5,210.5 378.5,206.5 382.5,206.5 382.5,210.5 386.5,210.5 386.5,214.5 382.5,214.5 378.5,214.5 378.5,218.5 382.5,218.5 382.5,222.5 382.5,226.5 386.5,226.5 386.5,230.5 382.5,230.5 378.5,230.5 378.5,234.5" stroke="black" stroke-linecap="round" stroke-width="1" /><polyline clip-path="url(#border_clip)" fill="none" points="378.5,234.5 382.5,234.5 382.5,238.5 386.5,238.5 386.5,234.5 390.5,234.5 390.5,238.5 390.5,242.5 394.5,242.5 394.5,238.5 398.5,238.5 398.5,234.5 394.5,234.5 394.5,230.5 398.5,230.5 402.5,230.5 402.5,226.5 398.5,226.5 398.5,222.5 402.5,222.5 402.5,218.5 406.5,218.5 406.5,222.5 406.5,226.5 410.5,226.5 410.5,222.5 414.5,222.5 414.5,218.5 410.5,218.5 410.5,214.5 414.5,214.5 418.5,214.5 418.5,210.5 414.5,210.5 414.5,206.5 410.5,206.5 410.5,210.5 406.5,210.5 406.5,206.5 406.5,202.5 402.5,202.5 402.5,206.5 398.5,206.5" stroke="black" stroke-linecap="round" stroke-width="1" /><polyline clip-path="url(#border_clip)" fill="none" points="398.5,206.5 398.5,202.5 394.5,202.5 394.5,198.5 398.5,198.5 402.5,198.5 402.5,194.5 398.5,194.5 398.5,190.5 402.5,190.5 402.5,186.5 406.5,186.5 406.5,190.5 406.5,194.5 410.5,194.5 410.5,190.5 414.5,190.5 418.5,190.5 418.5,186.5 422.5,186.5 422.5,190.5 422.5,194.5 426.5,194.5 426.5,190.5 430.5,190.5 430.5,186.5 426.5,186.5 426.5,182.5 430.5,182.5 434.5,182.5 434.5,178.5 430.5,178.5 430.5,174.5 426.5,174.5 426.5,178.5 422.5,178.5 422.5,174.5 422.5,170.5 418.5,170.5 418.5,174.5 414.5,174.5 414.5,170.5 410.5,170.5" stroke="black" stroke-linecap="round" stroke-width="1" /><polyline clip-path="url(#border_clip)" fill="none" points="410.5,170.5 410.5,166.5 414.5,166.5 418.5,166.5 418.5,162.5 414.5,162.5 414.5,158.5 410.5,158.5 410.5,162.5 406.5,162.5 406.5,158.5 406.5,154.5 402.5,154.5 402.5,158.5 398.5,158.5 398.5,162.5 402.5,162.5 402.5,166.5 398.5,166.5 394.5,166.5 394.5,170.5 398.5,170.5 398.5,174.5 394.5,174.5 394.5,178.5 390.5,178.5 390.5,174.5 390.5,170.5 386.5,170.5 386.5,174.5 382.5,174.5 382.5,170.5 378.5,170.5 378.5,166.5 382.5,166.5 386.5,166.5 386.5,162.5 382.5,162.5 382.5,158.5 382.5,154.5 378.5,154.5 378.5,150.5 382.5,150.5" stroke="black" stroke-linecap="round" stroke-width="1" /><polyline clip-path="url(#border_clip)" fill="none" points="382.5,150.5 386.5,150.5 386.5,146.5 382.5,146.5 382.5,142.5 378.5,142.5 378.5,146.5 374.5,146.5 374.5,142.5 374.5,138.5 370.5,138.5 370.5,142.5 366.5,142.5 366.5,146.5 370.5,146.5 370.5,150.5 366.5,150.5 362.5,150.5 362.5,154.5 366.5,154.5 366.5,158.5 362.5,158.5 362.5,162.5 358.5,162.5 358.5,158.5 358.5,154.5 354.5,154.5 354.5,158.5 350.5,158.5 350.5,154.5 346.5,154.5 346.5,150.5 350.5,150.5 354.5,150.5 354.5,146.5 350.5,146.5 350.5,142.5 346.5,142.5 346.5,146.5 342.5,146.5 342.5,142.5 342.5,138.5 338.5,138.5" stroke="black" stroke-linecap="round" stroke-width="1" /><polyline clip-path="url(#border_clip)" fill="none" points="338.5,138.5 338.5,142.5 334.5,142.5 334.5,138.5 330.5,138.5 330.5,134.5 334.5,134.5 338.5,134.5 338.5,130.5 334.5,130.5 334.5,126.5 338.5,126.5 338.5,122.5 342.5,122.5 342.5,126.5 342.5,130.5 346.5,130.5 346.5,126.5 350.5,126.5 354.5,126.5 354.5,122.5 358.5,122.5 358.5,126.5 358.5,130.5 362.5,130.5 362.5,126.5 366.5,126.5 366.5,122.5 362.5,122.5 362.5,118.5 366.5,118.5 370.5,118.5 370.5,114.5 366.5,114.5 366.5,110.5 362.5,110.5 362.5,114.5 358.5,114.5 358.5,110.5 358.5,106.5 354.5,106.5 354.5,110.5 350.5,110.5" stroke="black" stroke-linecap="round" stroke-width="1" /><polyline clip-path="url(#border_clip)" fill="none" points="350.5,110.5 350.5,106.5 346.5,106.5 346.5,102.5 350.5,102.5 354.5,102.5 354.5,98.5 350.5,98.5 350.5,94.5 346.5,94.5 346.5,98.5 342.5,98.5 342.5,94.5 342.5,90.5 338.5,90.5 338.5,94.5 334.5,94.5 334.5,98.5 338.5,98.5 338.5,102.5 334.5,102.5 330.5,102.5 330.5,106.5 334.5,106.5 334.5,110.5 330.5,110.5 330.5,114.5 326.5,114.5 326.5,110.5 326.5,106.5 322.5,106.5 322.5,110.5 318.5,110.5 318.5,106.5 314.5,106.5 314.5,102.5 318.5,102.5 322.5,102.5 322.5,98.5 318.5,98.5 318.5,94.5 318.5,90.5 314.5,90.5" stroke="black" stroke-linecap="round" stroke-width="1" /><polyline clip-path="url(#border_clip)" fill="none" points="314.5,90.5 314.5,86.5 318.5,86.5 322.5,86.5 322.5,82.5 318.5,82.5 318.5,78.5 314.5,78.5 314.5,82.5 310.5,82.5 310.5,78.5 310.5,74.5 306.5,74.5 306.5,78.5 302.5,78.5 302.5,82.5 306.5,82.5 306.5,86.5 302.5,86.5 298.5,86.5 298.5,90.5 302.5,90.5 302.5,94.5 298.5,94.5 298.5,98.5 294.5,98.5 294.5,94.5 294.5,90.5 290.5,90.5 290.5,94.5 286.5,94.5 286.5,98.5 290.5,98.5 290.5,102.5 286.5,102.5 282.5,102.5 282.5,106.5 286.5,106.5 286.5,110.5 290.5,110.5 290.5,106.5 294.5,106.5 294.5,110.5" stroke="black" stroke-linecap="round" stroke-width="1" /><polyline clip-path="url(#border_clip)" fill="none" points="294.5,110.5 294.5,114.5 298.5,114.5 298.5,110.5 302.5,110.5 302.5,114.5 306.5,114.5 306.5,118.5 302.5,118.5 298.5,118.5 298.5,122.5 302.5,122.5 302.5,126.5 298.5,126.5 298.5,130.5 294.5,130.5 294.5,126.5 294.5,122.5 290.5,122.5 290.5,126.5 286.5,126.5 282.5,126.5 282.5,130.5 278.5,130.5 278.5,126.5 278.5,122.5 274.5,122.5 274.5,126.5 270.5,126.5 270.5,130.5 274.5,130.5 274.5,134.5 270.5,134.5 266.5,134.5 266.5,138.5 270.5,138.5 270.5,142.5 274.5,142.5 274.5,138.5 278.5,138.5 278.5,142.5 278.5,146.5 282.5,146.5" stroke="black" stroke-linecap="round" stroke-width="1" /><polyline clip-path="url(#border_clip)" fill="none" points="282.5,146.5 282.5,142.5 286.5,142.5 286.5,146.5 290.5,146.5 290.5,150.5 286.5,150.5 282.5,150.5 282.5,154.5 286.5,154.5 286.5,158.5 282.5,158.5 282.5,162.5 278.5,162.5 278.5,158.5 278.5,154.5 274.5,154.5 274.5,158.5 270.5,158.5 270.5,162.5 274.5,162.5 274.5,166.5 270.5,166.5 266.5,166.5 266.5,170.5 270.5,170.5 270.5,174.5 266.5,174.5 266.5,178.5 262.5,178.5 262.5,174.5 262.5,170.5 258.5,170.5 258.5,174.5 254.5,174.5 254.5,170.5 250.5,170.5 250.5,166.5 254.5,166.5 258.5,166.5 258.5,162.5 254.5,162.5 254.5,158.5" stroke="black" stroke-linecap="round" stroke-width="1" /><polyline clip-path="url(#border_clip)" fill="none" points="254.5,158.5 254.5,154.5 250.5,154.5 250.5,150.5 254.5,150.5 258.5,150.5 258.5,146.5 254.5,146.5 254.5,142.5 250.5,142.5 250.5,146.5 246.5,146.5 246.5,142.5 246.5,138.5 242.5,138.5 242.5,142.5 238.5,142.5 238.5,146.5 242.5,146.5 242.5,150.5 238.5,150.5 234.5,150.5 234.5,154.5 238.5,154.5 238.5,158.5 234.5,158.5 234.5,162.5 230.5,162.5 230.5,158.5 230.5,154.5 226.5,154.5 226.5,158.5 222.5,158.5 222.5,154.5 218.5,154.5 218.5,150.5 222.5,150.5 226.5,150.5 226.5,146.5 222.5,146.5 222.5,142.5 218.5,142.5 218.5,146.5" stroke="black" stroke-linecap="round" stroke-width="1" /><polyline clip-path="url(#border_clip)" fill="none" points="218.5,146.5 214.5,146.5 214.5,142.5 214.5,138.5 210.5,138.5 210.5,142.5 206.5,142.5 206.5,138.5 202.5,138.5 202.5,134.5 206.5,134.5 210.5,134.5 210.5,130.5 206.5,130.5 206.5,126.5 210.5,126.5 210.5,122.5 214.5,122.5 214.5,126.5 214.5,130.5 218.5,130.5 218.5,126.5 222.5,126.5 226.5,126.5 226.5,122.5 230.5,122.5 230.5,126.5 230.5,130.5 234.5,130.5 234.5,126.5 238.5,126.5 238.5,122.5 234.5,122.5 234.5,118.5 238.5,118.5 242.5,118.5 242.5,114.5 238.5,114.5 238.5,110.5 234.5,110.5 234.5,114.5 230.5,114.5 230.5,110.5" stroke="black" stroke-linecap="round" stroke-width="1" /><polyline clip-path="url(#border_clip)" fill="none" points="230.5,110.5 230.5,106.5 226.5,106.5 226.5,110.5 222.5,110.5 222.5,106.5 218.5,106.5 218.5,102.5 222.5,102.5 226.5,102.5 226.5,98.5 222.5,98.5 222.5,94.5 222.5,90.5 218.5,90.5 218.5,86.5 222.5,86.5 226.5,86.5 226.5,82.5 222.5,82.5 222.5,78.5 218.5,78.5 218.5,82.5 214.5,82.5 214.5,78.5 214.5,74.5 210.5,74.5 210.5,78.5 206.5,78.5 206.5,74.5 202.5,74.5 202.5,70.5 206.5,70.5 210.5,70.5 210.5,66.5 206.5,66.5 206.5,62.5 210.5,62.5 210.5,58.5 214.5,58.5 214.5,62.5 214.5,66.5 218.5,66.5" stroke="black" stroke-linecap="round" stroke-width="1" /><polyline clip-path="url(#border_clip)" fill="none" points="218.5,66.5 218.5,62.5 222.5,62.5 226.5,62.5 226.5,58.5 230.5,58.5 230.5,62.5 230.5,66.5 234.5,66.5 234.5,62.5 238.5,62.5 238.5,58.5 234.5,58.5 234.5,54.5 238.5,54.5 242.5,54.5 242.5,50.5 238.5,50.5 238.5,46.5 234.5,46.5 234.5,50.5 230.5,50.5 230.5,46.5 230.5,42.5 226.5,42.5 226.5,46.5 222.5,46.5 222.5,42.5 218.5,42.5 218.5,38.5 222.5,38.5 226.5,38.5 226.5,34.5 222.5,34.5 222.5,30.5 218.5,30.5 218.5,34.5 214.5,34.5 214.5,30.5 214.5,26.5 210.5,26.5 210.5,30.5 206.5,30.5" stroke="black" stroke-linecap="round" stroke-width="1" /><polyline clip-path="url(#border_clip)" fill="none" points="206.5,30.5 206.5,34.5 210.5,34.5 210.5,38.5 206.5,38.5 202.5,38.5 202.5,42.5 206.5,42.5 206.5,46.5 202.5,46.5 202.5,50.5 198.5,50.5 198.5,46.5 198.5,42.5 194.5,42.5 194.5,46.5 190.5,46.5 190.5,42.5 186.5,42.5 186.5,38.5 190.5,38.5 194.5,38.5 194.5,34.5 190.5,34.5 190.5,30.5 190.5,26.5 186.5,26.5 186.5,22.5 190.5,22.5 194.5,22.5 194.5,18.5 190.5,18.5 190.5,14.5 186.5,14.5 186.5,18.5 182.5,18.5 182.5,14.5 182.5,10.5 178.5,10.5 178.5,14.5 174.5,14.5 174.5,18.5 178.5,18.5" stroke="black" stroke-linecap="round" stroke-width="1" /><polyline clip-path="url(#border_clip)" fill="none" points="178.5,18.5 178.5,22.5 174.5,22.5 170.5,22.5 170.5,26.5 174.5,26.5 174.5,30.5 170.5,30.5 170.5,34.5 166.5,34.5 166.5,30.5 166.5,26.5 162.5,26.5 162.5,30.5 158.5,30.5 158.5,34.5 162.5,34.5 162.5,38.5 158.5,38.5 154.5,38.5 154.5,42.5 158.5,42.5 158.5,46.5 162.5,46.5 162.5,42.5 166.5,42.5 166.5,46.5 166.5,50.5 170.5,50.5 170.5,46.5 174.5,46.5 174.5,50.5 178.5,50.5 178.5,54.5 174.5,54.5 170.5,54.5 170.5,58.5 174.5,58.5 174.5,62.5 170.5,62.5 170.5,66.5 166.5,66.5 166.5,62.5" stroke="black" stroke-linecap="round" stroke-width="1" /><polyline clip-path="url(#border_clip)" fill="none" points="166.5,62.5 166.5,58.5 162.5,58.5 162.5,62.5 158.5,62.5 154.5,62.5 154.5,66.5 150.5,66.5 150.5,62.5 150.5,58.5 146.5,58.5 146.5,62.5 142.5,62.5 142.5,66.5 146.5,66.5 146.5,70.5 142.5,70.5 138.5,70.5 138.5,74.5 142.5,74.5 142.5,78.5 146.5,78.5 146.5,74.5 150.5,74.5 150.5,78.5 150.5,82.5 154.5,82.5 154.5,78.5 158.5,78.5 158.5,82.5 162.5,82.5 162.5,86.5 158.5,86.5 154.5,86.5 154.5,90.5 158.5,90.5 158.5,94.5 154.5,94.5 154.5,98.5 150.5,98.5 150.5,94.5 150.5,90.5 146.5,90.5" stroke="black" stroke-linecap="round" stroke-width="1" /><polyline clip-path="url(#border_clip)" fill="none" points="146.5,90.5 146.5,94.5 142.5,94.5 142.5,98.5 146.5,98.5 146.5,102.5 142.5,102.5 138.5,102.5 138.5,106.5 142.5,106.5 142.5,110.5 138.5,110.5 138.5,114.5 134.5,114.5 134.5,110.5 134.5,106.5 130.5,106.5 130.5,110.5 126.5,110.5 126.5,106.5 122.5,106.5 122.5,102.5 126.5,102.5 130.5,102.5 130.5,98.5 126.5,98.5 126.5,94.5 126.5,90.5 122.5,90.5 122.5,86.5 126.5,86.5 130.5,86.5 130.5,82.5 126.5,82.5 126.5,78.5 122.5,78.5 122.5,82.5 118.5,82.5 118.5,78.5 118.5,74.5 114.5,74.5 114.5,78.5 110.5,78.5" stroke="black" stroke-linecap="round" stroke-width="1" /><polyline clip-path="url(#border_clip)" fill="none" points="110.5,78.5 110.5,82.5 114.5,82.5 114.5,86.5 110.5,86.5 106.5,86.5 106.5,90.5 110.5,90.5 110.5,94.5 106.5,94.5 106.5,98.5 102.5,98.5 102.5,94.5 102.5,90.5 98.5,90.5 98.5,94.5 94.5,94.5 94.5,98.5 98.5,98.5 98.5,102.5 94.5,102.5 90.5,102.5 90.5,106.5 94.5,106.5 94.5,110.5 98.5,110.5 98.5,106.5 102.5,106.5 102.5,110.5 102.5,114.5 106.5,114.5 106.5,110.5 110.5,110.5 110.5,114.5 114.5,114.5 114.5,118.5 110.5,118.5 106.5,118.5 106.5,122.5 110.5,122.5 110.5,126.5 106.5,126.5 106.5,130.5" stroke="black" stroke-linecap="round" stroke-width="1" /><polyline clip-path="url(#border_clip)" fill="none" points="106.5,130.5 102.5,130.5 102.5,126.5 102.5,122.5 98.5,122.5 98.5,126.5 94.5,126.5 90.5,126.5 90.5,130.5 86.5,130.5 86.5,126.5 86.5,122.5 82.5,122.5 82.5,126.5 78.5,126.5 78.5,130.5 82.5,130.5 82.5,134.5 78.5,134.5 74.5,134.5 74.5,138.5 78.5,138.5 78.5,142.5 82.5,142.5 82.5,138.5 86.5,138.5 86.5,142.5 86.5,146.5 90.5,146.5 90.5,142.5 94.5,142.5 94.5,146.5 98.5,146.5 98.5,150.5 94.5,150.5 90.5,150.5 90.5,154.5 94.5,154.5 94.5,158.5 98.5,158.5 98.5,154.5 102.5,154.5 102.5,158.5" stroke="black" stroke-linecap="round" stroke-width="1" /><polyline clip-path="url(#border_clip)" fill="none" points="102.5,158.5 102.5,162.5 106.5,162.5 106.5,158.5 110.5,158.5 110.5,154.5 106.5,154.5 106.5,150.5 110.5,150.5 114.5,150.5 114.5,146.5 110.5,146.5 110.5,142.5 114.5,142.5 114.5,138.5 118.5,138.5 118.5,142.5 118.5,146.5 122.5,146.5 122.5,142.5 126.5,142.5 126.5,146.5 130.5,146.5 130.5,150.5 126.5,150.5 122.5,150.5 122.5,154.5 126.5,154.5 126.5,158.5 126.5,162.5 130.5,162.5 130.5,166.5 126.5,166.5 122.5,166.5 122.5,170.5 126.5,170.5 126.5,174.5 130.5,174.5 130.5,170.5 134.5,170.5 134.5,174.5 134.5,178.5 138.5,178.5" stroke="black" stroke-linecap="round" stroke-width="1" /><polyline clip-path="url(#border_clip)" fill="none" points="138.5,178.5 138.5,174.5 142.5,174.5 142.5,170.5 138.5,170.5 138.5,166.5 142.5,166.5 146.5,166.5 146.5,162.5 142.5,162.5 142.5,158.5 146.5,158.5 146.5,154.5 150.5,154.5 150.5,158.5 150.5,162.5 154.5,162.5 154.5,158.5 158.5,158.5 158.5,162.5 162.5,162.5 162.5,166.5 158.5,166.5 154.5,166.5 154.5,170.5 158.5,170.5 158.5,174.5 162.5,174.5 162.5,170.5 166.5,170.5 166.5,174.5 166.5,178.5 170.5,178.5 170.5,174.5 174.5,174.5 174.5,178.5 178.5,178.5 178.5,182.5 174.5,182.5 170.5,182.5 170.5,186.5 174.5,186.5 174.5,190.5" stroke="black" stroke-linecap="round" stroke-width="1" /><polyline clip-path="url(#border_clip)" fill="none" points="174.5,190.5 170.5,190.5 170.5,194.5 166.5,194.5 166.5,190.5 166.5,186.5 162.5,186.5 162.5,190.5 158.5,190.5 154.5,190.5 154.5,194.5 150.5,194.5 150.5,190.5 150.5,186.5 146.5,186.5 146.5,190.5 142.5,190.5 142.5,194.5 146.5,194.5 146.5,198.5 142.5,198.5 138.5,198.5 138.5,202.5 142.5,202.5 142.5,206.5 146.5,206.5 146.5,202.5 150.5,202.5 150.5,206.5 150.5,210.5 154.5,210.5 154.5,206.5 158.5,206.5 158.5,210.5 162.5,210.5 162.5,214.5 158.5,214.5 154.5,214.5 154.5,218.5 158.5,218.5 158.5,222.5 154.5,222.5 154.5,226.5" stroke="black" stroke-linecap="round" stroke-width="1" /><polyline clip-path="url(#border_clip)" fill="none" points="154.5,226.5 150.5,226.5 150.5,222.5 150.5,218.5 146.5,218.5 146.5,222.5 142.5,222.5 142.5,226.5 146.5,226.5 146.5,230.5 142.5,230.5 138.5,230.5 138.5,234.5 142.5,234.5 142.5,238.5 138.5,238.5 138.5,242.5 134.5,242.5 134.5,238.5 134.5,234.5 130.5,234.5 130.5,238.5 126.5,238.5 126.5,234.5 122.5,234.5 122.5,230.5 126.5,230.5 130.5,230.5 130.5,226.5 126.5,226.5 126.5,222.5 126.5,218.5 122.5,218.5 122.5,214.5 126.5,214.5 130.5,214.5 130.5,210.5 126.5,210.5 126.5,206.5 122.5,206.5 122.5,210.5 118.5,210.5 118.5,206.5" stroke="black" stroke-linecap="round" stroke-width="1" /><polyline clip-path="url(#border_clip)" fill="none" points="118.5,206.5 118.5,202.5 114.5,202.5 114.5,206.5 110.5,206.5 110.5,210.5 114.5,210.5 114.5,214.5 110.5,214.5 106.5,214.5 106.5,218.5 110.5,218.5 110.5,222.5 106.5,222.5 106.5,226.5 102.5,226.5 102.5,222.5 102.5,218.5 98.5,218.5 98.5,222.5 94.5,222.5 90.5,222.5 90.5,226.5 86.5,226.5 86.5,222.5 86.5,218.5 82.5,218.5 82.5,222.5 78.5,222.5 78.5,226.5 82.5,226.5 82.5,230.5 78.5,230.5 74.5,230.5 74.5,234.5 78.5,234.5 78.5,238.5 74.5,238.5 74.5,242.5 70.5,242.5 70.5,238.5 70.5,234.5 66.5,234.5" stroke="black" stroke-linecap="round" stroke-width="1" /><polyline clip-path="url(#border_clip)" fill="none" points="66.5,234.5 66.5,238.5 62.5,238.5 62.5,234.5 58.5,234.5 58.5,230.5 62.5,230.5 66.5,230.5 66.5,226.5 62.5,226.5 62.5,222.5 62.5,218.5 58.5,218.5 58.5,214.5 62.5,214.5 66.5,214.5 66.5,210.5 62.5,210.5 62.5,206.5 58.5,206.5 58.5,210.5 54.5,210.5 54.5,206.5 54.5,202.5 50.5,202.5 50.5,206.5 46.5,206.5 46.5,210.5 50.5,210.5 50.5,214.5 46.5,214.5 42.5,214.5 42.5,218.5 46.5,218.5 46.5,222.5 42.5,222.5 42.5,226.5 38.5,226.5 38.5,222.5 38.5,218.5 34.5,218.5 34.5,222.5 30.5,222.5" stroke="black" stroke-linecap="round" stroke-width="1" /><polyline clip-path="url(#border_clip)" fill="none" points="30.5,222.5 30.5,226.5 34.5,226.5 34.5,230.5 30.5,230.5 26.5,230.5 26.5,234.5 30.5,234.5 30.5,238.5 34.5,238.5 34.5,234.5 38.5,234.5 38.5,238.5 38.5,242.5 42.5,242.5 42.5,238.5 46.5,238.5 46.5,242.5 50.5,242.5 50.5,246.5 46.5,246.5 42.5,246.5 42.5,250.5 46.5,250.5 46.5,254.5 42.5,254.5 42.5,258.5 38.5,258.5 38.5,254.5 38.5,250.5 34.5,250.5 34.5,254.5 30.5,254.5 26.5,254.5 26.5,258.5 22.5,258.5 22.5,254.5 22.5,250.5 18.5,250.5 18.5,254.5 14.5,254.5 14.5,258.5 18.5,258.5" stroke="black" stroke-linecap="round" stroke-width="1" /><polyline clip-path="url(#border_clip)" fill="none" points="18.5,258.5 18.5,262.5 14.5,262.5 10.5,262.5 10.5,266.5 14.5,266.5 14.5,270.5 18.5,270.5 18.5,266.5 22.5,266.5 22.5,270.5 22.5,274.5 26.5,274.5 26.5,270.5 30.5,270.5 30.5,274.5 34.5,274.5 34.5,278.5 30.5,278.5 26.5,278.5 26.5,282.5 30.5,282.5 30.5,286.5 34.5,286.5 34.5,282.5 38.5,282.5 38.5,286.5 38.5,290.5 42.5,290.5 42.5,286.5 46.5,286.5 46.5,282.5 42.5,282.5 42.5,278.5 46.5,278.5 50.5,278.5 50.5,274.5 46.5,274.5 46.5,270.5 50.5,270.5 50.5,266.5 54.5,266.5 54.5,270.5" stroke="black" stroke-linecap="round" stroke-width="1" /><polyline clip-path="url(#border_clip)" fill="none" points="54.5,270.5 54.5,274.5 58.5,274.5 58.5,270.5 62.5,270.5 62.5,274.5 66.5,274.5 66.5,278.5 62.5,278.5 58.5,278.5 58.5,282.5 62.5,282.5 62.5,286.5 62.5,290.5 66.5,290.5 66.5,294.5 62.5,294.5 58.5,294.5 58.5,298.5 62.5,298.5 62.5,302.5 66.5,302.5 66.5,298.5 70.5,298.5 70.5,302.5 70.5,306.5 74.5,306.5 74.5,302.5 78.5,302.5 78.5,298.5 74.5,298.5 74.5,294.5 78.5,294.5 82.5,294.5 82.5,290.5 78.5,290.5 78.5,286.5 82.5,286.5 82.5,282.5 86.5,282.5 86.5,286.5 86.5,290.5 90.5,290.5" stroke="black" stroke-linecap="round" stroke-width="1" /><polyline clip-path="url(#border_clip)" fill="none" points="90.5,290.5 90.5,286.5 94.5,286.5 94.5,290.5 98.5,290.5 98.5,294.5 94.5,294.5 90.5,294.5 90.5,298.5 94.5,298.5 94.5,302.5 98.5,302.5 98.5,298.5 102.5,298.5 102.5,302.5 102.5,306.5 106.5,306.5 106.5,302.5 110.5,302.5 110.5,306.5 114.5,306.5 114.5,310.5 110.5,310.5 106.5,310.5 106.5,314.5 110.5,314.5 110.5,318.5 106.5,318.5 106.5,322.5 102.5,322.5 102.5,318.5 102.5,314.5 98.5,314.5 98.5,318.5 94.5,318.5 90.5,318.5 90.5,322.5 86.5,322.5 86.5,318.5 86.5,314.5 82.5,314.5 82.5,318.5 78.5,318.5" stroke="black" stroke-linecap="round" stroke-width="1" /><polyline clip-path="url(#border_clip)" fill="none" points="78.5,318.5 78.5,322.5 82.5,322.5 82.5,326.5 78.5,326.5 74.5,326.5 74.5,330.5 78.5,330.5 78.5,334.5 82.5,334.5 82.5,330.5 86.5,330.5 86.5,334.5 86.5,338.5 90.5,338.5 90.5,334.5 94.5,334.5 94.5,338.5 98.5,338.5 98.5,342.5 94.5,342.5 90.5,342.5 90.5,346.5 94.5,346.5 94.5,350.5 98.5,350.5 98.5,346.5 102.5,346.5 102.5,350.5 102.5,354.5 106.5,354.5 106.5,350.5 110.5,350.5 110.5,346.5 106.5,346.5 106.5,342.5 110.5,342.5 114.5,342.5 114.5,338.5 110.5,338.5 110.5,334.5 114.5,334.5 114.5,330.5" stroke="black" stroke-linecap="round" stroke-width="1" /><polyline clip-path="url(#border_clip)" fill="none" points="114.5,330.5 118.5,330.5 118.5,334.5 118.5,338.5 122.5,338.5 122.5,334.5 126.5,334.5 126.5,338.5 130.5,338.5 130.5,342.5 126.5,342.5 122.5,342.5 122.5,346.5 126.5,346.5 126.5,350.5 126.5,354.5 130.5,354.5 130.5,358.5 126.5,358.5 122.5,358.5 122.5,362.5 126.5,362.5 126.5,366.5 130.5,366.5 130.5,362.5 134.5,362.5 134.5,366.5 134.5,370.5 138.5,370.5 138.5,366.5 142.5,366.5 142.5,362.5 138.5,362.5 138.5,358.5 142.5,358.5 146.5,358.5 146.5,354.5 142.5,354.5 142.5,350.5 146.5,350.5 146.5,346.5 150.5,346.5 150.5,350.5" stroke="black" stroke-linecap="round" stroke-width="1" /><polyline clip-path="url(#border_clip)" fill="none" points="150.5,350.5 150.5,354.5 154.5,354.5 154.5,350.5 158.5,350.5 158.5,346.5 154.5,346.5 154.5,342.5 158.5,342.5 162.5,342.5 162.5,338.5 158.5,338.5 158.5,334.5 154.5,334.5 154.5,338.5 150.5,338.5 150.5,334.5 150.5,330.5 146.5,330.5 146.5,334.5 142.5,334.5 142.5,330.5 138.5,330.5 138.5,326.5 142.5,326.5 146.5,326.5 146.5,322.5 142.5,322.5 142.5,318.5 146.5,318.5 146.5,314.5 150.5,314.5 150.5,318.5 150.5,322.5 154.5,322.5 154.5,318.5 158.5,318.5 162.5,318.5 162.5,314.5 166.5,314.5 166.5,318.5 166.5,322.5 170.5,322.5" stroke="black" stroke-linecap="round" stroke-width="1" /><polyline clip-path="url(#border_clip)" fill="none" points="170.5,322.5 170.5,318.5 174.5,318.5 174.5,314.5 170.5,314.5 170.5,310.5 174.5,310.5 178.5,310.5 178.5,306.5 174.5,306.5 174.5,302.5 170.5,302.5 170.5,306.5 166.5,306.5 166.5,302.5 166.5,298.5 162.5,298.5 162.5,302.5 158.5,302.5 158.5,298.5 154.5,298.5 154.5,294.5 158.5,294.5 162.5,294.5 162.5,290.5 158.5,290.5 158.5,286.5 162.5,286.5 162.5,282.5 166.5,282.5 166.5,286.5 166.5,290.5 170.5,290.5 170.5,286.5 174.5,286.5 174.5,282.5 170.5,282.5 170.5,278.5 174.5,278.5 178.5,278.5 178.5,274.5 174.5,274.5 174.5,270.5" stroke="black" stroke-linecap="round" stroke-width="1" /><polyline clip-path="url(#border_clip)" fill="none" points="174.5,270.5 178.5,270.5 178.5,266.5 182.5,266.5 182.5,270.5 182.5,274.5 186.5,274.5 186.5,270.5 190.5,270.5 190.5,274.5 194.5,274.5 194.5,278.5 190.5,278.5 186.5,278.5 186.5,282.5 190.5,282.5 190.5,286.5 190.5,290.5 194.5,290.5 194.5,294.5 190.5,294.5 186.5,294.5 186.5,298.5 190.5,298.5 190.5,302.5 194.5,302.5 194.5,298.5 198.5,298.5 198.5,302.5 198.5,306.5 202.5,306.5 202.5,302.5 206.5,302.5 206.5,298.5 202.5,298.5 202.5,294.5 206.5,294.5 210.5,294.5 210.5,290.5 206.5,290.5 206.5,286.5 210.5,286.5 210.5,282.5" stroke="black" stroke-linecap="round" stroke-width="1" /><polyline clip-path="url(#border_clip)" fill="none" points="210.5,282.5 214.5,282.5 214.5,286.5 214.5,290.5 218.5,290.5 218.5,286.5 222.5,286.5 222.5,290.5 226.5,290.5 226.5,294.5 222.5,294.5 218.5,294.5 218.5,298.5 222.5,298.5 222.5,302.5 226.5,302.5 226.5,298.5 230.5,298.5 230.5,302.5 230.5,306.5 234.5,306.5 234.5,302.5 238.5,302.5 238.5,306.5 242.5,306.5 242.5,310.5 238.5,310.5 234.5,310.5 234.5,314.5 238.5,314.5 238.5,318.5 234.5,318.5 234.5,322.5 230.5,322.5 230.5,318.5 230.5,314.5 226.5,314.5 226.5,318.5 222.5,318.5 218.5,318.5 218.5,322.5 214.5,322.5 214.5,318.5" stroke="black" stroke-linecap="round" stroke-width="1" /><polyline clip-path="url(#border_clip)" fill="none" points="214.5,318.5 214.5,314.5 210.5,314.5 210.5,318.5 206.5,318.5 206.5,322.5 210.5,322.5 210.5,326.5 206.5,326.5 202.5,326.5 202.5,330.5 206.5,330.5 206.5,334.5 210.5,334.5 210.5,330.5 214.5,330.5 214.5,334.5 214.5,338.5 218.5,338.5 218.5,334.5 222.5,334.5 222.5,338.5 226.5,338.5 226.5,342.5 222.5,342.5 218.5,342.5 218.5,346.5 222.5,346.5 222.5,350.5 222.5,354.5 226.5,354.5 226.5,358.5 222.5,358.5 218.5,358.5 218.5,362.5 222.5,362.5 222.5,366.5 226.5,366.5 226.5,362.5 230.5,362.5 230.5,366.5 230.5,370.5 234.5,370.5" stroke="black" stroke-linecap="round" stroke-width="1" /><polyline clip-path="url(#border_clip)" fill="none" points="234.5,370.5 234.5,366.5 238.5,366.5 238.5,370.5 242.5,370.5 242.5,374.5 238.5,374.5 234.5,374.5 234.5,378.5 238.5,378.5 238.5,382.5 234.5,382.5 234.5,386.5 230.5,386.5 230.5,382.5 230.5,378.5 226.5,378.5 226.5,382.5 222.5,382.5 218.5,382.5 218.5,386.5 214.5,386.5 214.5,382.5 214.5,378.5 210.5,378.5 210.5,382.5 206.5,382.5 206.5,386.5 210.5,386.5 210.5,390.5 206.5,390.5 202.5,390.5 202.5,394.5 206.5,394.5 206.5,398.5 210.5,398.5 210.5,394.5 214.5,394.5 214.5,398.5 214.5,402.5 218.5,402.5 218.5,398.5 222.5,398.5" stroke="black" stroke-linecap="round" stroke-width="1" /><polyline clip-path="url(#border_clip)" fill="none" points="222.5,398.5 222.5,402.5 226.5,402.5 226.5,406.5 222.5,406.5 218.5,406.5 218.5,410.5 222.5,410.5 222.5,414.5 226.5,414.5 226.5,410.5 230.5,410.5 230.5,414.5 230.5,418.5 234.5,418.5 234.5,414.5 238.5,414.5 238.5,410.5 234.5,410.5 234.5,406.5 238.5,406.5 242.5,406.5 242.5,402.5 238.5,402.5 238.5,398.5 242.5,398.5 242.5,394.5 246.5,394.5 246.5,398.5 246.5,402.5 250.5,402.5 250.5,398.5 254.5,398.5 254.5,402.5 258.5,402.5 258.5,406.5 254.5,406.5 250.5,406.5 250.5,410.5 254.5,410.5 254.5,414.5 254.5,418.5 258.5,418.5" stroke="black" stroke-linecap="round" stroke-width="1" /><polyline clip-path="url(#border_clip)" fill="none" points="258.5,418.5 258.5,422.5 254.5,422.5 250.5,422.5 250.5,426.5 254.5,426.5 254.5,430.5 258.5,430.5 258.5,426.5 262.5,426.5 262.5,430.5 262.5,434.5 266.5,434.5 266.5,430.5 270.5,430.5 270.5,426.5 266.5,426.5 266.5,422.5 270.5,422.5 274.5,422.5 274.5,418.5 270.5,418.5 270.5,414.5 274.5,414.5 274.5,410.5 278.5,410.5 278.5,414.5 278.5,418.5 282.5,418.5 282.5,414.5 286.5,414.5 286.5,410.5 282.5,410.5 282.5,406.5 286.5,406.5 290.5,406.5 290.5,402.5 286.5,402.5 286.5,398.5 282.5,398.5 282.5,402.5 278.5,402.5 278.5,398.5" stroke="black" stroke-linecap="round" stroke-width="1" /><polyline clip-path="url(#border_clip)" fill="none" points="278.5,398.5 278.5,394.5 274.5,394.5 274.5,398.5 270.5,398.5 270.5,394.5 266.5,394.5 266.5,390.5 270.5,390.5 274.5,390.5 274.5,386.5 270.5,386.5 270.5,382.5 274.5,382.5 274.5,378.5 278.5,378.5 278.5,382.5 278.5,386.5 282.5,386.5 282.5,382.5 286.5,382.5 290.5,382.5 290.5,378.5 294.5,378.5 294.5,382.5 294.5,386.5 298.5,386.5 298.5,382.5 302.5,382.5 302.5,378.5 298.5,378.5 298.5,374.5 302.5,374.5 306.5,374.5 306.5,370.5 302.5,370.5 302.5,366.5 298.5,366.5 298.5,370.5 294.5,370.5 294.5,366.5 294.5,362.5 290.5,362.5" stroke="black" stroke-linecap="round" stroke-width="1" /><polyline clip-path="url(#border_clip)" fill="none" points="290.5,362.5 290.5,366.5 286.5,366.5 286.5,362.5 282.5,362.5 282.5,358.5 286.5,358.5 290.5,358.5 290.5,354.5 286.5,354.5 286.5,350.5 290.5,350.5 290.5,346.5 294.5,346.5 294.5,350.5 294.5,354.5 298.5,354.5 298.5,350.5 302.5,350.5 302.5,346.5 298.5,346.5 298.5,342.5 302.5,342.50000000000006 306.5,342.50000000000006 306.5,338.50000000000006 302.5,338.50000000000006 302.5,334.50000000000006 306.5,334.50000000000006 306.5,330.50000000000006 310.5,330.50000000000006 310.5,334.50000000000006 310.5,338.50000000000006 314.5,338.50000000000006 314.5,334.50000000000006 318.5,334.50000000000006 318.5,338.50000000000006 322.5,338.50000000000006 322.5,342.50000000000006 318.5,342.50000000000006 314.5,342.50000000000006 314.5,346.50000000000006 318.5,346.50000000000006 318.5,350.50000000000006" stroke="black" stroke-linecap="round" stroke-width="1" /><polyline clip-path="url(#border_clip)" fill="none" points="318.5,350.50000000000006 318.5,354.50000000000006 322.5,354.50000000000006 322.5,358.50000000000006 318.5,358.50000000000006 314.5,358.50000000000006 314.5,362.50000000000006 318.5,362.50000000000006 318.5,366.50000000000006 322.5,366.50000000000006 322.5,362.50000000000006 326.5,362.50000000000006 326.5,366.50000000000006 326.5,370.50000000000006 330.5,370.50000000000006 330.5,366.50000000000006 334.5,366.50000000000006 334.5,362.50000000000006 330.5,362.50000000000006 330.5,358.50000000000006 334.5,358.50000000000006 338.5,358.50000000000006 338.5,354.50000000000006 334.5,354.50000000000006 334.5,350.50000000000006 338.5,350.50000000000006 338.5,346.50000000000006 342.5,346.50000000000006 342.5,350.50000000000006 342.5,354.50000000000006 346.5,354.50000000000006 346.5,350.50000000000006 350.5,350.50000000000006" stroke="black" stroke-linecap="round" stroke-width="1" /><polyline clip-path="url(#border_clip)" fill="none" points="350.5,350.5 350.5,346.5 346.5,346.5 346.5,342.5 350.5,342.5 354.5,342.5 354.5,338.5 350.5,338.5 350.5,334.5 346.5,334.5 346.5,338.5 342.5,338.5 342.5,334.5 342.5,330.5 338.5,330.5 338.5,334.5 334.5,334.5 334.5,330.5 330.5,330.5 330.5,326.5 334.5,326.5 338.5,326.5 338.5,322.5 334.5,322.5 334.5,318.5 338.5,318.5 338.5,314.5 342.5,314.5 342.5,318.5 342.5,322.5 346.5,322.5 346.5,318.5 350.5,318.5 354.5,318.5 354.5,314.5 358.5,314.5 358.5,318.5 358.5,322.5 362.5,322.5 362.5,318.5 366.5,318.5 366.5,314.5 362.5,314.5" stroke="black" stroke-linecap="round" stroke-width="1" /></svg>