<?xml version="1.0" encoding="utf-8" ?>
<svg baseProfile="full" height="500px" version="1.1" width="500px" xmlns="http://www.w3.org/2000/svg" xmlns:ev="http://www.w3.org/2001/xml-events" xmlns:xlink="http://www.w3.org/1999/xlink"><defs><clipPath id="border_clip"><rect height="500" width="500" x="0" y="0" /></clipPath></defs><polygon clip-path="url(#border_clip)" fill="#0000ff" fill-rule="evenodd" points="239.8668831769383,348.80508474576277 248.75467973762667,350.22179653572414 235.367290026022,354.16359773690374 230.9790866162499,347.38837295580134 237.25623907930387,342.3132023226526 248.75467973762667,350.22179653572414" stroke-width="0" /><polygon clip-path="url(#border_clip)" fill="#0000ff" fill-rule="evenodd" points="218.72112699319814,345.4152542372882 227.60638631355937,346.84779282662316 214.2119975388303,350.7657450151283 209.83586767283694,343.9827156479531 216.122048991277,338.91873258798 227.60638631355937,346.84779282662316" stroke-width="0" /><polygon clip-path="url(#border_clip)" fill="#0000ff" fill-rule="evenodd" points="197.93543813881845,342.0254237288136 206.8153909042671,343.49049672474274 193.40674170201956,347.359363040741 189.0554853733698,340.56035073288444 195.36017236325844,335.5194260201428 206.8153909042671,343.49049672474274" stroke-width="0" /><polygon clip-path="url(#border_clip)" fill="#0000ff" fill-rule="evenodd" points="158.3795549282421,335.2457627118645 167.23815991872073,336.8348245805994 153.77673835289409,340.5158746246896 149.5209499377635,333.65670084312956 155.89548751120728,328.70440130405143 167.23815991872073,336.8348245805994" stroke-width="0" /><polygon clip-path="url(#border_clip)" fill="#0000ff" fill-rule="evenodd" points="140.0575445345503,331.85593220338995 148.8977182780118,333.5445198337525 135.3957499502573,337.07394631355265 131.21737079108874,330.16734457302744 137.64720012407403,325.2870479889373 148.89771827801184,333.5445198337525" stroke-width="0" /><polygon clip-path="url(#border_clip)" fill="#0000ff" fill-rule="evenodd" points="122.98689129184804,328.46610169491544 131.80046725228343,330.28842954402364 118.24657567493506,333.61288786222906 114.17331533141265,326.64377384580723 120.6763461404127,321.86145324831523 131.80046725228343,330.28842954402364" stroke-width="0" /><polygon clip-path="url(#border_clip)" fill="#0000ff" fill-rule="evenodd" points="93.35695567663419,321.68644067796635 102.07209129589498,323.9328625301329 88.37328686081881,326.59796234994025 84.6418200573734,319.44001882579977 91.36851599704093,314.97778152425917 102.072091295895,323.9328625301329" stroke-width="0" /><polygon clip-path="url(#border_clip)" fill="#0000ff" fill-rule="evenodd" points="81.1333923141645,318.2966101694918 89.75361650287897,320.8834489615896 75.96074344394685,323.0086907784623 72.51316812545005,315.709771377394 79.40986183341059,311.51505852684306 89.75361650287897,320.8834489615896" stroke-width="0" /><polygon clip-path="url(#border_clip)" fill="#0000ff" fill-rule="evenodd" points="70.82882029223794,314.90677966101725 79.28601099893487,317.9850787612606 65.39374460939695,319.31358715871795 62.37162958554097,311.828480560774 69.49814340972134,308.037332883122 79.28601099893487,317.9850787612606" stroke-width="0" /><polygon clip-path="url(#border_clip)" fill="#0000ff" fill-rule="evenodd" points="56.4206041254823,308.1271186440682 63.89513211938953,313.1402445419783 50.08870899597932,311.104886947509 48.94607613157504,303.1139927461581 56.77287685985945,301.13884962229935 63.8951321193895,313.1402445419783" stroke-width="0" /><polygon clip-path="url(#border_clip)" fill="#0000ff" fill-rule="evenodd" points="52.48021082705358,304.73728813559364 58.243939362886664,311.6495550116064 45.56654149537849,305.8148670757439 46.71648229122047,297.82502125958086 54.782897330062184,298.12989569463315 58.243939362886664,311.6495550116064" stroke-width="0" /><polygon clip-path="url(#border_clip)" fill="#0000ff" fill-rule="evenodd" points="50.783460864647424,301.34745762711907 52.26801978420835,310.22417350712516 44.27182671015234,298.7864772214906 49.2989019450865,292.470741747113 56.10744788349376,296.8070653287427 52.26801978420835,310.22417350712516" stroke-width="0" /><polygon clip-path="url(#border_clip)" fill="#0000ff" fill-rule="evenodd" points="54.172151167345305,294.5677966101699 47.345305930041064,300.43245210780117 52.99311893051282,287.67070425291456 60.99899640464952,288.7031411125387 60.81265959402114,296.7731645693202 47.345305930041036,300.43245210780117" stroke-width="0" /><polygon clip-path="url(#border_clip)" fill="#0000ff" fill-rule="evenodd" points="59.21919621726778,291.1779661016953 51.33778987427988,295.5234734433885 59.47475386000079,284.18549226969276 67.10060256025571,286.83245876000205 65.26876364892513,294.69403406034326 51.337789874279906,295.5234734433885" stroke-width="0" /><polygon clip-path="url(#border_clip)" fill="#0000ff" fill-rule="evenodd" points="66.43352920597977,287.78813559322066 58.104427432196985,291.1978369939255 67.49203564835634,280.8715205170836 74.76263097976255,284.37843419251584 72.03830418262942,291.97698954879394 58.104427432196985,291.1978369939255" stroke-width="0" /><polygon clip-path="url(#border_clip)" fill="#0000ff" fill-rule="evenodd" points="87.01346382088119,281.0084745762714 78.3399007981663,283.4104122297073 88.88159726100989,274.26532416642044 95.68702684359607,278.6065369228355 92.0841807989244,285.8300748633736 78.33990079816633,283.4104122297073" stroke-width="0" /><polygon clip-path="url(#border_clip)" fill="#0000ff" fill-rule="evenodd" points="100.14588656455925,277.6186440677967 91.39782200709243,279.7332046600695 102.23540532603081,270.9407767925764 108.89395112202607,275.504083475524 105.05481944906114,282.6048628691988 91.39782200709243,279.7332046600695" stroke-width="0" /><polygon clip-path="url(#border_clip)" fill="#0000ff" fill-rule="evenodd" points="114.98188149191623,274.228813559322 106.18590555587767,276.1342813057377 117.22996003538785,267.60264250339674 123.77785742795479,272.3233458129063 119.77058369727544,279.3306104181148 106.18590555587767,276.1342813057377" stroke-width="0" /><polygon clip-path="url(#border_clip)" fill="#0000ff" fill-rule="evenodd" points="149.07479935603783,267.44915254237264 140.22457549629684,269.0842481458377 151.52482516429083,260.89496506115927 157.92502321577882,265.8140569389075 153.70495263557763,272.6952635408139 140.22457549629684,269.0842481458377" stroke-width="0" /><polygon clip-path="url(#border_clip)" fill="#0000ff" fill-rule="evenodd" points="167.9454359105632,264.0593220338979 159.07985219241874,265.6089753295004 170.45856720075264,257.52907157022725 176.81101962870764,262.50966873829543 172.5247715948893,269.34984986108657 159.0798521924187,265.6089753295004" stroke-width="0" /><polygon clip-path="url(#border_clip)" fill="#0000ff" fill-rule="evenodd" points="187.75144866335197,260.66949152542315 178.87533382728483,262.1576398436188 190.3097957189817,254.15682230743343 196.62756349941913,259.1813432072274 192.29399347657596,265.9916420888563 178.87533382728483,262.1576398436188" stroke-width="0" /><polygon clip-path="url(#border_clip)" fill="#0000ff" fill-rule="evenodd" points="229.26390707876172,253.8898305084736 220.3770532123468,255.3124437225926 231.87023981591503,247.39621597854938 238.15076094517664,252.46721729435458 233.76705743474037,259.24535446710263 220.37705321234682,255.3124437225926" stroke-width="0" /><polygon clip-path="url(#border_clip)" fill="#0000ff" fill-rule="evenodd" points="250.49999999999935,250.4999999999988 241.6118915142964,251.91475352848886 253.11207437528716,244.0086929314675 259.3881084857023,249.08524647150875 254.99841241327388,255.8595042457381 241.6118915142964,251.91475352848886" stroke-width="0" /><polygon clip-path="url(#border_clip)" fill="#0000ff" fill-rule="evenodd" points="271.73609292123695,247.110169491524 262.8492390548221,248.53278270564303 274.34242565839025,240.6165549615998 280.62294678765187,245.68755627740498 276.2392432772156,252.465693450153 262.8492390548221,248.53278270564303" stroke-width="0" /><polygon clip-path="url(#border_clip)" fill="#0000ff" fill-rule="evenodd" points="313.24855133664664,240.33050847457443 304.3724365005795,241.81865679277016 315.80689839227637,233.81783925658473 322.1246661727138,238.8423601563787 317.7910961498706,245.65265903800756 304.3724365005795,241.81865679277016" stroke-width="0" /><polygon clip-path="url(#border_clip)" fill="#0000ff" fill-rule="evenodd" points="333.0545640894354,236.94067796609963 324.18898037129094,238.49033126170215 335.5676953796248,230.41042750242897 341.92014780757984,235.3910246704971 337.6338997737615,242.23120579328824 324.18898037129094,238.49033126170215" stroke-width="0" /><polygon clip-path="url(#border_clip)" fill="#0000ff" fill-rule="evenodd" points="351.9252006439607,233.55084745762483 343.07497678421976,235.18594306108997 354.3752264522137,226.99665997641145 360.77542450370174,231.9157518541597 356.55535392350055,238.7969584560661 343.07497678421976,235.18594306108997" stroke-width="0" /><polygon clip-path="url(#border_clip)" fill="#0000ff" fill-rule="evenodd" points="386.0181185080823,226.77118644067525 377.22214257204377,228.676654187091 388.26619705155383,220.14501538474994 394.8140944441208,224.8657186942595 390.80682071344154,231.872983299468 377.22214257204377,228.676654187091" stroke-width="0" /><polygon clip-path="url(#border_clip)" fill="#0000ff" fill-rule="evenodd" points="400.8541134354393,223.38135593220048 392.1060488779725,225.49591652447324 402.9436321969108,216.70348865698017 409.60217799290604,221.2667953399277 405.76304631994117,228.36757473360257 392.1060488779725,225.49591652447327" stroke-width="0" /><polygon clip-path="url(#border_clip)" fill="#0000ff" fill-rule="evenodd" points="413.9865361791173,219.99152542372573 405.31297315640245,222.39346307716164 415.854669619246,213.2483750138748 422.66009920183217,217.58958777028982 419.0572531571605,224.81312571082793 405.31297315640245,222.39346307716164" stroke-width="0" /><polygon clip-path="url(#border_clip)" fill="#0000ff" fill-rule="evenodd" points="434.56647079401876,213.21186440677633 426.237369020236,216.6215658074812 435.62497723639524,206.2952493306392 442.8955725678015,209.80216300607142 440.1712457706684,217.40071836234952 426.237369020236,216.62156580748118" stroke-width="0" /><polygon clip-path="url(#border_clip)" fill="#0000ff" fill-rule="evenodd" points="441.7808037827307,209.8220338983016 433.89939743974276,214.16754123999493 442.0363614254636,202.82956006629905 449.6622101257185,205.47652655660832 447.830371214388,213.33810185694955 433.89939743974276,214.16754123999493" stroke-width="0" /><polygon clip-path="url(#border_clip)" fill="#0000ff" fill-rule="evenodd" points="446.8278488326531,206.43220338982695 440.00100359534895,212.29685888745828 445.64881659582056,199.53511103257165 453.65469406995726,200.56754789219565 453.46835725932897,208.63757134897722 440.0010035953489,212.29685888745828" stroke-width="0" /><polygon clip-path="url(#border_clip)" fill="#0000ff" fill-rule="evenodd" points="450.21653913535084,199.65254237287778 451.70109805491177,208.52925825288384 443.70490498085576,197.09156196724928 448.73198021579,190.77582649287172 455.5405261541972,195.11215007450141 451.70109805491177,208.52925825288384" stroke-width="0" /><polygon clip-path="url(#border_clip)" fill="#0000ff" fill-rule="evenodd" points="448.5197891729447,196.26271186440323 454.2835177087778,203.17497874041595 441.6061198412696,197.34029080455358 442.75606063711155,189.35044498839054 450.8224756759532,189.65531942344273 454.2835177087778,203.17497874041595" stroke-width="0" /><polygon clip-path="url(#border_clip)" fill="#0000ff" fill-rule="evenodd" points="444.57939587451597,192.87288135592874 452.0539238684232,197.88600725383878 438.24750074501304,195.8506496593696 437.1048678806087,187.85975545801872 444.9316686088931,185.8846123341599 452.0539238684232,197.88600725383878" stroke-width="0" /><polygon clip-path="url(#border_clip)" fill="#0000ff" fill-rule="evenodd" points="430.1711797077603,186.09322033897985 438.6283704144573,189.17151943922306 424.7361040249194,190.50002783668057 421.71398900106334,183.0149212387367 428.8405028252437,179.2237735610846 438.6283704144573,189.17151943922306" stroke-width="0" /><polygon clip-path="url(#border_clip)" fill="#0000ff" fill-rule="evenodd" points="419.8666076858337,182.7033898305055 428.4868318745482,185.29022862260314 414.69395881561616,187.41547043947608 411.2463834971192,180.1165510384078 418.1430772050797,175.92183818785674 428.4868318745482,185.29022862260314" stroke-width="0" /><polygon clip-path="url(#border_clip)" fill="#0000ff" fill-rule="evenodd" points="407.64304432336394,179.31355932203113 416.35817994262476,181.5599811741976 402.6593755075486,184.22508099400508 398.92790870410306,177.06713746986463 405.65460464377054,172.60490016832398 416.3581799426247,181.5599811741976" stroke-width="0" /><polygon clip-path="url(#border_clip)" fill="#0000ff" fill-rule="evenodd" points="378.01310870815,172.5338983050825 386.8266846685854,174.35622615419058 373.27279309123713,177.6806844723962 369.1995327477146,170.71157045597442 375.70256355671455,165.92924985848234 386.8266846685854,174.3562261541906" stroke-width="0" /><polygon clip-path="url(#border_clip)" fill="#0000ff" fill-rule="evenodd" points="360.9424554654477,169.14406779660823 369.78262920890927,170.8326554269706 356.28066088115486,174.36208190677095 352.1022817219862,167.45548016624582 358.5321110549714,162.57518358215555 369.78262920890927,170.8326554269706" stroke-width="0" /><polygon clip-path="url(#border_clip)" fill="#0000ff" fill-rule="evenodd" points="342.62044507175574,165.75423728813396 351.47905006223436,167.3432991568687 338.01762849640784,171.02434920095914 333.7618400812771,164.16517541939922 340.13637765472083,159.21287588032098 351.47905006223436,167.34329915686874" stroke-width="0" /><polygon clip-path="url(#border_clip)" fill="#0000ff" fill-rule="evenodd" points="303.0645618611794,158.97457627118558 311.94451462662806,160.4396492671146 298.53586542438063,164.3085155831131 294.18460909573076,157.50950327525658 300.4892960856193,152.4685785625149 311.94451462662806,160.4396492671146" stroke-width="0" /><polygon clip-path="url(#border_clip)" fill="#0000ff" fill-rule="evenodd" points="282.2788730067997,155.58474576271144 291.1641323271609,157.0172843520463 277.769743552432,160.93523654055164 273.39361368643847,154.15220717337655 279.67979500487843,149.08822411340333 291.1641323271609,157.0172843520463" stroke-width="0" /><polygon clip-path="url(#border_clip)" fill="#0000ff" fill-rule="evenodd" points="261.13311682305954,152.1949152542373 270.02091338374794,153.6116270441985 256.6335236721434,157.55342824537837 252.24532026237117,150.77820346427603 258.522472725425,145.7030328311272 270.02091338374794,153.6116270441985" stroke-width="0" /><polyline clip-path="url(#border_clip)" fill="none" points="250.5,250.5 250.5,250.5" stroke="black" stroke-linecap="round" stroke-width="10" /><polyline clip-path="url(#border_clip)" fill="none" points="248.75467973762667,350.22179653572414 235.367290026022,354.16359773690374 230.9790866162499,347.38837295580134 237.25623907930387,342.3132023226526 248.75467973762667,350.22179653572414" stroke="#000000" stroke-linecap="round" stroke-width="1" /><polyline clip-path="url(#border_clip)" fill="none" points="227.60638631355937,346.84779282662316 214.2119975388303,350.7657450151283 209.83586767283694,343.9827156479531 216.122048991277,338.91873258798 227.60638631355937,346.84779282662316" stroke="#000000" stroke-linecap="round" stroke-width="1" /><polyline clip-path="url(#border_clip)" fill="none" points="206.8153909042671,343.49049672474274 193.40674170201956,347.359363040741 189.0554853733698,340.56035073288444 195.36017236325844,335.5194260201428 206.8153909042671,343.49049672474274" stroke="#000000" stroke-linecap="round" stroke-width="1" /><polyline clip-path="url(#border_clip)" fill="none" points="167.23815991872073,336.8348245805994 153.77673835289409,340.5158746246896 149.5209499377635,333.65670084312956 155.89548751120728,328.70440130405143 167.23815991872073,336.8348245805994" stroke="#000000" stroke-linecap="round" stroke-width="1" /><polyline clip-path="url(#border_clip)" fill="none" points="148.8977182780118,333.5445198337525 135.3957499502573,337.07394631355265 131.21737079108874,330.16734457302744 137.64720012407403,325.2870479889373 148.89771827801184,333.5445198337525" stroke="#000000" stroke-linecap="round" stroke-width="1" /><polyline clip-path="url(#border_clip)" fill="none" points="131.80046725228343,330.28842954402364 118.24657567493506,333.61288786222906 114.17331533141265,326.64377384580723 120.6763461404127,321.86145324831523 131.80046725228343,330.28842954402364" stroke="#000000" stroke-linecap="round" stroke-width="1" /><polyline clip-path="url(#border_clip)" fill="none" points="102.07209129589498,323.9328625301329 88.37328686081881,326.59796234994025 84.6418200573734,319.44001882579977 91.36851599704093,314.97778152425917 102.072091295895,323.9328625301329" stroke="#000000" stroke-linecap="round" stroke-width="1" /><polyline clip-path="url(#border_clip)" fill="none" points="89.75361650287897,320.8834489615896 75.96074344394685,323.0086907784623 72.51316812545005,315.709771377394 79.40986183341059,311.51505852684306 89.75361650287897,320.8834489615896" stroke="#000000" stroke-linecap="round" stroke-width="1" /><polyline clip-path="url(#border_clip)" fill="none" points="79.28601099893487,317.9850787612606 65.39374460939695,319.31358715871795 62.37162958554097,311.828480560774 69.49814340972134,308.037332883122 79.28601099893487,317.9850787612606" stroke="#000000" stroke-linecap="round" stroke-width="1" /><polyline clip-path="url(#border_clip)" fill="none" points="63.89513211938953,313.1402445419783 50.08870899597932,311.104886947509 48.94607613157504,303.1139927461581 56.77287685985945,301.13884962229935 63.8951321193895,313.1402445419783" stroke="#000000" stroke-linecap="round" stroke-width="1" /><polyline clip-path="url(#border_clip)" fill="none" points="58.243939362886664,311.6495550116064 45.56654149537849,305.8148670757439 46.71648229122047,297.82502125958086 54.782897330062184,298.12989569463315 58.243939362886664,311.6495550116064" stroke="#000000" stroke-linecap="round" stroke-width="1" /><polyline clip-path="url(#border_clip)" fill="none" points="52.26801978420835,310.22417350712516 44.27182671015234,298.7864772214906 49.2989019450865,292.470741747113 56.10744788349376,296.8070653287427 52.26801978420835,310.22417350712516" stroke="#000000" stroke-linecap="round" stroke-width="1" /><polyline clip-path="url(#border_clip)" fill="none" points="47.345305930041064,300.43245210780117 52.99311893051282,287.67070425291456 60.99899640464952,288.7031411125387 60.81265959402114,296.7731645693202 47.345305930041036,300.43245210780117" stroke="#000000" stroke-linecap="round" stroke-width="1" /><polyline clip-path="url(#border_clip)" fill="none" points="51.33778987427988,295.5234734433885 59.47475386000079,284.18549226969276 67.10060256025571,286.83245876000205 65.26876364892513,294.69403406034326 51.337789874279906,295.5234734433885" stroke="#000000" stroke-linecap="round" stroke-width="1" /><polyline clip-path="url(#border_clip)" fill="none" points="58.104427432196985,291.1978369939255 67.49203564835634,280.8715205170836 74.76263097976255,284.37843419251584 72.03830418262942,291.97698954879394 58.104427432196985,291.1978369939255" stroke="#000000" stroke-linecap="round" stroke-width="1" /><polyline clip-path="url(#border_clip)" fill="none" points="78.3399007981663,283.4104122297073 88.88159726100989,274.26532416642044 95.68702684359607,278.6065369228355 92.0841807989244,285.8300748633736 78.33990079816633,283.4104122297073" stroke="#000000" stroke-linecap="round" stroke-width="1" /><polyline clip-path="url(#border_clip)" fill="none" points="91.39782200709243,279.7332046600695 102.23540532603081,270.9407767925764 108.89395112202607,275.504083475524 105.05481944906114,282.6048628691988 91.39782200709243,279.7332046600695" stroke="#000000" stroke-linecap="round" stroke-width="1" /><polyline clip-path="url(#border_clip)" fill="none" points="106.18590555587767,276.1342813057377 117.22996003538785,267.60264250339674 123.77785742795479,272.3233458129063 119.77058369727544,279.3306104181148 106.18590555587767,276.1342813057377" stroke="#000000" stroke-linecap="round" stroke-width="1" /><polyline clip-path="url(#border_clip)" fill="none" points="140.22457549629684,269.0842481458377 151.52482516429083,260.89496506115927 157.92502321577882,265.8140569389075 153.70495263557763,272.6952635408139 140.22457549629684,269.0842481458377" stroke="#000000" stroke-linecap="round" stroke-width="1" /><polyline clip-path="url(#border_clip)" fill="none" points="159.07985219241874,265.6089753295004 170.45856720075264,257.52907157022725 176.81101962870764,262.50966873829543 172.5247715948893,269.34984986108657 159.0798521924187,265.6089753295004" stroke="#000000" stroke-linecap="round" stroke-width="1" /><polyline clip-path="url(#border_clip)" fill="none" points="178.87533382728483,262.1576398436188 190.3097957189817,254.15682230743343 196.62756349941913,259.1813432072274 192.29399347657596,265.9916420888563 178.87533382728483,262.1576398436188" stroke="#000000" stroke-linecap="round" stroke-width="1" /><polyline clip-path="url(#border_clip)" fill="none" points="220.3770532123468,255.3124437225926 231.87023981591503,247.39621597854938 238.15076094517664,252.46721729435458 233.76705743474037,259.24535446710263 220.37705321234682,255.3124437225926" stroke="#000000" stroke-linecap="round" stroke-width="1" /><polyline clip-path="url(#border_clip)" fill="none" points="241.6118915142964,251.91475352848886 253.11207437528716,244.0086929314675 259.3881084857023,249.08524647150875 254.99841241327388,255.8595042457381 241.6118915142964,251.91475352848886" stroke="#000000" stroke-linecap="round" stroke-width="1" /><polyline clip-path="url(#border_clip)" fill="none" points="262.8492390548221,248.53278270564303 274.34242565839025,240.6165549615998 280.62294678765187,245.68755627740498 276.2392432772156,252.465693450153 262.8492390548221,248.53278270564303" stroke="#000000" stroke-linecap="round" stroke-width="1" /><polyline clip-path="url(#border_clip)" fill="none" points="304.3724365005795,241.81865679277016 315.80689839227637,233.81783925658473 322.1246661727138,238.8423601563787 317.7910961498706,245.65265903800756 304.3724365005795,241.81865679277016" stroke="#000000" stroke-linecap="round" stroke-width="1" /><polyline clip-path="url(#border_clip)" fill="none" points="324.18898037129094,238.49033126170215 335.5676953796248,230.41042750242897 341.92014780757984,235.3910246704971 337.6338997737615,242.23120579328824 324.18898037129094,238.49033126170215" stroke="#000000" stroke-linecap="round" stroke-width="1" /><polyline clip-path="url(#border_clip)" fill="none" points="343.07497678421976,235.18594306108997 354.3752264522137,226.99665997641145 360.77542450370174,231.9157518541597 356.55535392350055,238.7969584560661 343.07497678421976,235.18594306108997" stroke="#000000" stroke-linecap="round" stroke-width="1" /><polyline clip-path="url(#border_clip)" fill="none" points="377.22214257204377,228.676654187091 388.26619705155383,220.14501538474994 394.8140944441208,224.8657186942595 390.80682071344154,231.872983299468 377.22214257204377,228.676654187091" stroke="#000000" stroke-linecap="round" stroke-width="1" /><polyline clip-path="url(#border_clip)" fill="none" points="392.1060488779725,225.49591652447324 402.9436321969108,216.70348865698017 409.60217799290604,221.2667953399277 405.76304631994117,228.36757473360257 392.1060488779725,225.49591652447327" stroke="#000000" stroke-linecap="round" stroke-width="1" /><polyline clip-path="url(#border_clip)" fill="none" points="405.31297315640245,222.39346307716164 415.854669619246,213.2483750138748 422.66009920183217,217.58958777028982 419.0572531571605,224.81312571082793 405.31297315640245,222.39346307716164" stroke="#000000" stroke-linecap="round" stroke-width="1" /><polyline clip-path="url(#border_clip)" fill="none" points="426.237369020236,216.6215658074812 435.62497723639524,206.2952493306392 442.8955725678015,209.80216300607142 440.1712457706684,217.40071836234952 426.237369020236,216.62156580748118" stroke="#000000" stroke-linecap="round" stroke-width="1" /><polyline clip-path="url(#border_clip)" fill="none" points="433.89939743974276,214.16754123999493 442.0363614254636,202.82956006629905 449.6622101257185,205.47652655660832 447.830371214388,213.33810185694955 433.89939743974276,214.16754123999493" stroke="#000000" stroke-linecap="round" stroke-width="1" /><polyline clip-path="url(#border_clip)" fill="none" points="440.00100359534895,212.29685888745828 445.64881659582056,199.53511103257165 453.65469406995726,200.56754789219565 453.46835725932897,208.63757134897722 440.0010035953489,212.29685888745828" stroke="#000000" stroke-linecap="round" stroke-width="1" /><polyline clip-path="url(#border_clip)" fill="none" points="451.70109805491177,208.52925825288384 443.70490498085576,197.09156196724928 448.73198021579,190.77582649287172 455.5405261541972,195.11215007450141 451.70109805491177,208.52925825288384" stroke="#000000" stroke-linecap="round" stroke-width="1" /><polyline clip-path="url(#border_clip)" fill="none" points="454.2835177087778,203.17497874041595 441.6061198412696,197.34029080455358 442.75606063711155,189.35044498839054 450.8224756759532,189.65531942344273 454.2835177087778,203.17497874041595" stroke="#000000" stroke-linecap="round" stroke-width="1" /><polyline clip-path="url(#border_clip)" fill="none" points="452.0539238684232,197.88600725383878 438.24750074501304,195.8506496593696 437.1048678806087,187.85975545801872 444.9316686088931,185.8846123341599 452.0539238684232,197.88600725383878" stroke="#000000" stroke-linecap="round" stroke-width="1" /><polyline clip-path="url(#border_clip)" fill="none" points="438.6283704144573,189.17151943922306 424.7361040249194,190.50002783668057 421.71398900106334,183.0149212387367 428.8405028252437,179.2237735610846 438.6283704144573,189.17151943922306" stroke="#000000" stroke-linecap="round" stroke-width="1" /><polyline clip-path="url(#border_clip)" fill="none" points="428.4868318745482,185.29022862260314 414.69395881561616,187.41547043947608 411.2463834971192,180.1165510384078 418.1430772050797,175.92183818785674 428.4868318745482,185.29022862260314" stroke="#000000" stroke-linecap="round" stroke-width="1" /><polyline clip-path="url(#border_clip)" fill="none" points="416.35817994262476,181.5599811741976 402.6593755075486,184.22508099400508 398.92790870410306,177.06713746986463 405.65460464377054,172.60490016832398 416.3581799426247,181.5599811741976" stroke="#000000" stroke-linecap="round" stroke-width="1" /><polyline clip-path="url(#border_clip)" fill="none" points="386.8266846685854,174.35622615419058 373.27279309123713,177.6806844723962 369.1995327477146,170.71157045597442 375.70256355671455,165.92924985848234 386.8266846685854,174.3562261541906" stroke="#000000" stroke-linecap="round" stroke-width="1" /><polyline clip-path="url(#border_clip)" fill="none" points="369.78262920890927,170.8326554269706 356.28066088115486,174.36208190677095 352.1022817219862,167.45548016624582 358.5321110549714,162.57518358215555 369.78262920890927,170.8326554269706" stroke="#000000" stroke-linecap="round" stroke-width="1" /><polyline clip-path="url(#border_clip)" fill="none" points="351.47905006223436,167.3432991568687 338.01762849640784,171.02434920095914 333.7618400812771,164.16517541939922 340.13637765472083,159.21287588032098 351.47905006223436,167.34329915686874" stroke="#000000" stroke-linecap="round" stroke-width="1" /><polyline clip-path="url(#border_clip)" fill="none" points="311.94451462662806,160.4396492671146 298.53586542438063,164.3085155831131 294.18460909573076,157.50950327525658 300.4892960856193,152.4685785625149 311.94451462662806,160.4396492671146" stroke="#000000" stroke-linecap="round" stroke-width="1" /><polyline clip-path="url(#border_clip)" fill="none" points="291.1641323271609,157.0172843520463 277.769743552432,160.93523654055164 273.39361368643847,154.15220717337655 279.67979500487843,149.08822411340333 291.1641323271609,157.0172843520463" stroke="#000000" stroke-linecap="round" stroke-width="1" /><polyline clip-path="url(#border_clip)" fill="none" points="270.02091338374794,153.6116270441985 256.6335236721434,157.55342824537837 252.24532026237117,150.77820346427603 258.522472725425,145.7030328311272 270.02091338374794,153.6116270441985" stroke="#000000" stroke-linecap="round" stroke-width="1" /></svg>