<?xml version="1.0" encoding="utf-8" ?>
<svg baseProfile="full" height="500px" version="1.1" width="500px" xmlns="http://www.w3.org/2000/svg" xmlns:ev="http://www.w3.org/2001/xml-events" xmlns:xlink="http://www.w3.org/1999/xlink"><defs><clipPath id="border_clip"><rect height="500" width="500" x="0" y="0" /></clipPath></defs><polygon clip-path="url(#border_clip)" fill="#cc0000" fill-rule="evenodd" points="399.527192440263,238.45938897811374 400.7351642926196,253.4106699935958 391.64889480946596,234.07961655930217 398.31922058790633,223.5081079626317 406.600175824948,232.87164470694555 400.7351642926196,253.4106699935958" stroke-width="0" /><polygon clip-path="url(#border_clip)" fill="#3b4cca" fill-rule="evenodd" points="395.66115740611986,214.69001243516635 399.25363895324404,229.25346244996615 387.1819390286761,211.63177181225515 392.0686758589957,200.12656242036653 401.74538904347594,208.03929026513097 399.25363895324404,229.25346244996612" stroke-width="0" /><polygon clip-path="url(#border_clip)" fill="#ffde00" fill-rule="evenodd" points="388.0292156144832,191.8480957600273 393.91275297814923,205.64606619376667 379.1690520608631,190.19054280367658 382.1456782508171,178.0501253262879 392.9670224946025,184.30700544001053 393.91275297814923,205.64606619376667" stroke-width="0" /><polygon clip-path="url(#border_clip)" fill="#b3a125" fill-rule="evenodd" points="376.8290303488818,170.5252325962761 384.850664424706,183.20014430222406 367.8176975401843,170.31108075552712 368.80739627305763,157.85032089032816 380.49260924613225,162.28944667970293 384.850664424706,183.20014430222406" stroke-width="0" /><polygon clip-path="url(#border_clip)" fill="#ff0000" fill-rule="evenodd" points="362.3506805245083,151.2736738994694 372.3020412773319,162.49732834742716 353.4217343764363,152.5081376230492 352.39931977168465,140.05001945151162 364.64538882439405,142.55677687022558 372.30204127733185,162.49732834742716" stroke-width="0" /><polygon clip-path="url(#border_clip)" fill="#cc0000" fill-rule="evenodd" points="344.9691477966866,134.59202492747607 356.591991644407,144.07408698651722 336.35383703430506,137.2427607625975 333.3463039489662,125.1099628684349 345.83589909334626,125.61991691487708 356.591991644407,144.07408698651724" stroke-width="0" /><polygon clip-path="url(#border_clip)" fill="#3b4cca" fill-rule="evenodd" points="325.1346047329685,120.91233162620375 338.1276193280506,128.40776835343874 317.0558832367256,124.91036101405807 312.1415901378864,113.41689489896879 324.55131996396057,111.91734641897594 338.1276193280506,128.40776835343877" stroke-width="0" /><polygon clip-path="url(#border_clip)" fill="#ffde00" fill-rule="evenodd" points="303.36075558009827,110.58889086654324 317.38742914107263,115.9041922515884 296.0275489041407,115.8304612273889 289.33408201912385,105.27358948149808 301.34285028918583,101.80378766641451 317.38742914107263,115.9041922515884" stroke-width="0" /><polygon clip-path="url(#border_clip)" fill="#b3a125" fill-rule="evenodd" points="280.21153159385864,103.88907434151588 294.90886809402093,106.88712367416517 273.8133967204581,110.23839321378716 265.5141950936964,100.89102500886659 276.8114460531074,95.5410567136249 294.90886809402093,106.88712367416517" stroke-width="0" /><polygon clip-path="url(#border_clip)" fill="#ff0000" fill-rule="evenodd" points="256.2864855157655,100.9864037798682 271.27434018810817,101.58990383847339 250.98878592739595,108.27916451030447 241.2986308434228,100.38290372126298 251.59228598600117,93.29130983796179 271.27434018810817,101.58990383847339" stroke-width="0" /><polygon clip-path="url(#border_clip)" fill="#cc0000" fill-rule="evenodd" points="232.20526347199308,101.95605682444418 247.09607197352508,100.14945167369774 228.14496519896343,110.00366255124496 217.3144549704611,103.76266197519061 226.33836004821703,95.11285404971298 247.09607197352508,100.14945167369777" stroke-width="0" /><polygon clip-path="url(#border_clip)" fill="#3b4cca" fill-rule="evenodd" points="208.5915564641913,106.77291997072464 223.00023231297243,102.60278085017327 205.8737359960301,115.36730371261379 194.18288061541023,110.94305909127604 201.7035968754787,100.9586278638327 223.00023231297243,102.6027808501733" stroke-width="0" /><polygon clip-path="url(#border_clip)" fill="#ffde00" fill-rule="evenodd" points="186.05694710015283,115.3122389934027 199.61072305600476,108.88610817162734 184.75208899959333,124.23116972176966 172.5031711443009,121.73836981517803 178.32595817781797,110.67739376591771 199.61072305600476,108.88610817162731" stroke-width="0" /><polygon clip-path="url(#border_clip)" fill="#b3a125" fill-rule="evenodd" points="165.18506992552068,127.35285001528884 177.5330585973793,118.83656116628592 165.32721977246774,136.36560616538063 152.83708125366203,135.86913886429176 156.8109309234648,124.01761749352198 177.53305859737932,118.83656116628592" stroke-width="0" /><polygon clip-path="url(#border_clip)" fill="#ff0000" fill-rule="evenodd" points="146.51649559562532,142.58290753555812 157.33874314408683,132.19642795873227 148.10232097751742,151.45618978386688 135.69424804716385,152.96938711238394 137.7158414006916,140.63394223540536 157.33874314408683,132.19642795873227" stroke-width="0" /><polygon clip-path="url(#border_clip)" fill="#cc0000" fill-rule="evenodd" points="130.5347303794602,160.60796106441654 139.55053671667824,148.61983209907004 133.5235272851683,169.11190562305723 121.51892404224219,172.5960900297631 121.53539831982178,160.09609928583922 139.5505367166782,148.61983209907004" stroke-width="0" /><polygon clip-path="url(#border_clip)" fill="#3b4cca" fill-rule="evenodd" points="117.65369360128909,180.96117118359163 124.62897603839598,167.68165933553828 121.96835630965111,188.8753145808946 110.6784111641822,194.24068303164498 108.68884446159777,181.9000321437877 124.62897603839598,167.68165933553828" stroke-width="0" /><polygon clip-path="url(#border_clip)" fill="#ffde00" fill-rule="evenodd" points="108.20699734756946,203.11540044204594 112.96048561826166,188.88851219266434 113.73594601582795,210.23443876360082 103.45350907687722,217.34228869142754 99.50905776644632,205.48095049290862 112.96048561826163,188.88851219266434" stroke-width="0" /><polygon clip-path="url(#border_clip)" fill="#b3a125" fill-rule="evenodd" points="102.43930608915136,226.49686593906662 104.84737797995928,211.69142134024753 109.03933807936787,232.63604811001767 100.03123419834344,241.30231053788572 94.23389348054874,230.22797621920975 104.84737797995928,211.69142134024753" stroke-width="0" /><polygon clip-path="url(#border_clip)" fill="#ff0000" fill-rule="evenodd" points="100.49999999999909,250.4999999999994 100.4999999999992,235.49999999999937 107.99999999999909,255.49999799999947 100.499999999999,265.49999999999943 92.99999999999906,255.49999799999935 100.4999999999992,235.49999999999937" stroke-width="0" /><polygon clip-path="url(#border_clip)" fill="#cc0000" fill-rule="evenodd" points="102.4393060891511,274.5031340609322 100.03123419834327,259.6976894621131 110.64471869775369,278.23424434107534 104.84737797995894,289.30857865975133 95.83927409893457,280.6423162318832 100.03123419834327,259.6976894621131" stroke-width="0" /><polygon clip-path="url(#border_clip)" fill="#3b4cca" fill-rule="evenodd" points="108.206997347569,297.8845995579529 103.45350907687691,283.6577113085713 116.90493692869208,300.2501496088157 112.96048561826109,312.1114878073346 102.67804867931042,305.0036378795078 103.45350907687691,283.65771130857127" stroke-width="0" /><polygon clip-path="url(#border_clip)" fill="#ffde00" fill-rule="evenodd" points="117.65369360128847,320.0388288164074 110.67841116418168,306.75931696835397 126.61854274097976,320.97768977660354 124.62897603839524,333.3183406644608 113.33903089292636,327.9529722137103 110.67841116418168,306.75931696835397" stroke-width="0" /><polygon clip-path="url(#border_clip)" fill="#b3a125" fill-rule="evenodd" points="130.53473037945935,340.39203893558255 121.51892404224145,328.4039099702359 139.53406243909777,339.8801771570053 139.55053671667724,352.38016790092917 127.54593347375115,348.8959834942232 121.51892404224145,328.4039099702359" stroke-width="0" /><polygon clip-path="url(#border_clip)" fill="#ff0000" fill-rule="evenodd" points="146.5164955956243,358.4170924644411 135.69424804716286,348.0306128876152 155.31714979055803,356.4681271642884 157.3387431440857,368.803572041267 144.93067021373213,367.29037471274984 135.69424804716286,348.0306128876152" stroke-width="0" /><polygon clip-path="url(#border_clip)" fill="#cc0000" fill-rule="evenodd" points="165.18506992551954,373.6471499847105 152.83708125366098,365.1308611357075 173.5592089275754,370.3119174629437 177.53305859737813,382.16343883371354 165.04292007857242,382.6599061348023 152.83708125366098,365.1308611357075" stroke-width="0" /><polygon clip-path="url(#border_clip)" fill="#3b4cca" fill-rule="evenodd" points="186.0569471001516,385.68776100659693 172.50317114429976,379.2616301848214 193.78793602248652,381.052915779112 199.61072305600345,392.1138918283724 187.36180520071102,394.6066917349639 172.50317114429976,379.26163018482134" stroke-width="0" /><polygon clip-path="url(#border_clip)" fill="#ffde00" fill-rule="evenodd" points="208.59155646419003,394.22708002927516 194.18288061540898,390.0569409087236 215.4795160529027,388.41278792238325 223.00023231297112,398.3972191498267 211.3093769323512,402.8214637711643 194.18288061540898,390.0569409087236" stroke-width="0" /><polygon clip-path="url(#border_clip)" fill="#b3a125" fill-rule="evenodd" points="232.20526347199183,399.0439431755558 217.31445497045985,397.2373380248093 238.07216689576796,392.20074040082466 247.0960719735238,400.8505483263023 236.26556174502142,407.09154890235664 217.31445497045985,397.2373380248092" stroke-width="0" /><polygon clip-path="url(#border_clip)" fill="#ff0000" fill-rule="evenodd" points="256.28648551576424,400.01359622013194 241.29863084342153,400.61709627873705 260.9806850455286,392.3185022782256 271.2743401881069,399.4100961615269 261.5841851041337,407.3063569505683 241.2986308434215,400.617096278737" stroke-width="0" /><polygon clip-path="url(#border_clip)" fill="#cc0000" fill-rule="evenodd" points="280.2115315938574,397.11092565848446 265.51419509369504,400.10897499113366 283.6116171346087,388.7629080305935 294.9088680940197,394.1128763258354 286.60966646725785,403.46024453075586 265.51419509369504,400.10897499113366" stroke-width="0" /><polygon clip-path="url(#border_clip)" fill="#3b4cca" fill-rule="evenodd" points="303.3607555800971,390.41110913345733 289.33408201912266,395.72641051850235 305.3786608710096,381.6260059333286 317.3874291410715,385.09580774841226 310.6939622560546,395.652679494303 289.33408201912266,395.72641051850235" stroke-width="0" /><polygon clip-path="url(#border_clip)" fill="#ffde00" fill-rule="evenodd" points="325.13460473296743,380.087668373797 312.1415901378852,387.58310510103183 325.7178895019755,371.09268316656915 338.1276193280497,372.5922316465621 333.21332622921034,384.0856977616513 312.1415901378852,387.58310510103183" stroke-width="0" /><polygon clip-path="url(#border_clip)" fill="#b3a125" fill-rule="evenodd" points="344.9691477966858,366.4079750725247 333.34630394896527,375.89003713156586 344.10239650002615,357.4358670599257 356.5919916444062,356.92591301348364 353.5844585590673,369.05871090764623 333.3463039489652,375.89003713156586" stroke-width="0" /><polygon clip-path="url(#border_clip)" fill="#ff0000" fill-rule="evenodd" points="362.3506805245075,349.7263261005315 352.39931977168374,360.9499805484892 360.05597222462177,341.0094290712876 372.3020412773312,338.5026716525738 371.27962667257947,350.9607898241114 352.39931977168374,360.9499805484892" stroke-width="0" /><polygon clip-path="url(#border_clip)" fill="#cc0000" fill-rule="evenodd" points="376.8290303488812,330.4747674037249 368.80739627305684,343.1496791096728 373.1654514516308,322.23898148715165 384.85066442470554,317.799855697777 385.84036315757874,330.260615562976 368.80739627305684,343.1496791096728" stroke-width="0" /><polygon clip-path="url(#border_clip)" fill="#3b4cca" fill-rule="evenodd" points="388.0292156144828,309.15190423997376 382.1456782508166,322.9498746737131 383.09140873436354,301.61081391995697 393.91275297814894,295.3539338062344 396.8893791681029,307.49435128362313 382.14567825081656,322.9498746737131" stroke-width="0" /><polygon clip-path="url(#border_clip)" fill="#ffde00" fill-rule="evenodd" points="395.6611574061197,286.3099875648347 392.0686758589954,300.8734375796345 389.57692576876366,279.65926539479926 399.253638953244,271.7465375500349 404.1403757835635,283.25174694192356 392.0686758589954,300.8734375796345" stroke-width="0" /><polygon clip-path="url(#border_clip)" fill="#b3a125" fill-rule="evenodd" points="399.527192440263,262.54061102188723 398.3192205879062,277.4918920373693 392.45420905557796,256.95286675071895 400.73516429261974,247.58933000640513 407.40549007106006,258.1608386030757 398.3192205879062,277.4918920373693" stroke-width="0" /><polyline clip-path="url(#border_clip)" fill="none" points="250.5,250.5 250.5,250.5" stroke="black" stroke-linecap="round" stroke-width="10" /><polyline clip-path="url(#border_clip)" fill="none" points="400.7351642926196,253.4106699935958 391.64889480946596,234.07961655930217 398.31922058790633,223.5081079626317 406.600175824948,232.87164470694555 400.7351642926196,253.4106699935958" stroke="#000000" stroke-linecap="round" stroke-width="1" /><polyline clip-path="url(#border_clip)" fill="none" points="399.25363895324404,229.25346244996615 387.1819390286761,211.63177181225515 392.0686758589957,200.12656242036653 401.74538904347594,208.03929026513097 399.25363895324404,229.25346244996612" stroke="#000000" stroke-linecap="round" stroke-width="1" /><polyline clip-path="url(#border_clip)" fill="none" points="393.91275297814923,205.64606619376667 379.1690520608631,190.19054280367658 382.1456782508171,178.0501253262879 392.9670224946025,184.30700544001053 393.91275297814923,205.64606619376667" stroke="#000000" stroke-linecap="round" stroke-width="1" /><polyline clip-path="url(#border_clip)" fill="none" points="384.850664424706,183.20014430222406 367.8176975401843,170.31108075552712 368.80739627305763,157.85032089032816 380.49260924613225,162.28944667970293 384.850664424706,183.20014430222406" stroke="#000000" stroke-linecap="round" stroke-width="1" /><polyline clip-path="url(#border_clip)" fill="none" points="372.3020412773319,162.49732834742716 353.4217343764363,152.5081376230492 352.39931977168465,140.05001945151162 364.64538882439405,142.55677687022558 372.30204127733185,162.49732834742716" stroke="#000000" stroke-linecap="round" stroke-width="1" /><polyline clip-path="url(#border_clip)" fill="none" points="356.591991644407,144.07408698651722 336.35383703430506,137.2427607625975 333.3463039489662,125.1099628684349 345.83589909334626,125.61991691487708 356.591991644407,144.07408698651724" stroke="#000000" stroke-linecap="round" stroke-width="1" /><polyline clip-path="url(#border_clip)" fill="none" points="338.1276193280506,128.40776835343874 317.0558832367256,124.91036101405807 312.1415901378864,113.41689489896879 324.55131996396057,111.91734641897594 338.1276193280506,128.40776835343877" stroke="#000000" stroke-linecap="round" stroke-width="1" /><polyline clip-path="url(#border_clip)" fill="none" points="317.38742914107263,115.9041922515884 296.0275489041407,115.8304612273889 289.33408201912385,105.27358948149808 301.34285028918583,101.80378766641451 317.38742914107263,115.9041922515884" stroke="#000000" stroke-linecap="round" stroke-width="1" /><polyline clip-path="url(#border_clip)" fill="none" points="294.90886809402093,106.88712367416517 273.8133967204581,110.23839321378716 265.5141950936964,100.89102500886659 276.8114460531074,95.5410567136249 294.90886809402093,106.88712367416517" stroke="#000000" stroke-linecap="round" stroke-width="1" /><polyline clip-path="url(#border_clip)" fill="none" points="271.27434018810817,101.58990383847339 250.98878592739595,108.27916451030447 241.2986308434228,100.38290372126298 251.59228598600117,93.29130983796179 271.27434018810817,101.58990383847339" stroke="#000000" stroke-linecap="round" stroke-width="1" /><polyline clip-path="url(#border_clip)" fill="none" points="247.09607197352508,100.14945167369774 228.14496519896343,110.00366255124496 217.3144549704611,103.76266197519061 226.33836004821703,95.11285404971298 247.09607197352508,100.14945167369777" stroke="#000000" stroke-linecap="round" stroke-width="1" /><polyline clip-path="url(#border_clip)" fill="none" points="223.00023231297243,102.60278085017327 205.8737359960301,115.36730371261379 194.18288061541023,110.94305909127604 201.7035968754787,100.9586278638327 223.00023231297243,102.6027808501733" stroke="#000000" stroke-linecap="round" stroke-width="1" /><polyline clip-path="url(#border_clip)" fill="none" points="199.61072305600476,108.88610817162734 184.75208899959333,124.23116972176966 172.5031711443009,121.73836981517803 178.32595817781797,110.67739376591771 199.61072305600476,108.88610817162731" stroke="#000000" stroke-linecap="round" stroke-width="1" /><polyline clip-path="url(#border_clip)" fill="none" points="177.5330585973793,118.83656116628592 165.32721977246774,136.36560616538063 152.83708125366203,135.86913886429176 156.8109309234648,124.01761749352198 177.53305859737932,118.83656116628592" stroke="#000000" stroke-linecap="round" stroke-width="1" /><polyline clip-path="url(#border_clip)" fill="none" points="157.33874314408683,132.19642795873227 148.10232097751742,151.45618978386688 135.69424804716385,152.96938711238394 137.7158414006916,140.63394223540536 157.33874314408683,132.19642795873227" stroke="#000000" stroke-linecap="round" stroke-width="1" /><polyline clip-path="url(#border_clip)" fill="none" points="139.55053671667824,148.61983209907004 133.5235272851683,169.11190562305723 121.51892404224219,172.5960900297631 121.53539831982178,160.09609928583922 139.5505367166782,148.61983209907004" stroke="#000000" stroke-linecap="round" stroke-width="1" /><polyline clip-path="url(#border_clip)" fill="none" points="124.62897603839598,167.68165933553828 121.96835630965111,188.8753145808946 110.6784111641822,194.24068303164498 108.68884446159777,181.9000321437877 124.62897603839598,167.68165933553828" stroke="#000000" stroke-linecap="round" stroke-width="1" /><polyline clip-path="url(#border_clip)" fill="none" points="112.96048561826166,188.88851219266434 113.73594601582795,210.23443876360082 103.45350907687722,217.34228869142754 99.50905776644632,205.48095049290862 112.96048561826163,188.88851219266434" stroke="#000000" stroke-linecap="round" stroke-width="1" /><polyline clip-path="url(#border_clip)" fill="none" points="104.84737797995928,211.69142134024753 109.03933807936787,232.63604811001767 100.03123419834344,241.30231053788572 94.23389348054874,230.22797621920975 104.84737797995928,211.69142134024753" stroke="#000000" stroke-linecap="round" stroke-width="1" /><polyline clip-path="url(#border_clip)" fill="none" points="100.4999999999992,235.49999999999937 107.99999999999909,255.49999799999947 100.499999999999,265.49999999999943 92.99999999999906,255.49999799999935 100.4999999999992,235.49999999999937" stroke="#000000" stroke-linecap="round" stroke-width="1" /><polyline clip-path="url(#border_clip)" fill="none" points="100.03123419834327,259.6976894621131 110.64471869775369,278.23424434107534 104.84737797995894,289.30857865975133 95.83927409893457,280.6423162318832 100.03123419834327,259.6976894621131" stroke="#000000" stroke-linecap="round" stroke-width="1" /><polyline clip-path="url(#border_clip)" fill="none" points="103.45350907687691,283.6577113085713 116.90493692869208,300.2501496088157 112.96048561826109,312.1114878073346 102.67804867931042,305.0036378795078 103.45350907687691,283.65771130857127" stroke="#000000" stroke-linecap="round" stroke-width="1" /><polyline clip-path="url(#border_clip)" fill="none" points="110.67841116418168,306.75931696835397 126.61854274097976,320.97768977660354 124.62897603839524,333.3183406644608 113.33903089292636,327.9529722137103 110.67841116418168,306.75931696835397" stroke="#000000" stroke-linecap="round" stroke-width="1" /><polyline clip-path="url(#border_clip)" fill="none" points="121.51892404224145,328.4039099702359 139.53406243909777,339.8801771570053 139.55053671667724,352.38016790092917 127.54593347375115,348.8959834942232 121.51892404224145,328.4039099702359" stroke="#000000" stroke-linecap="round" stroke-width="1" /><polyline clip-path="url(#border_clip)" fill="none" points="135.69424804716286,348.0306128876152 155.31714979055803,356.4681271642884 157.3387431440857,368.803572041267 144.93067021373213,367.29037471274984 135.69424804716286,348.0306128876152" stroke="#000000" stroke-linecap="round" stroke-width="1" /><polyline clip-path="url(#border_clip)" fill="none" points="152.83708125366098,365.1308611357075 173.5592089275754,370.3119174629437 177.53305859737813,382.16343883371354 165.04292007857242,382.6599061348023 152.83708125366098,365.1308611357075" stroke="#000000" stroke-linecap="round" stroke-width="1" /><polyline clip-path="url(#border_clip)" fill="none" points="172.50317114429976,379.2616301848214 193.78793602248652,381.052915779112 199.61072305600345,392.1138918283724 187.36180520071102,394.6066917349639 172.50317114429976,379.26163018482134" stroke="#000000" stroke-linecap="round" stroke-width="1" /><polyline clip-path="url(#border_clip)" fill="none" points="194.18288061540898,390.0569409087236 215.4795160529027,388.41278792238325 223.00023231297112,398.3972191498267 211.3093769323512,402.8214637711643 194.18288061540898,390.0569409087236" stroke="#000000" stroke-linecap="round" stroke-width="1" /><polyline clip-path="url(#border_clip)" fill="none" points="217.31445497045985,397.2373380248093 238.07216689576796,392.20074040082466 247.0960719735238,400.8505483263023 236.26556174502142,407.09154890235664 217.31445497045985,397.2373380248092" stroke="#000000" stroke-linecap="round" stroke-width="1" /><polyline clip-path="url(#border_clip)" fill="none" points="241.29863084342153,400.61709627873705 260.9806850455286,392.3185022782256 271.2743401881069,399.4100961615269 261.5841851041337,407.3063569505683 241.2986308434215,400.617096278737" stroke="#000000" stroke-linecap="round" stroke-width="1" /><polyline clip-path="url(#border_clip)" fill="none" points="265.51419509369504,400.10897499113366 283.6116171346087,388.7629080305935 294.9088680940197,394.1128763258354 286.60966646725785,403.46024453075586 265.51419509369504,400.10897499113366" stroke="#000000" stroke-linecap="round" stroke-width="1" /><polyline clip-path="url(#border_clip)" fill="none" points="289.33408201912266,395.72641051850235 305.3786608710096,381.6260059333286 317.3874291410715,385.09580774841226 310.6939622560546,395.652679494303 289.33408201912266,395.72641051850235" stroke="#000000" stroke-linecap="round" stroke-width="1" /><polyline clip-path="url(#border_clip)" fill="none" points="312.1415901378852,387.58310510103183 325.7178895019755,371.09268316656915 338.1276193280497,372.5922316465621 333.21332622921034,384.0856977616513 312.1415901378852,387.58310510103183" stroke="#000000" stroke-linecap="round" stroke-width="1" /><polyline clip-path="url(#border_clip)" fill="none" points="333.34630394896527,375.89003713156586 344.10239650002615,357.4358670599257 356.5919916444062,356.92591301348364 353.5844585590673,369.05871090764623 333.3463039489652,375.89003713156586" stroke="#000000" stroke-linecap="round" stroke-width="1" /><polyline clip-path="url(#border_clip)" fill="none" points="352.39931977168374,360.9499805484892 360.05597222462177,341.0094290712876 372.3020412773312,338.5026716525738 371.27962667257947,350.9607898241114 352.39931977168374,360.9499805484892" stroke="#000000" stroke-linecap="round" stroke-width="1" /><polyline clip-path="url(#border_clip)" fill="none" points="368.80739627305684,343.1496791096728 373.1654514516308,322.23898148715165 384.85066442470554,317.799855697777 385.84036315757874,330.260615562976 368.80739627305684,343.1496791096728" stroke="#000000" stroke-linecap="round" stroke-width="1" /><polyline clip-path="url(#border_clip)" fill="none" points="382.1456782508166,322.9498746737131 383.09140873436354,301.61081391995697 393.91275297814894,295.3539338062344 396.8893791681029,307.49435128362313 382.14567825081656,322.9498746737131" stroke="#000000" stroke-linecap="round" stroke-width="1" /><polyline clip-path="url(#border_clip)" fill="none" points="392.0686758589954,300.8734375796345 389.57692576876366,279.65926539479926 399.253638953244,271.7465375500349 404.1403757835635,283.25174694192356 392.0686758589954,300.8734375796345" stroke="#000000" stroke-linecap="round" stroke-width="1" /><polyline clip-path="url(#border_clip)" fill="none" points="398.3192205879062,277.4918920373693 392.45420905557796,256.95286675071895 400.73516429261974,247.58933000640513 407.40549007106006,258.1608386030757 398.3192205879062,277.4918920373693" stroke="#000000" stroke-linecap="round" stroke-width="1" /></svg>